STARTFONT 2.3
FONT -FontForge-Monoton-Book-R-Normal--28-280-72-72-P-189-ISO10646-1
SIZE 28 72 72  4
FONTBOUNDINGBOX 53 43 -5 -11
COMMENT "Generated by fontforge, http://fontforge.sourceforge.net"
COMMENT "Copyright (c) 2011 by vernon adams. All rights reserved."
STARTPROPERTIES 41
FOUNDRY "FontForge"
FAMILY_NAME "Monoton"
WEIGHT_NAME "Book"
SLANT "R"
SETWIDTH_NAME "Normal"
ADD_STYLE_NAME ""
PIXEL_SIZE 28
POINT_SIZE 280
RESOLUTION_X 72
RESOLUTION_Y 72
SPACING "P"
AVERAGE_WIDTH 189
CHARSET_REGISTRY "ISO10646"
CHARSET_ENCODING "1"
FONTNAME_REGISTRY ""
CHARSET_COLLECTIONS "ISO8859-2 ISO8859-9 ISO8859-4 ISO10646-1"
BITS_PER_PIXEL 4
FONT_NAME "Monoton-Regular"
FACE_NAME "Monoton"
COPYRIGHT "Copyright (c) 2011 by vernon adams. All rights reserved."
FONT_VERSION "1.000"
FONT_ASCENT 22
FONT_DESCENT 6
UNDERLINE_POSITION -1
UNDERLINE_THICKNESS 1
X_HEIGHT 19
CAP_HEIGHT 22
DEFAULT_CHAR 1
RAW_ASCENT 799
RAW_DESCENT 200
NORM_SPACE 3
RELATIVE_WEIGHT 40
RELATIVE_SETWIDTH 50
SUPERSCRIPT_X 0
SUPERSCRIPT_Y 9
SUPERSCRIPT_SIZE 16
SUBSCRIPT_X 0
SUBSCRIPT_Y 2
SUBSCRIPT_SIZE 16
AVG_LOWERCASE_WIDTH 202
AVG_UPPERCASE_WIDTH 221
ENDPROPERTIES
CHARS 372
STARTCHAR glyph1.dup1
ENCODING 0
SWIDTH 108 0
DWIDTH 3 0
BBX 1 1 0 0
BITMAP
00
ENDCHAR
STARTCHAR uni0002
ENCODING 2
SWIDTH 108 0
DWIDTH 3 0
BBX 1 1 0 0
BITMAP
00
ENDCHAR
STARTCHAR uni0009
ENCODING 9
SWIDTH 108 0
DWIDTH 3 0
BBX 1 1 0 0
BITMAP
00
ENDCHAR
STARTCHAR uni000A
ENCODING 10
SWIDTH 108 0
DWIDTH 3 0
BBX 1 1 0 0
BITMAP
00
ENDCHAR
STARTCHAR uni000D
ENCODING 13
SWIDTH 108 0
DWIDTH 3 0
BBX 1 1 0 0
BITMAP
00
ENDCHAR
STARTCHAR space
ENCODING 32
SWIDTH 108 0
DWIDTH 3 0
BBX 1 1 0 0
BITMAP
00
ENDCHAR
STARTCHAR exclam
ENCODING 33
SWIDTH 336 0
DWIDTH 9 0
BBX 8 24 1 -1
BITMAP
73728282
B4B4C3C3
B4B4C3C3
B4B4C3C3
B4B4C3C3
B4B4C3C3
B4B4C3C3
B4B4C3C3
B4B4C3C3
B4B4C3C3
B4B4C3C3
B4B4C3C3
B4B4C3C3
B4B4C3C3
B4B4C3C3
B4B4C3C3
B4B4C3C3
10101010
00000000
AEEEEEE2
01111110
AFFFFFF2
00000000
BFFFFFF3
ENDCHAR
STARTCHAR quotedbl
ENCODING 34
SWIDTH 538 0
DWIDTH 15 0
BBX 13 10 1 13
BITMAP
81819100909090
D2D2E100F0F1E0
D2D2E100F0F1E0
D2D2E100F0F1E0
D2D2E100F0F1E0
D2D2E100F0F1E0
D2D2E100F0F1E0
D2D2E100F0F1E0
D2D2E100F0F1E0
30303000303030
ENDCHAR
STARTCHAR numbersign
ENCODING 35
SWIDTH 1014 0
DWIDTH 28 0
BBX 28 26 0 -2
BITMAP
0000000002818180000272828000
000000000695A5B000078696A000
000000000A596970000B5A596000
000000000E2D3C30000E1E2D2000
000014443D2E1E24444C3D2D2443
00004BBB795A5A8BBB78696A8BB8
00003443A596974443B5A5A64441
0000ABB6E2D2C6BBB6E1E2D5BBB2
00014443D2E1E34444C3D2D34430
0004AAA795A5A8AAA7869698AA70
0000000A596970000B5A5A600000
0000000E2D2C30000E1E1D200000
0000002D2E1E00003C3D2D000000
000000695A5A0000786969000000
000000A596970000B4A5A6000000
000000E2D2C30000E1E1D2000000
013333D2E1E23334C3D2D2333000
04CCC796A5A8CCC8869699CC9000
03443A596974442B4A5A64441000
0ABB7E2D2D5BBB6E1E1D5BBB3000
14443D2E1E24444C3D2D24430000
4BBB796A5A8BBB8869698BB80000
0000A596960000B4A5A600000000
0000E2D2D30000E1E1D200000000
0002D2D1E00003C3D2D000000000
0004637370000464636000000000
ENDCHAR
STARTCHAR dollar
ENCODING 36
SWIDTH 686 0
DWIDTH 19 0
BBX 19 32 0 -5
BITMAP
00000005405400000000
00000008709600000000
00000008708600000000
00000025899762000000
00004CDA76679DD71000
0008D51689986228E600
007C28EA75679DC62B40
02E2AA159AA9624BA000
0986B2CB65569DB21000
0D3C3B828AA972410000
0F1E1F1D744587000000
1E1E1E1E000000000000
0E1E1E2ADBBA84000000
0B4B57B123357DC30000
07A4D29EDCCB726E4000
01E47D5123348E54E100
004E44BEDCCB52D39800
0004E9312235C74C2E00
000018CFEDC81E1D2D20
00000000122C4B4A4B40
00000130001B4A5A5B40
000004BEEEE92E2D2C30
0001C9411104C84C2E00
007816BDFEEC52D49800
1719E95200138E55D100
09D527ADEFEC826E3000
004BD85210137DB20000
000037ADEFEC93000000
00000004304300000000
00000008709600000000
00000008709600000000
00000001101000000000
ENDCHAR
STARTCHAR percent
ENCODING 37
SWIDTH 1504 0
DWIDTH 42 0
BBX 42 26 0 -2
BITMAP
000000279973000000000000000000000000000000
00003BD8668DC30000000545545000000000000000
0006E51699725E6000000C4B4A5000000000000000
005D27E9669E72D500001E1E1E1000000000000000
01E39B16AA61B93E10005B4C3C0000000000000000
0885C1CB55BC1C5970008788780000000000000000
0D2C3A92992994C3C000C3B4B50000000000000000
1E1D1E1D77D1E1E1F101E1E1E10000000000000000
3C3B4B4B00C3C3C2D205A4B3C0000038AB96100000
2D2C3D2D11E2E2D2E109787780003BD7546AE70000
1E1E1D48EE74D1E1E00D3C3B4005E527ABA52BB100
0B5975D3123D4896A02E1E1E103E36E8436BC29A00
04C2D45DDDD45D2D405A5B4B00D57C26BC926D2C50
00B83D812218D39A0096878705B3D2BB437E4894C0
001D828EDDE929D100D2C3C40A5967B2AC64D1E1D2
0001AC611116CA1002D1E1E00D2D2D3B83D3B5A5B4
000004AEEEEA400006A5A4B00E1E0F0E0087879696
00000000110000000A6968700D2D1E2D40C5A5A5A5
00000000000000000E2D2C300B4A5983DE92E1D2D3
00000000000000002D2E1E0006A4C2D8103D66B3D0
0000000000000000695A5A0001E2AA29EED53E3A70
0000000000000000A5969700006D1AC51028E46C00
0000000000000000E1D2D3000008C25BEFD927D200
0000000000000003D2D1E00000006E942126CB1000
00000000000000079695A0000000017BEED9400000
000000000000000A59596000000000000000000000
ENDCHAR
STARTCHAR ampersand
ENCODING 38
SWIDTH 1029 0
DWIDTH 29 0
BBX 29 23 0 0
BITMAP
000000379AAAAAA703636464500000
00003CD86555555405A59696800000
0006E5169AAAAAA705A59696800000
005D27E96555555305A59696800000
01E39B26ABBBBBB705A59696800000
0895C1CB6444444305A59696800000
0D3C4A929BBBBBB805A59696800000
0F1E1E1D6444444305A59696800000
1E1E1E2D0000000005A59696800000
0E1E1E2CB999999997A59696899910
096877C24555555556A59696855500
02D1D38EBAAAAAAAA7A5969689AA10
05A5B3DA6555555556A59696845500
0C3C3C64ABCCCCCCC8A596968BCC10
0E1E1E1E5333333336A59696833300
0E0E1E1E1000000004A5A5A5A00000
0E2D2D48EDDDDDDD93C3C3D1DED300
0A6784D51111111110E1D3A9111000
05D1D54CFEEEEEEEA0975C19EEE300
00B92C9301111111102E28D5111000
001DA17CEEEEEEEEA005D34BEEE300
0001AE731000000000004D94100000
0000039DEFFFFFFFA000017BEFF300
ENDCHAR
STARTCHAR quotesingle
ENCODING 39
SWIDTH 257 0
DWIDTH 7 0
BBX 6 10 1 13
BITMAP
818191
D2D2E1
D2D2E1
D2D2E1
D2D2E1
D2D2E1
D2D2E1
D2D2E1
D2D2E1
303030
ENDCHAR
STARTCHAR parenleft
ENCODING 40
SWIDTH 410 0
DWIDTH 12 0
BBX 10 26 1 -2
BITMAP
0000016896
00019EA753
003D8158A6
02D44DB653
0B64D349A6
3D1D28D742
87785C17B6
C3C3C49A42
E1E1F1E000
E0F0F1E000
E0F0F1E000
E0F0F1E000
E0F0F1E000
E0F0F1E000
E0F0F1E000
E0F0F1E000
E0F0F1E000
E1E0F1E000
D2D2D2C500
A596893CE8
5A3D1C8211
0D38A19EF8
05D19D6100
007D34ADF9
0005DA5200
000006BDE8
ENDCHAR
STARTCHAR parenright
ENCODING 41
SWIDTH 408 0
DWIDTH 11 0
BBX 11 26 0 -2
BITMAP
1A9730000000
0568CD500000
1A9724C90000
0558D91B8000
1BA719B1D300
0459D2985B00
1BA35D1D1E10
046D2B4B4B40
000878786960
000787887870
000787887870
000787887870
000787887870
000787887870
000787887870
000787887870
000787887870
000778787860
001C4A5A5A50
1EE82E1D2D20
0114D66A3D00
1EFC44D2B600
00139D37C000
1FEC718D1000
00137DA10000
1FEC83000000
ENDCHAR
STARTCHAR asterisk
ENCODING 42
SWIDTH 664 0
DWIDTH 19 0
BBX 17 18 1 2
BITMAP
000002928280000000
000002C3C3C0000000
006102C3C3C0034000
019D52C3C3C19D5000
1B33CDC3C3EE817700
15DA25B3C3B25DA210
D817E713C02BC43C80
19E62AD8D9E629D500
003EC14EFB15EA1000
03CB34DCED916E9100
AD52AD53C18E718E50
618E7173C252AD4240
1D926EC3C3FC34C800
014CB5C3C3C6D92100
01C502C3C3C0188000
000002C3C3C0000000
000002C3C3C0000000
000000101010000000
ENDCHAR
STARTCHAR plus
ENCODING 43
SWIDTH 601 0
DWIDTH 17 0
BBX 15 14 1 4
BITMAP
0000A1A1B0B00000
0000D1E1E0F00000
0000D1E1E0F00000
0000D1E1E0F00000
BCCCF1E1E0FCCCA0
3333E1E1E0F33320
CCCCF1E1E0FCCCA0
2222E1E1E0F22220
CDDDF1E1E0FDDDA0
2222E1E1E0F22220
0000D1E1E0F00000
0000D1E1E0F00000
0000D1E1E0F00000
0000101010100000
ENDCHAR
STARTCHAR comma
ENCODING 44
SWIDTH 252 0
DWIDTH 7 0
BBX 5 9 1 -4
BITMAP
D1D0E0
E1E0F0
E1E0F0
E1E0F0
00F0F0
17C1E0
DB26A0
137E30
CC9200
ENDCHAR
STARTCHAR hyphen
ENCODING 45
SWIDTH 473 0
DWIDTH 13 0
BBX 12 6 1 8
BITMAP
9CCCCCCCCCC1
233333333330
9CCCCCCCCCC1
233333333330
ADDDDDDDDDD1
222222222220
ENDCHAR
STARTCHAR period
ENCODING 46
SWIDTH 255 0
DWIDTH 7 0
BBX 5 5 1 0
BITMAP
CEEEE0
111110
DEEEE0
000000
DFFFF0
ENDCHAR
STARTCHAR slash
ENCODING 47
SWIDTH 447 0
DWIDTH 13 0
BBX 12 26 0 -3
BITMAP
000000272818
000000796A5A
000000A59697
000000E1D2D3
000003D2D1E0
00000796A5A0
00000A596960
00000E1D2D30
00003D2D1E00
000079695A00
0000A5969600
0000E1D2D300
0003D2D1E000
00079695A000
000A5A696000
000E1D2D3000
003D2D1E0000
0079695A0000
00A5A6960000
00E1D2D30000
03D2D1E00000
079695A00000
0A5A69600000
0E1D2D200000
3D2D2E000000
463637000000
ENDCHAR
STARTCHAR zero
ENCODING 48
SWIDTH 843 0
DWIDTH 24 0
BBX 23 25 0 -1
BITMAP
000000002689974100000000
0000004BEA7668CE91000000
000009E6158997429E500000
0000BB18EA7568CD53E60000
0009A2CA248A9724D82E4000
004D2C73CC7558D91C84D000
00C58A3E528AA619B2D3A700
03D2E1D56E755AD2A85B3D00
088786A3D200006C2E1D2D30
0C4C4B4A6000000B5A696970
0E1E1E1E1000000696969690
1E1E1D2D00000003C4B4B5B0
1D2D2C3C00000002D3C3C4B0
1E2D2D2C00000003C3C4B4B0
0F1E1E1E00000005A5A5A5A0
0D2D2C3C3000000978788880
0A696886B000002E1D3C4B40
05B4C2E2BA2004D66B3D1E10
00E2B66C17DEEC44E2B68900
007A3E37D611039D37C2E200
000C65E43AEEFD818D2B7000
0002D64DA510127DA2AB0000
00003D926BEFFD933CA00000
0000019E9421126BD6000000
000000027BDEEDA510000000
ENDCHAR
STARTCHAR one
ENCODING 49
SWIDTH 426 0
DWIDTH 12 0
BBX 11 23 0 0
BITMAP
2AAAAAAAAA70
155555555540
2AAAAAAAAA70
155555555530
2BBBBBBBBB70
1446D7C7C7B0
0003C3C4B4B0
0003C3C4B4B0
0003C3C4B4B0
0003C3C4B4B0
0003C3C4B4B0
0003C3C4B4B0
0003C3C4B4B0
0003C3C4B4B0
0003C3C4B4B0
0003C3C4B4B0
0003C3C4B4B0
0003C3C4B4B0
0003C3C4B4B0
0003C3C4B4B0
0003C3C4B4B0
0003C3C4B4B0
0003C3C4B4B0
ENDCHAR
STARTCHAR two
ENCODING 50
SWIDTH 583 0
DWIDTH 16 0
BBX 16 24 0 0
BITMAP
0036789874100000
3EC986678BEA2000
01378AA98417E500
0CC976578CE63E40
003689A9624D75C0
06B875458D72E1D3
00479ABA61D3A696
00B86545B6787878
0000000069788887
00000000D3C3C4B5
000000098796B2E1
0000005C3D2E3B70
000002D3C4B75C00
00000C5976C2E300
0000995B3E2B7000
0005C3D2C57B0000
002D3C4993D10000
00C5985C1D400000
0361807245000000
0DEEEEEEEEEEEE50
0111111111111100
0EEEEEEEEEEEEE60
0000000000000000
0EFFFFFFFFFFFF60
ENDCHAR
STARTCHAR three
ENCODING 51
SWIDTH 612 0
DWIDTH 17 0
BBX 17 25 0 -1
BITMAP
002578998620000000
3EDA876679EB300000
012578998515E70000
0CDA87656AE72C7000
012589AA951AA2D200
06DA76557CC2A76A00
003689AA827C2D1E00
01B865447D2D3C2C20
000000000A5B4B4B30
00006BBBAA5B2D2D20
0000244458CD6A2E00
00006BBBA723CA6900
0000244458DA1AA100
00007CCCA717C1C500
0000233359E4794C00
00007CCCA54D1E1E10
000013334D3B4B3C30
006310001D3B4B3C30
018BDEEEE72E1E1E10
0474210116E56A3D00
038BDEFFEA35D2B600
0985321014AD38B000
047ACDEFDB619C1000
2B853211249E800000
158ACDEEDB72000000
ENDCHAR
STARTCHAR four
ENCODING 52
SWIDTH 622 0
DWIDTH 17 0
BBX 17 23 0 0
BITMAP
000000190826447000
000000794D1E2C5000
000001E3B6894D0000
000006B3D1E3A70000
00000D4A76B2E10000
00005C2E1D49800000
0000C5985C1E200000
0004D1E2C57A000000
000B6794D1E3000000
003E1E3B66C0313100
00A76B2E1C50C3C300
02E1D4984D00C3C300
0985C1E1B600C3C300
092744719100828200
1DDDDDDDDDDDDDDD90
022222222222222210
1DDDDDDDDDDDDDDD90
011111111111111110
1EEEEEEEEEEEEEEE90
011111111111626210
000000000000C3C300
000000000000C3C300
000000000000C3C300
ENDCHAR
STARTCHAR five
ENCODING 53
SWIDTH 691 0
DWIDTH 19 0
BBX 19 24 0 -1
BITMAP
04AAAAAAAAAAAAAA5000
02555555555555553000
05AAAAAAAAAAAAAA5000
02555555555555552000
05BBBBBBBBBBBBBB5000
07AA9A94444444442000
07887870000000000000
07887870000000000000
0788787CEEEEB6100000
0788787112104AE50000
0788787DEDDEA33D7000
0788787123315C82D400
0788787CCBCE91A74D00
0788787245328C1D2C30
0666676B99AD3A787870
000000000006A5A69690
00000130001996969680
000005CEEED82C4A6960
0001D8411126D83D1E20
008727BEFFEA43D48A00
172AD8410025AD45D100
1AC427BDEEDA618D2000
005CC84211259E910000
000037BDEEDA71000000
ENDCHAR
STARTCHAR six
ENCODING 54
SWIDTH 781 0
DWIDTH 22 0
BBX 21 25 1 -1
BITMAP
0000001478987300000000
000029EB86678CE9200000
0007D71479A87317D80000
008B27DC86568CD71A6000
06C1BB2379A97329C10000
1D2A92BD85568CC3100000
6A4C1D7179BA8341000000
B5A6884D95457800000000
D2D1D2D500000000000000
E0F0E1E3ADEEEC82000000
F0E1E1D24111037D910000
F0E1E1D3BEDDED719D1000
F0E1E1D24123228D38B000
F0E1E1D4DDCBDD53D2C500
F0E1E1D2334533C6795B00
F0E1E1D4DB99CA2E1E1E00
E1E1F0E210000D2C3D2D20
C2C3C49A20004E2D2D2E10
97885C27DEEEC55C2E1E00
3D1D37D8311139D3986A00
0A74E529CFFFC719B2D300
01D63CC6310137D91B8000
002CA249CEFEC834D80000
00007EA6310137CD400000
00000159CDEEC940000000
ENDCHAR
STARTCHAR seven
ENCODING 55
SWIDTH 631 0
DWIDTH 18 0
BBX 17 23 0 0
BITMAP
2AAAAAAAA391909090
1555555555B4B4B4C0
2AAAAAAA8878778780
155555553C3C4B4B50
2BBBBBBB4E1E1E1E10
144444445B4B4C3C00
000000008788787800
00000000C3C4B4B500
00000001E1E1E1E100
00000004B4B3C3C000
000000087887879000
0000000C4B4B4B5000
0000001E1E1E1E1000
0000004B4C3C3D0000
000000878878790000
000000B4B4B5A50000
000001E1E1E1E10000
000004B4C3C3D00000
000008878796900000
00000B4B4A5A500000
00000E1E1E1E200000
00004C3C3D2D000000
000078786969000000
ENDCHAR
STARTCHAR eight
ENCODING 56
SWIDTH 808 0
DWIDTH 23 0
BBX 21 25 1 -1
BITMAP
0000016899999740000000
0002AEA7655568CE700000
006D6158AAAA9732AC2000
05D27EA6555568CC36D100
2E29B259AAAAA725E38A00
885C2CC7544469E63D1D20
D3C4A828ABBBA62D496870
F1E1E1D854445B85A5A5A0
E1E1E1E1000003C3C3B4B0
E1E1D39ECCCCBA8585A5A0
A6975D413333459EB75970
5C2D44CECCCCCA617E5D20
0B83D8213333359E53E500
38D818DEDCCCCA52C65C00
974BD621222236CA2D2C40
D2D28AEEDDDDC92A678790
F1E1E1A1222228B4B4B4A0
E0E1E1E2000006B3C4B4B0
D2D3C55DEEEEEC39869690
967A3E821111129D1D3A50
3D1C729EFEEEFD81A93D10
09B2BC521111026D92D500
00AB25ADFFFFED943D7000
0007EA521000125AD40000
000016ADEFFFEDA5100000
ENDCHAR
STARTCHAR nine
ENCODING 57
SWIDTH 782 0
DWIDTH 22 0
BBX 21 25 0 -1
BITMAP
0000000478987300000000
000018EB86668BE9200000
0005E82379A97317D70000
005D35DC86568CD62C8000
01E38C3379A9732BB1C600
0986C1AE86568CB28A2E10
0E2D3A927AAA726D2C4A60
2D2D2D1D85458D4796A5A0
3C3B4B4B000004C2D2D2C0
2D1D2E1D8445A4E0F0E1E0
0E2C3A9279A840E0F0F1E0
0884C19D8668C4E0F0F1E0
01D46D42688730E0F0F1E0
004E63BD9889D4E0F0F1E0
0003DA31566510E0F0F1E0
000006CDA99AE4F0F0E1E0
00000001455413D2D2D2D0
0000000310004D6695B4B0
00000018DEEEC53D2B6960
000006D6201038E46C1D20
0001B439DEFEC826D29800
00444DB6310136CB28B000
003D8249CEFEC942BB1000
00018EA6320136AD600000
00000159CDEEC950000000
ENDCHAR
STARTCHAR colon
ENCODING 58
SWIDTH 262 0
DWIDTH 7 0
BBX 6 14 1 3
BITMAP
8BBBB2
344441
9CCCC2
233330
9CCCC2
233330
000000
000000
ADDDD2
122220
ADDDD2
111110
BEEEE2
111110
ENDCHAR
STARTCHAR semicolon
ENCODING 59
SWIDTH 261 0
DWIDTH 7 0
BBX 6 17 1 0
BITMAP
8BBBB2
344441
9CCCC2
233330
9CCCC2
233330
000000
000000
A3A2B2
C3C3C2
C3C3C2
C3C3C2
10C2D2
04E0E1
BD43D0
015D50
BEA400
ENDCHAR
STARTCHAR less
ENCODING 60
SWIDTH 670 0
DWIDTH 19 0
BBX 17 21 1 1
BITMAP
000000000000000250
00000000000015BD60
000000000039EA5140
000000016CD724AE70
0000039EA417DC6130
0016CD714AE9328E90
39EA427DC615BE8210
D714AE9328EB516CA0
27DC615BD8239EA400
E8239EB516CC710000
16CD724AE930000000
EA417DC616C7100000
24AE933C8239EA4000
DD6199328EB516CD60
9EA417DC615BE82360
016CD724AE9328DB50
000039EA417DC61570
00000016CD724AE930
00000000028EB51680
0000000000005BD820
000000000000002890
ENDCHAR
STARTCHAR equal
ENCODING 61
SWIDTH 473 0
DWIDTH 13 0
BBX 12 14 1 3
BITMAP
9BBBBBBBBBB1
344444444440
9CCCCCCCCCC1
233333333330
9CCCCCCCCCC1
233333333330
000000000000
000000000000
ADDDDDDDDDD1
122222222220
AEEEEEEEEEE1
111111111110
BEEEEEEEEEE1
111111111110
ENDCHAR
STARTCHAR greater
ENCODING 62
SWIDTH 670 0
DWIDTH 19 0
BBX 17 21 1 1
BITMAP
610000000000000000
8EA400000000000000
515BD8200000000000
9E9328EB5000000000
317DC615BE82000000
BD714AE9328DB50000
239EA417DC615BE820
CB516CD724AE803EC0
05BE8239EA215BE930
00027DC4048DB51690
00000035BE8239EA40
000028EB516CD71480
005BD8239EA417DC50
8EB516CD714AE93260
724AEA427DC615BD70
6DC614AE8328EB5000
8328DB516CD8200000
5BE8239EA400000000
A516CD710000000000
39EA40000000000000
B71000000000000000
ENDCHAR
STARTCHAR question
ENCODING 63
SWIDTH 693 0
DWIDTH 19 0
BBX 19 24 0 0
BITMAP
00000268998510000000
0017DD97667AEB400000
05E92268998515D90000
2C35CD97657AE82AA000
008C4269AA8519C1B700
0011AD96557CD37C2E00
00005269AA834E2C4B50
00000585446D67878780
000000000005A5A59690
00030303134C67878780
000F0F0E4BA52D3B4A50
000F0F0E2569E55C1E10
000F0F0E498616D29800
000F0F0E3779DA17C100
000F0F0E387523BC2000
000F0F0E3889CD600000
000F0F0E266530000000
000F0F0E000000000000
00010101000000000000
007EEEEE700000000000
00011111000000000000
007FFFFF700000000000
00000000000000000000
008FFFFF700000000000
ENDCHAR
STARTCHAR at
ENCODING 64
SWIDTH 1076 0
DWIDTH 30 0
BBX 30 27 0 -2
BITMAP
000000000003689985200000000000
0000000018ED986689DD8100000000
00000018E931579986228E81000000
000002CA25CEA76679DD728D300000
00003E62CC4158998513AD54D40000
0002D54E62AEA75569DB33D82D3000
000C63E36E7100000005D91B83D100
006B1D48C20059AA951019B1C58900
01D3985D103DC7556AE600AA3E2D20
06A2E1D304E528BB952B900C497780
0A5796A01E46E8457CC2C504B3D2D0
0E1B4B40794D25AB828A4C00E1E1E1
1E0D1E10C4B57C547D1E1E00B3C3C3
2D0F1E00E1E1E2000C3D2D10A5A4B4
2D0E0F00D1E1E1000C3D2D10A5A4B4
1F0D2D20B4B57B432C3D2D10A5A4B4
0E2A59606A4D349A6C3D2D20B4B4B4
0A75A4D00C54DB874B4B59CAD1E2D2
05C1E2C701C813664785D24519B2E0
00D57C3E4007DCAA62E36EBADB1A70
005D1C84E7000234205D514531AB00
000BA2D83CD620000103CDA9BE8000
0001D92CB249DFEEEE400256410000
00002DB17EA5211112100000000000
000001AE715ADEFEED600000000000
00000004CE95311112200000000000
00000000037BDEEEED900000000000
ENDCHAR
STARTCHAR A
ENCODING 65
SWIDTH 936 0
DWIDTH 26 0
BBX 26 23 0 0
BITMAP
00000000076372819000000000
000000001ED1E1D2C400000000
0000000079B596886A00000000
00000000D35B3C2E1E10000000
00000003C25E2D3B5970000000
0000000968888795B3D0000000
0000001E1E23D1E1E2C4000000
0000006A5B37C4A6886A000000
000000C4B5976A4C2E1E100000
000003D2E1E13E1D3B59600000
0000097786A4997795B3C00000
00001E1D2C4A63D1E1E2D30000
00006A4C2D1E10C4A688790000
0000C4A68779006A4C2D1E1000
0003D1E1E2D3001E1D3C4A6000
00097795B3C699997786A4C000
001E2D3B59655554D2E1E2D300
006A4C2D1E5AAAA7C4B5977900
00C4A6886A3555556A5B3D2E10
02D1E1E2C6AAAAAA6E1D2C4A60
088795B3D2444444396886A4C0
0E2D3B597000000004C2E1E1D3
5B3C2E1E1000000000D3B59779
ENDCHAR
STARTCHAR B
ENCODING 66
SWIDTH 862 0
DWIDTH 24 0
BBX 23 23 1 0
BITMAP
7AAAAAAAAAAAAA9740000000
B855555555555568CD400000
B48AAAAAAAAAAA9724D80000
B4C7555555555558D91C6000
B4C38BBBBBBBBBA61AB2D300
B4C3C6444444445AD2A77A00
B4C3C39BBBBBBBA37C2D1E00
B4C3C3C64444445D2D2D2D20
B4C3C3C20000000B4C3C3C30
B4C3C3C5999999BD1E1E1E10
B4C3C3C455555542A95A4B00
B4C3C3C5AAAAAABE91D2C400
B4C3C3C455555559D4978700
B4C3C3C6CCCCCCB64E2E2E00
B4C3C3C33333334D3C3C3D20
B4C3C3C20000000C3C3C2D20
B4C3C3C6DDDDDDEA2E1E1E10
B4C3C3C311111114D6694C00
B4C3C3C6EEEEEEFC54D2C700
B4C3C3C3111111028D37D000
B4C3C3C7EEEEEEED818E2000
B4C3C3C2000000026DC20000
B4C3C3C7FFFFFFED94000000
ENDCHAR
STARTCHAR C
ENCODING 67
SWIDTH 852 0
DWIDTH 24 0
BBX 24 25 0 -1
BITMAP
000000000157898520000000
00000003BEA8667AEC500000
000001AD6158998514CC2000
00003D829EB7657AEA27E400
0002E53D9148AA8417E53E40
001C65D34DC8657BD53D64E1
00892D28D427AA833CA2D420
01E2C56C29D8557DA1B92100
0796B3E2BA1000008C140000
0C4B5A77B000000006100000
0E1E1E1E2000000000000000
2D3D3D3C0000000000000000
3C4B4B5A0000000000000000
2C3C4C4B0000000000000000
1E1E1E1E0000000000000000
0D2D3C5A7000000001000000
097885C2D40000003D200000
03D2E2A83D820028E46B0000
00B66C1C918DEED827D2A500
003E29A1AD721126CB29B2B1
0006D18C34ADFEDA42CB2C70
00007D35DB6210149E62C900
000005E816ADFFEB617E6000
00000019E95210148DB20000
0000000016ACEEDB72000000
ENDCHAR
STARTCHAR D
ENCODING 68
SWIDTH 886 0
DWIDTH 25 0
BBX 23 23 1 0
BITMAP
7AAAAAAAAAAAA97300000000
B85555555555568DD5000000
B48AAAAAAAAAA9724DA00000
B4C755555555558EA1AB0000
B4C38BBBBBBBB9619C2A9000
B4C3C644444446AD37C1D400
B4C3C39BBBBBBA44E2B76C00
B4C3C3C6444446D66B2E1D30
B4C3C3C20000002E2C4B6980
B4C3C3C2000000098796A5B0
B4C3C3C200000005B4B4C3D0
B4C3C3C200000003D2D2D2E0
B4C3C3C200000004C3C3D2D0
B4C3C3C20000000795A5B4B0
B4C3C3C20000000D4A598780
B4C3C3C2000001AA3E1E3C40
B4C3C3CEDDDDDE92C57B3D00
B4C3C3111111114D73E2B600
B4C3CEEEEEEEEEB43E56C000
B4C3111111111039E45E2000
B4CEEEEEEEEEEFC828D20000
B400000000000137DA100000
BFFFFFFFFFFFFEC830000000
ENDCHAR
STARTCHAR E
ENCODING 69
SWIDTH 706 0
DWIDTH 20 0
BBX 18 23 1 0
BITMAP
7272828AAAAAAAAAA6
B4C3C3C75555555553
B4C3C3CBAAAAAAAAA6
B4C3C3C65555555553
B4C3C3CBBBBBBBBBB7
B4C3C3C64444444443
B4C3C3C20000000000
B4C3C3C20000000000
B4C3C3C20000000000
B4C3C3CCCCCC600000
B4C3C3C53333200000
B4C3C3CDCCCC600000
B4C3C3C53333100000
B4C3C3CDDDDD700000
B4C3C3C42222100000
B4C3C3C20000000000
B4C3C3C20000000000
B4C3C3C20000000000
B4C3C3CEEEEEEEEEE9
B4C3C3C31111111111
B4C3C3CEEEEEEEEEE9
B4C3C3C30000000000
B4C3C3CFFFFFFFFFF9
ENDCHAR
STARTCHAR F
ENCODING 70
SWIDTH 683 0
DWIDTH 19 0
BBX 18 23 1 0
BITMAP
7272828AAAAAAAAAA1
B4C3C3C75555555550
B4C3C3CBAAAAAAAAA1
B4C3C3C65555555550
B4C3C3CBBBBBBBBBB1
B4C3C3C64444444440
B4C3C3C20000000000
B4C3C3C20000000000
B4C3C3C20000000000
B4C3C3C20000000000
B4C3C3CCCCCCCCCC70
B4C3C3C53333333320
B4C3C3CDCCCCCCCC80
B4C3C3C42222222210
B4C3C3CDDDDDDDDD80
B4C3C3C42222222210
B4C3C3C20000000000
B4C3C3C20000000000
B4C3C3C20000000000
B4C3C3C20000000000
B4C3C3C20000000000
B4C3C3C20000000000
B4C3C3C20000000000
ENDCHAR
STARTCHAR G
ENCODING 71
SWIDTH 908 0
DWIDTH 25 0
BBX 25 25 0 -1
BITMAP
00000000015789852000000000
00000003BEA8667AEC50000000
000001AD6158998514CC200000
00003D829EB7657AEA27E40000
0002E53D9148AA8417E53E4000
001C65D34DC8657BD53D64E100
00892D28D427AA833CA2D42000
01E2C56C29D8557DA1B9210000
0796B3E2BA1000008C14000000
0C4B5A77B00000000610000000
0E1E1E1E200000000000000000
2D3D3D3C000000000000000000
3C4B4B5A000000000858484930
2C3C3B4B00000000096A5A5B40
1E2D2D1E00000000096A5A5B40
0E2D2D3B50000000096A5A5B40
096977A3D2000000096A5A5B40
04C2D1D55E7200138E6A5A5B40
00C5892D629DEEEC8B6A5A5B40
004D2B82BC5101138E6A5A5B40
0008B1BB24ADEEEC8B6A5A5B40
00009C27EA5201137D6A5A5B40
000007E716ADFFEC8B6A5A5B40
0000002AE94211247D6A5A5B40
0000000027BDEEDB8400000000
ENDCHAR
STARTCHAR H
ENCODING 72
SWIDTH 901 0
DWIDTH 25 0
BBX 23 23 1 0
BITMAP
727282810000000090909190
B4C3C3C200000000F0F1E1E0
B4C3C3C200000000F0F1E1E0
B4C3C3C200000000F0F1E1E0
B4C3C3C200000000F0F1E1E0
B4C3C3C200000000F0F1E1E0
B4C3C3C200000000F0F1E1E0
B4C3C3C200000000F0F1E1E0
B4C3C3C200000000F0F1E1E0
B4C3C3CCCCCCCCCCF0F1E1E0
B4C3C3C533333333F0F1E1E0
B4C3C3CDCCCCCCCCF0F1E1E0
B4C3C3C422222222F0F1E1E0
B4C3C3CDDDDDDDDDF0F1E1E0
B4C3C3C422222222F0F1E1E0
B4C3C3C200000000F0F1E1E0
B4C3C3C200000000F0F1E1E0
B4C3C3C200000000F0F1E1E0
B4C3C3C200000000F0F1E1E0
B4C3C3C200000000F0F1E1E0
B4C3C3C200000000F0F1E1E0
B4C3C3C200000000F0F1E1E0
B4C3C3C200000000F0F1E1E0
ENDCHAR
STARTCHAR I
ENCODING 73
SWIDTH 338 0
DWIDTH 9 0
BBX 8 23 1 0
BITMAP
72728281
B4C3C3C2
B4C3C3C2
B4C3C3C2
B4C3C3C2
B4C3C3C2
B4C3C3C2
B4C3C3C2
B4C3C3C2
B4C3C3C2
B4C3C3C2
B4C3C3C2
B4C3C3C2
B4C3C3C2
B4C3C3C2
B4C3C3C2
B4C3C3C2
B4C3C3C2
B4C3C3C2
B4C3C3C2
B4C3C3C2
B4C3C3C2
B4C3C3C2
ENDCHAR
STARTCHAR J
ENCODING 74
SWIDTH 434 0
DWIDTH 12 0
BBX 11 24 0 -1
BITMAP
000090909190
0000F0F0E1E0
0000F0F0E1E0
0000F0F0E1E0
0000F0F0E1E0
0000F0F0E1E0
0000F0F0E1E0
0000F0F0E1E0
0000F0F0E1E0
0000F0F0E1E0
0000F0F0E1E0
0000F0F0E1E0
0000F0F0E1E0
0000F0F0E1E0
0000F0F0E1E0
0001E1E1E2D0
0008A4C3C3C0
5EEB2B687780
0112BA2E2D40
5EED72C66B00
01027D63E300
5FFD925E4000
00025BC30000
5FEDA5000000
ENDCHAR
STARTCHAR K
ENCODING 75
SWIDTH 815 0
DWIDTH 23 0
BBX 22 23 1 0
BITMAP
7272828100000644628091
B4C3C3C200001E1D4A77A0
B4C3C3C20000985B2D1D20
B4C3C3C20002E1D3A67900
B4C3C3C2000986B3D1E200
B4C3C3C2002E1D3A679000
B4C3C3C200976A3D1E2000
B4C3C3C202E1D3B6890000
B4C3C3C20A76A3D1E20000
B4C3C3C22D1D2B58800000
B4C3C3C2A67A4D1E100000
B4C3C3C4E0E3B679000000
B4C3C3C2D4976A3D000000
B4C3C3C25B2E1D3B600000
B4C3C3C20C4976A3D00000
B4C3C3C205C2E1D3A60000
B4C3C3C200C4986B3D0000
B4C3C3C2004C2E1D3A6000
B4C3C3C2000C5885B3D100
B4C3C3C20004C1E1D4A700
B4C3C3C20000B5885B2E10
B4C3C3C200004D1E2C4970
B4C3C3C200000B6895C2E1
ENDCHAR
STARTCHAR L
ENCODING 76
SWIDTH 604 0
DWIDTH 17 0
BBX 15 23 1 0
BITMAP
7272828100000000
B4C3C3C200000000
B4C3C3C200000000
B4C3C3C200000000
B4C3C3C200000000
B4C3C3C200000000
B4C3C3C200000000
B4C3C3C200000000
B4C3C3C200000000
B4C3C3C200000000
B4C3C3C200000000
B4C3C3C200000000
B4C3C3C200000000
B4C3C3C200000000
B4C3C3C200000000
B4C3C3C200000000
B4C3C3C200000000
B4C3C3C200000000
B4C3C3CEEEEEEEE0
B4C3C3C311111110
B4C3C3CEEEEEEEE0
B4C3C3C300000000
B4C3C3CFFFFFFFF0
ENDCHAR
STARTCHAR M
ENCODING 77
SWIDTH 920 0
DWIDTH 26 0
BBX 24 23 1 0
BITMAP
753819000000000003819184
BE1D3A70000000000B6794F7
BD86B2E1000000004D1E2CD7
B5E1D49700000000C5895C87
B4885C2E10000005C1E2C487
B42E2C598000000D4985B287
B48894D2E200006B2E1D5787
B4C4E2B6890000D3A76A7787
B4C37A3D1E2007A3D1D38787
B4C33D3A67A01E2A67A38787
B4C3A6B3E1D3893D1E588787
B4C3C3D4A76B82B689788787
B4C3C35C2E1D44C1E2788787
B4C3C34C5986B75985788787
B4C3C3B5C2E2D52E58788787
B4C3C3C2B5895C9778788787
B4C3C3C23D1E2CE178788787
B4C3C3C20101111078788787
B4C3C3C20000000078788787
B4C3C3C20000000078788787
B4C3C3C20000000078788787
B4C3C3C20000000078788787
B4C3C3C20000000078788787
ENDCHAR
STARTCHAR N
ENCODING 78
SWIDTH 877 0
DWIDTH 25 0
BBX 23 23 1 0
BITMAP
762909265000000636373720
BF3B76B2E200000A5A5B4B40
BAB2E2C67A00000A5A5B4B40
B4C67A3E1D40000A5A5B4B40
B43E1D4894D0000A5A5B4B40
B47994D1D3A8000A5A5B4B40
B4B3D3A85C2E200A5A5B4B40
B4C35C2E2B76B00A5A5B4B40
B4C34B76B2E2C50A5A5B4B40
B4C3B3E2C57A3D1A5A5B4B40
B4C3C37A3D1D49985A5B4B40
B4C3C33D4994D1D44A5B4B40
B4C3C3B5D1D3A85C0A5B4B40
B4C3C3C2A85C2E2B6A5B4B40
B4C3C3C21E2B66B2E45B4B40
B4C3C3C206B2E2C58A0B4B40
B4C3C3C200C57A3E1D4B4B40
B4C3C3C2003D1D4994D64B40
B4C3C3C2000994D1D3A71B40
B4C3C3C20001D3A85C2E2B40
B4C3C3C200005C2E2B67BB40
B4C3C3C200000B66B2E2CE40
B4C3C3C2000002E1C58A3F40
ENDCHAR
STARTCHAR O
ENCODING 79
SWIDTH 933 0
DWIDTH 26 0
BBX 26 25 0 -1
BITMAP
00000000015799751000000000
00000003BEA8668AEB40000000
000001AD6158998515CB200000
00003D829EB7667AEA26D40000
0002E53D9148AA8517D53D3000
001C65D34DC8657BE62D74D200
00892D28D427AA833C92D47A00
01E2C56C29D8557DA2B83D2D30
0796B3E2BA1000008C2D498790
0C4B5A77B00000000995C3D2D0
0E1E1E1E2000000001E1D2D2D2
2D3D3D3C0000000000A5B5A5B4
3C4B4B5A0000000000879696A5
2C3C4C4B000000000096A6A5A4
1E1E1E1E0000000000D2C3C3C3
0D2D3C5A7000000005C3E1E1E1
097885C2D40000003E3A76A5A0
03D2E2A83D820027E46C1E3B50
00B66C1C918DEED927D2A84C00
003E29A1AD721126CB19B1D400
0006D18C34ADFFEA42BA1B7000
00007D35DB621125AE62C90000
000005E816ADFFEB617E600000
00000019E95211249EA2000000
0000000016ADEEDB7200000000
ENDCHAR
STARTCHAR P
ENCODING 80
SWIDTH 850 0
DWIDTH 24 0
BBX 22 23 1 0
BITMAP
7AAAAAAAAAAAAA96100000
B855555555555569E91000
B48AAAAAAAAAAA8518D200
B4C755555555556AD35D10
B4C38BBBBBBBBA934D47B0
B4C3C6444444446D83D1D4
B4C3C39BBBBBBB82C58779
B4C3C3C64444449A4C3C3C
B4C3C3C20000000E0E1E1E
B4C3C3C20000002D2E2D2D
B4C3C3C3AAAAAAE77A5A5B
B4C3C3C344444425E2C497
B4C3C3C3BBBBBBDD37B2E2
B4C3C3C3444444229C1B90
B4C3C3C3BBBBBBDD71AC00
B4C3C3C3444443216DA100
B4C3C3C3CCCCCCDEA40000
B4C3C3C333333320000000
B4C3C3C200000000000000
B4C3C3C200000000000000
B4C3C3C200000000000000
B4C3C3C200000000000000
B4C3C3C200000000000000
ENDCHAR
STARTCHAR Q
ENCODING 81
SWIDTH 937 0
DWIDTH 26 0
BBX 26 28 0 -4
BITMAP
00000000015799751000000000
00000003BEA8668AEB40000000
000001AD6158998515CB200000
00003D829EB7667AEA26D40000
0002E53D9148AA8517D53D3000
001C65D34DC8657BE62D74D200
00892D28D427AA833C92D47A00
01E2C56C29D8557DA2B83D2D30
0796B3E2BA1000008C2D498790
0C4B5A77B00000000995C3D2D0
0E1E1E1E2000000001E1D2D2D2
2D3D3D3C0000000000A5B5A5B4
3C4B4B5A0000000000879696A5
2C3C4C4B000000027096A6A5A4
1E1E1E1E00000081D3D2C3C3C3
0D2D3C5A7000539846C3E1E1E1
097885C2D4005C1A3E3A76A5A0
03D2E2A83D820637E46C1E3B50
00B66C1C918DEED927D2A84C00
003E29A1AD721126CB19B1D400
0006D18C34ADFFEA42BA1B7000
00007D35DB621125AE62C90000
000005E816ADFFEB617E673000
00000019E95211249EA465C000
0000000016ADEEDB7382E2B300
000000000000000000B6780000
0000000000000000002D000000
00000000000000000001000000
ENDCHAR
STARTCHAR R
ENCODING 82
SWIDTH 843 0
DWIDTH 24 0
BBX 22 23 1 0
BITMAP
7AAAAAAAAAAAAA96100000
B855555555555579E91000
B48AAAAAAAAAAA8518D200
B4C755555555556AD35D10
B4C38BBBBBBBBA934E47A0
B4C3C6444444447D83D1D3
B4C3C39BBBBBBB82D59778
B4C3C3C6444444995B4B5B
B4C3C3C20000002D3D3C3C
B4C3C3C34444449A5B4B5B
B4C3C3C6BBBBBB92C59788
B4C3C3C44444446D92E1E4
B4C3C3C6BBBBBB943D57C0
B4C3C3C44444456AD45E20
B4C3C3C5AAAAAA9618E400
B4C3C3C455555579EF2000
B4C3C3C5AAADCDBD5D4000
B4C3C3C20006A798879000
B4C3C3C20001E2D3D2E000
B4C3C3C20000C4C4C3C400
B4C3C3C200007979797900
B4C3C3C200002D2D2D2E00
B4C3C3C200000C3C4C4C40
ENDCHAR
STARTCHAR S
ENCODING 83
SWIDTH 682 0
DWIDTH 19 0
BBX 19 25 0 -1
BITMAP
00000036898752000000
00005CD97667ADD71000
0009D4269A985239E500
009B19E96567ADB53C30
04D2C9169AA8524C9000
0A68A2DA65569DA21000
0E1E2C639AA962500000
2D2D2D1E644585000000
2D3C3C3C000000000000
1E1E1E1CCCBA83000000
0D2C49A133458DB20000
0885C1AEDCCA717E3000
02E38C4133359E46D000
006D35CEDCCA43D2A600
0006E9312236D66A4C00
000028DFDDC72E1E1E10
00000000123E2C2C3D20
00000130001D2C3C3C30
000005CEEEE82E1E1E10
0002D8411114D66B3D00
008717BEEEEB43E3B700
272AD84100149D46C000
1AC427BDEFEC718D2000
005CC84210147DA10000
000037BDEFEC83000000
ENDCHAR
STARTCHAR T
ENCODING 84
SWIDTH 591 0
DWIDTH 17 0
BBX 16 23 0 0
BITMAP
2AAAAAAAAAAAAAA6
1555555555555553
2AAAAAAAAAAAAAA6
1555555555555553
2BBBBBBBBBBBBBB6
14447C7C7C8B4442
00004B4B4A5A0000
00004B4B4A5A0000
00004B4B4A5A0000
00004B4B4A5A0000
00004B4B4A5A0000
00004B4B4A5A0000
00004B4B4A5A0000
00004B4B4A5A0000
00004B4B4A5A0000
00004B4B4A5A0000
00004B4B4A5A0000
00004B4B4A5A0000
00004B4B4A5A0000
00004B4B4A5A0000
00004B4B4A5A0000
00004B4B4A5A0000
00004B4B4A5A0000
ENDCHAR
STARTCHAR U
ENCODING 85
SWIDTH 905 0
DWIDTH 25 0
BBX 24 24 1 -1
BITMAP
819191900000000082828181
D2D1E1E000000000C3C3D2D2
D2D1E1E000000000C3C3D2D2
D2D1E1E000000000C3C3D2D2
D2D1E1E000000000C3C3D2D2
D2D1E1E000000000C3C3D2D2
D2D1E1E000000000C3C3D2D2
D2D1E1E000000000C3C3D2D2
D2D1E1E000000000C3C3D2D2
D2D1E1E000000000C3C3D2D2
D2D1E1E000000000C3C3D2D2
D2D1E1E000000000C3C3D2D2
D2D1E1E000000000C3C3D2D2
C3D2D2E100000000D2D2D1E1
B4B4B4B500000002E1E1E1F0
87786A4D2000000B77A4B4C0
4C2D1D56D61004C92E2B5980
0D4993E53AEEEC53D66C2E20
05D1C73DA411139E54E3A800
00AA2CA16BEFFC717E47D100
000BA19D8310037DB27D2000
00009D527CEFEC833BC10000
000004CD8320137BD6000000
000000049CEFEC9500000000
ENDCHAR
STARTCHAR V
ENCODING 86
SWIDTH 940 0
DWIDTH 26 0
BBX 26 23 0 0
BITMAP
47281909100000000073645637
1E1E2C4A6000000001E1E2C4A6
0A6886A4B00000000695B3D2E1
04C2D1E1D20000000C3B597790
00D3B597880000003D2E1E1D30
00795B3D2E00000097886A4C00
001E1E2C3B500001E1D2C4A600
000A687695B00006A5C3D1E100
0004C2D1E1E2000C4B68779000
0000D3B4A688003D2E1E2D3000
0000796A4C2D0097795A4C0000
00002E1E1D3B51E1D3B4A60000
00000A697795A6A4C2D1E10000
000004C3D1E16C4A6886900000
000000D2C4A63D1E1E2C400000
000000886A4987795B3D000000
0000002E1E14E2D3B597000000
0000000B5975B4C2D1E1000000
00000005B37B5A6886A0000000
00000000E23D1E1D2C40000000
000000008888795B3D00000000
000000002EE2C3B59700000000
000000000BB3D2E1E100000000
ENDCHAR
STARTCHAR W
ENCODING 87
SWIDTH 1161 0
DWIDTH 33 0
BBX 32 23 0 0
BITMAP
37372728000055554547000037272828
2D1E1E1E0000B4A4A5AF10008878696A
0D2C3C3C4001E1E1E1ED4000C4B4A5A6
096878788004B3B3C3D79001E1E1E1E2
05A4B4B4C008777787B2D005B4B3C3D0
01E1E1E1E10C3B3B4BF1D30878778790
00C3C4B4B51E1E1E1EC5970C3C3B4B50
00878878795A4B4B3C694B1E1E1E1E10
004B4B3C3B9687877C2E1E6A5A4B4C00
001E1E1E16D2C3C3BF1D3BE696878800
000B4B4A52D1E1E1EB5877F2D2C3C400
000787869695A5A4B6A4C3D2D1E1E000
0003C3C2AA596968C2E1E896A5A5B000
0000E1E15E1D2D2CF2D3AE5A69697000
0000B5A53C2D2D1EA6886F1D2D2D3000
0000796978696A5A6A4C4C2D2D1E0000
00003D2AB4A5A6962E1E9869695A0000
00000E24E1E1E2D20C4AF4A5A5960000
00000A64C3C3D2D00886F1E1E1D20000
000006A88787969003C4B3C3C2D00000
000002EC4B4B5A5000EA778786900000
000000DE1E1E1E1000AF3B4B5A500000
0000009B4B3C3D00005E1E1E1E100000
ENDCHAR
STARTCHAR X
ENCODING 88
SWIDTH 876 0
DWIDTH 25 0
BBX 24 23 0 0
BITMAP
481917447000000835629083
0D5893D1D400005C2E2A76C0
04D1D4994D1001D3A85C1E30
00994D1D39800984D1D3A800
001D3A75C1E34D1D4994D000
0005C2E2A767D4893D1D4000
0000B76B2E28A3E1C58A0000
00002E2B665E2C57A3E10000
000007B2E1B67B2E2C600000
000000C567B2E2B66B000000
0000003D2E2A75C2E2000000
00000005A85C1E3A81000000
00000004D1D3984D69000000
0000001D4994D1D51D300000
000000893D1D489885C00000
000003E1C58A3D41E2B70000
00000C57A2E2C5A66B2E2000
00006B2E2B67B52E2B67B000
0002E2B66B2E2C57A2E2C500
000A75C2E2B703E1C57A3D10
005C1E3A85C000893D1D4890
01D3984D1D30001D4994D1D4
0994D1D498000004D1D3984D
ENDCHAR
STARTCHAR Y
ENCODING 89
SWIDTH 789 0
DWIDTH 22 0
BBX 22 23 0 0
BITMAP
3646454500000045455554
1D2D2D2D100000C3D2D2D1
08787878700004A5A59690
01D2D2D2D0000C3C3C3D20
0086869696004B4B5A5A00
002D2D2D2D00B4B4C3C300
000969696963C3B4B4B000
0002D2D2D2AA5A4B4B3000
0000A5A5A53C3C3C3B0000
00003C3C3B96A5A5B40000
00000B4A54D2D2C3C00000
000003B3B969695A500000
000000B35D2D2D2D000000
0000004B87879696000000
0000000CD2D2D2D0000000
0000000696968780000000
0000000696878780000000
0000000696878780000000
0000000696878780000000
0000000696878780000000
0000000696878780000000
0000000696878780000000
0000000696878780000000
ENDCHAR
STARTCHAR Z
ENCODING 90
SWIDTH 854 0
DWIDTH 24 0
BBX 22 23 1 0
BITMAP
9AAAAAAAAAAAAAAAAAAAA7
55555555555555555557F9
9AAAAAAAAAAAAAAA717E61
45555555555555542CB27B
ABBBBBBBBBBBB506E62CA1
44444444444432BB27D539
ABBBBBBBBA306E62CA27D5
34444444422BB27D52CA25
0000000006E62BA27D53C8
00000002BB26D62CA28D50
0000006D62BB27E53CA100
00002BB26D62CB28D50000
0005D62BB27E63CA100000
01AB26D62BB27D50000000
5D72BB26E63CA100000000
A26D62BB27D50000000000
2BB26E63CA13CDDDDDDDDA
D72BB27D50011111111111
26E62CA26DEEEEEEEEEEEB
BB27E50011111111111111
62CB28EEEEEEEEEEEEEEEB
6E60000000000000000000
EFFFFFFFFFFFFFFFFFFFFB
ENDCHAR
STARTCHAR bracketleft
ENCODING 91
SWIDTH 320 0
DWIDTH 9 0
BBX 8 26 1 -2
BITMAP
79999992
B8555551
B47AAAA2
B4B75551
B4B48AA2
B4B4C741
B4B4C300
B4B4C300
B4B4C300
B4B4C300
B4B4C300
B4B4C300
B4B4C300
B4B4C300
B4B4C300
B4B4C300
B4B4C300
B4B4C300
B4B4C300
B4B4C300
B4B4C300
B4B4CEE2
B4B40000
B4BFFFF2
B4000000
AFFFFFF2
ENDCHAR
STARTCHAR backslash
ENCODING 92
SWIDTH 448 0
DWIDTH 13 0
BBX 12 26 0 -3
BITMAP
363727000000
2D1E1E000000
0D2D3C400000
096978700000
0695A4B00000
02D1E1E00000
00D2D3C40000
009697870000
00695A4B0000
002D1E1E0000
000D2D3C4000
000969787000
0006A5A4B000
0002D1E1E000
0000D2D3C400
000096978700
00005A5A4B00
00002D1E1E00
00000D2C3C40
000009697870
000005A5A4B0
000002D1E1E0
000000D2C3C4
000000969787
0000005A5A4B
000000181919
ENDCHAR
STARTCHAR bracketright
ENCODING 93
SWIDTH 319 0
DWIDTH 9 0
BBX 8 26 0 -2
BITMAP
29999997
1555558B
2AAAA74B
15557B4B
2AA84B4B
147C4B4B
003C4B4B
003C4B4B
003C4B4B
003C4B4B
003C4B4B
003C4B4B
003C4B4B
003C4B4B
003C4B4B
003C4B4B
003C4B4B
003C4B4B
003C4B4B
003C4B4B
003C4B4B
3EEC4B4B
00004B4B
3FFFFB4B
0000004B
3FFFFFFA
ENDCHAR
STARTCHAR asciicircum
ENCODING 94
SWIDTH 475 0
DWIDTH 13 0
BBX 12 12 1 8
BITMAP
0001A3740000
0006E95B0000
000C5E1E2000
002D0A688000
008765C2D000
00E2D3D3C400
05B4C0796A00
0B5A602E1E10
2D1E100B5970
886A0005B3D0
E2C40000E2C4
202000001111
ENDCHAR
STARTCHAR underscore
ENCODING 95
SWIDTH 511 0
DWIDTH 14 0
BBX 13 5 1 -5
BITMAP
BFFFFFFFFFFF10
00000000000000
BEEEEEEEEEEE10
11111111111100
AEEEEEEEEEEE10
ENDCHAR
STARTCHAR grave
ENCODING 96
SWIDTH 472 0
DWIDTH 13 0
BBX 11 7 1 20
BITMAP
015000000000
03BD50000000
CA24BD600000
17EA33BD6000
0017DA33AD60
000006DB3370
00000006D500
ENDCHAR
STARTCHAR a
ENCODING 97
SWIDTH 832 0
DWIDTH 23 0
BBX 23 22 0 -1
BITMAP
000000000134210000000000
00000028DECBCEC710000000
000019E721343138E8000000
0001CB16CEBBCEC52BB10000
001C82CA3144315BB29B0000
009B2E63BEBACE927D1B8000
02D1D65E6145317D47B2E100
0976A3E27EBACE63D2B59700
0D2C4B57C20003D6794B3B00
1D1E1E1E2000003E1E1E1E00
3C3C4B4B0000000D2D2D2D10
3B4B4B5A0000000B3C3C3D20
2D3D3C3D0000000B4C3C3D20
0E1E1E2C5000000B4C3C3D20
0B5977A3D831365B4C3C3D20
05C2D2B917BDB82B4C3C3D20
00C65C29D843586B4C3C3D20
002E46D527ABA61B4C3C3D20
0004E63BD9657A7B4C3C3D20
00002CB32699851B4C3C3D20
0000006CD9767B7B4C3C3D20
000000002578740000000000
ENDCHAR
STARTCHAR b
ENCODING 98
SWIDTH 720 0
DWIDTH 20 0
BBX 19 20 1 0
BITMAP
8AAAAAAAAAAA97200000
B7444444444458D80000
B48BBBBBBBBBA70AA000
B4B6444444445AD1B600
B4B39BBBBBBBA38B3D00
B4B3C63333336E1E2D10
B4B3C30000000C3C3C30
B4B3C47777779D1E1E10
B4B3C488888872A94D00
B4B3C47777779DA0C600
B4B3C47777779D91D400
B4B3C488888871B85B00
B4B3C47777779C2E0E10
B4B3C30000000C3C3C30
B4B3C30000002E2D2D20
B4B3C5EEEEEED65C2E00
B4B3C311111127E39800
B4B3C5EEEEEEDA27D100
B4B3C311111125BD3000
B4B3C1DDDDDDDB610000
ENDCHAR
STARTCHAR c
ENCODING 99
SWIDTH 736 0
DWIDTH 21 0
BBX 20 22 0 -1
BITMAP
00000000278A97400000
0000005DD86568CE7000
00001BC4269A9723BC30
0002D72AE96568DB35E3
001D64E7169B9616E64A
00983E35EA6459E72D40
02E1D47D249BA52B9100
0877A4D2AC645BB13000
0D2C3B58A00000620000
1E2E1E1E100000000000
3C3C3B4B000000000000
3C4B4B5A000000000000
2D2D2D2D000000000000
0E1E2D3B700000200000
0A5976B2D81017E20000
05C2E2B929EEEA27A000
00C57C1AC51114BC2930
003E28C24AEEEB62BA26
0005D36E9410149E72D7
00004E716BEFEC726E60
000002AD8420237DC200
000000027BDEEC940000
ENDCHAR
STARTCHAR d
ENCODING 100
SWIDTH 833 0
DWIDTH 23 0
BBX 22 20 1 0
BITMAP
8AAAAAAAAAAA9730000000
B7444444444558CD500000
B48BBBBBBBBBA724D90000
B4C64444444469E91AB000
B4C39BBBBBBBA619C2B800
B4C3C64444445AD37B1D30
B4C3C3ACCCCCA34E2B76A0
B4C3C3C533336E56B3D1E1
B4C3C3C2000003E1E2D3C4
B4C3C3C2000000C4B4B5A5
B4C3C3C2000000B4A5A5A5
B4C3C3C2000001E2D3C4B4
B4C3C3C200002B94D2E1E1
B4C3C3CEDDDEE82D5894B0
B4C3C311111115D73D2C50
B4C3CEEEEEEEEB44E47C00
B4C31111111114AD35D200
B4CEEEEEEEEEFC719D3000
B40000000000137D910000
BFFFFFFFFFFFEC82000000
ENDCHAR
STARTCHAR e
ENCODING 101
SWIDTH 666 0
DWIDTH 19 0
BBX 17 20 1 0
BITMAP
8382829AAAAAAAAA60
B4C3C3C64444444430
B4C3C3CBBBBBBBBB60
B4C3C3C64444444420
B4C3C3CCBBBBBBBB70
B4C3C3C54444444420
B4C3C3C20000000000
B4C3C3C65555555500
B4C3C3CBAAAAAAAA00
B4C3C3C75555555500
B4C3C3CAAAAAAAAA00
B4C3C3C76666666600
B4C3C3CA9999999900
B4C3C3C20000000000
B4C3C3C20000000000
B4C3C3CEEEEEEEEE80
B4C3C3C31111111110
B4C3C3CEEEEEEEEE80
B4C3C3C30000000000
B4C3C3CFFFFFFFFF90
ENDCHAR
STARTCHAR f
ENCODING 102
SWIDTH 625 0
DWIDTH 18 0
BBX 16 20 1 0
BITMAP
8382829AAAAAAAA6
B4C3C3C644444443
B4C3C3CBBBBBBBB6
B4C3C3C644444442
B4C3C3CCBBBBBBB7
B4C3C3C544444442
B4C3C3C200000000
B4C3C3C200000000
B4C3C3CCCCCCCCB0
B4C3C3C533333330
B4C3C3CCCCCCCCB0
B4C3C3C533333330
B4C3C3CDCCCCCCB0
B4C3C3C422222220
B4C3C3C200000000
B4C3C3C200000000
B4C3C3C200000000
B4C3C3C200000000
B4C3C3C200000000
B4C3C3C200000000
ENDCHAR
STARTCHAR g
ENCODING 103
SWIDTH 827 0
DWIDTH 23 0
BBX 22 22 0 -1
BITMAP
00000000278A9740000000
0000005DD86568CE700000
00001BC4269A9723BC3000
0002D72AE96568DB35E300
001D64E7169B9616E64A00
00983E35EA6459E72D4000
02E1D47D249BA52B910000
0877A4D2AC645BB1300000
0D2C3B58A0000062000000
1E2E1E1E10000000000000
3C3C3B4B00000000000000
3C4B4B5A0000000D2D1E1E
2D2D2D2D0000000D2E1E1F
0E1E2D3B7000000D2E1E1F
0A5976B2D81003AF2E1E1F
05C2E2B929EEEC6D2E1E1F
00C57C1AC511139F2E1E1F
003E28C24AEEEC7E2E1E1F
0005D36E9410138E2E1E1F
00004E716BEFEC8E2E1E1F
000002AD8420137E2E1E1F
000000027BDEDC83000000
ENDCHAR
STARTCHAR h
ENCODING 104
SWIDTH 830 0
DWIDTH 23 0
BBX 21 20 1 0
BITMAP
83828292000000A0A0A0A0
B4C3C3C2000000E1F0F0E0
B4C3C3C2000000E1F0F0E0
B4C3C3C2000000E1F0F0E0
B4C3C3C2000000E1F0F0E0
B4C3C3C2000000E1F0F0E0
B4C3C3C2000000E1F0F0E0
B4C3C3CCCCCCCCF1F0F0E0
B4C3C3C5333333E1F0F0E0
B4C3C3CDCCCCCCF1F0F0E0
B4C3C3C4222222E1F0F0E0
B4C3C3CDDDDDDDF1F0F0E0
B4C3C3C4222222E1F0F0E0
B4C3C3C2000000E1F0F0E0
B4C3C3C2000000E1F0F0E0
B4C3C3C2000000E1F0F0E0
B4C3C3C2000000E1F0F0E0
B4C3C3C2000000E1F0F0E0
B4C3C3C2000000E1F0F0E0
B4C3C3C2000000E1F0F0E0
ENDCHAR
STARTCHAR i
ENCODING 105
SWIDTH 337 0
DWIDTH 9 0
BBX 8 20 1 0
BITMAP
83828292
B4C3C3C2
B4C3C3C2
B4C3C3C2
B4C3C3C2
B4C3C3C2
B4C3C3C2
B4C3C3C2
B4C3C3C2
B4C3C3C2
B4C3C3C2
B4C3C3C2
B4C3C3C2
B4C3C3C2
B4C3C3C2
B4C3C3C2
B4C3C3C2
B4C3C3C2
B4C3C3C2
B4C3C3C2
ENDCHAR
STARTCHAR j
ENCODING 106
SWIDTH 393 0
DWIDTH 11 0
BBX 10 23 0 -3
BITMAP
0019192928
001D2D2C3C
001D2D2C3C
001D2D2C3C
001D2D2C3C
001D2D2C3C
001D2D2C3C
001D2D2C3C
001D2D2C3C
001D2D2C3C
001D2D2C3C
001D2D2C3C
001D2D2C3C
001D2D2C3C
003C3C3C4B
02B769595A
5D72E3B5A6
016D65C2E1
5EA35E2A80
014AC37C10
5DB529C100
0249E81000
5DB7200000
ENDCHAR
STARTCHAR k
ENCODING 107
SWIDTH 801 0
DWIDTH 22 0
BBX 21 20 1 0
BITMAP
8382829200000927466380
B4C3C3C200006A3D1E2C40
B4C3C3C20001D2B5885B00
B4C3C3C2000894C2E1D300
B4C3C3C2002E2D4A77A000
B4C3C3C200976A3D1E2000
B4C3C3C203D1D2B5880000
B4C3C3C20B6895C2D10000
B4C3C3C24C2E2D4A600000
B4C3C3C2C4976A3D000000
B4C3C3C1E1D4A77A000000
B4C3C3C2885C2D1D300000
B4C3C3C21D2C5886B00000
B4C3C3C206A3D1E2C40000
B4C3C3C200D3A67A4C0000
B4C3C3C2005C2D1D3B6000
B4C3C3C2000C5885B3D100
B4C3C3C20003D1E2C49700
B4C3C3C20000A67A4C2E10
B4C3C3C200002D1D3A6790
ENDCHAR
STARTCHAR l
ENCODING 108
SWIDTH 583 0
DWIDTH 16 0
BBX 15 20 1 0
BITMAP
8382829200000000
B4C3C3C200000000
B4C3C3C200000000
B4C3C3C200000000
B4C3C3C200000000
B4C3C3C200000000
B4C3C3C200000000
B4C3C3C200000000
B4C3C3C200000000
B4C3C3C200000000
B4C3C3C200000000
B4C3C3C200000000
B4C3C3C200000000
B4C3C3C200000000
B4C3C3C200000000
B4C3C3CEEEEEEE60
B4C3C3C311111100
B4C3C3CEEEEEEE60
B4C3C3C300000000
B4C3C3CFFFFFFF60
ENDCHAR
STARTCHAR m
ENCODING 109
SWIDTH 1167 0
DWIDTH 33 0
BBX 31 21 1 0
BITMAP
000000479A97400001589A9620000000
00017EC86569DD629EA75579DC400000
002DA2379A9735DF8158AA9624D90000
02D53CC85458DB3ADEB75569E91B9000
0B75D527ABA726E3BA38AB9618C2C500
4C2E37E85469E64D3FD7546BD38A3D00
96885C26ABA52D3A6A88AB944D1D2C30
C3C3C49A435B7695A6F7435D49696960
D2E1E1E10003C3C3B4C0000686878770
D1E1E0F00002D3C3C4B0000696978780
D1E1E0F00002D3C3C4B0000696978780
D1E1E0F00002D3C3C4B0000696978780
D1E1E0F00002D3C3C4B0000696978780
D1E1E0F00002D3C3C4B0000696978780
D1E1E0F00002D3C3C4B0000696978780
D1E1E0F00002D3C3C4B0000696978780
D1E1E0F00002D3C3C4B0000696978780
D1E1E0F00002D3C3C4B0000696978780
D1E1E0F00002D3C3C4B0000696978780
D1E1E0F00002D3C3C4B0000696978780
D1E1E0F00002D3C3C4B0000696978780
ENDCHAR
STARTCHAR n
ENCODING 110
SWIDTH 787 0
DWIDTH 22 0
BBX 20 20 1 0
BITMAP
87290936600000282838
BF2B66B2E100003C3C4B
BBB3E1C58900003C3C4B
B4D4994D1D30003C3C4B
B45D1E3A76C0003C3C4B
B46B76B2E2C5003C3C4B
B4B5E1C58A3D103C3C4B
B4C3994D1D3A803C3C4B
B4C33E3A75C2E23C3C4B
B4C3A6B2E2C67A3C3C4B
B4C3C3C58A3D1D5B3C4B
B4C3C34D1D3A85C53C4B
B4C3C30A75C2E2B63C4B
B4C3C302E2C67A3E4C4B
B4C3C3008A3D1D49884B
B4C3C3001D3985C1E34B
B4C3C30005C2E2B67B4B
B4C3C30000C67A3E1D8B
B4C3C300003D1D4994FB
B4C3C300000985C1E3BB
ENDCHAR
STARTCHAR o
ENCODING 111
SWIDTH 833 0
DWIDTH 23 0
BBX 23 22 0 -1
BITMAP
00000000278A973000000000
0000005DD86568CD60000000
00001BC4269A9722AD200000
0002D72AE96568DB35E40000
001D64E7169B9616E64E2000
00983E35EA6459E72D56B000
02E1D47D249BA52B92E2C500
0877A4D2AC645BB1C6795B00
0D2C3B58A000008A3D1E1E10
1E2E1E1E1000000D3C4B4B40
3C3C3B4B0000000879696A50
3C4B4B5A0000000878696960
2D2D2D2D0000000B4A4A5B40
0E1E2D3B7000004D1E1E1D20
0A5976B2D81016E3995B3C00
05C2E2B929EEEA27C1D4A700
00C57C1AC51114BB2A93D100
003E28C24AEEEB52BA1D5000
0005D36E9410148E72C70000
00004E716BEFEC726D600000
000002AD8420137DB3000000
000000027BDEDC8300000000
ENDCHAR
STARTCHAR p
ENCODING 112
SWIDTH 781 0
DWIDTH 22 0
BBX 20 20 1 0
BITMAP
8AAAAAAAAAAAA8400000
B7444444444457CD4000
B48BBBBBBBBBA834D700
B4C64444444457D91C60
B4C39BBBBBBBB71AA2E1
B4C3C64444445AD2C597
B4C3C3ACCCCCB38A4B4C
B4C3C3C533335E1E1E1E
B4C3C3C344446E1E1E2D
B4C3C3C3BBBBA47A4B4C
B4C3C3C3444459D2B598
B4C3C3C3BBBBA719A2E2
B4C3C3C3444458D91C80
B4C3C3C3AAAAA834DA00
B4C3C3C3555568CE6000
B4C3C3C3AAAA98400000
B4C3C3C2000000000000
B4C3C3C2000000000000
B4C3C3C2000000000000
B4C3C3C2000000000000
ENDCHAR
STARTCHAR q
ENCODING 113
SWIDTH 788 0
DWIDTH 22 0
BBX 21 23 0 -3
BITMAP
000000169AAAAAAAAAAA80
000018E9654444444447C0
0003D8159BBBBBBBBB93C0
002E54DB6444444446C3C0
00C65D439BBBBBBB93C3C0
06B2E28D64444445C3C3C0
0C4A66C18BCCCCA2C3C3C0
1E1E1E2B943335D2C3C3C0
3C3C4B3C000002D2C3C3C0
3C4B4B4A000002D2C3C3C0
2D2D2D2D100002D2C3C3C0
0E2D2C48DAAAA5D2C3C3C0
0A77A4D4255554D2C3C3C0
04E1C64DCAAAA5D2C3C3C0
00AA2C92345553D2C3C3C0
001CA17ECBBBB5D2C3C3C0
0001AD61244443D2C3C3C0
000004BEDBBBB5D2C3C3C0
00000000344443D2C3C3C0
00000000000002D2C3C3C0
00000000000002D2C3C3C0
00000000000002D2C3C3C0
00000000000002C2C3B3B0
ENDCHAR
STARTCHAR r
ENCODING 114
SWIDTH 831 0
DWIDTH 23 0
BBX 22 20 1 0
BITMAP
8AAAAAAAAAAAAA96200000
B744444444444569E91000
B48BBBBBBBBBBB9618D200
B4C644444444445AD36D10
B4C39BBBBBBBBB944E3980
B4C3C6444444446D75C2E0
B4C3C3ACCCCCCC82E2C3C3
B4C3C3C5333333B69696A5
B4C3C3C4666666D5A5A5B5
B4C3C3C599999963E2D2D3
B4C3C3C46666669E56B3E0
B4C3C3C5999999726D2B80
B4C3C3C47777778CC28C10
B4C3C3C5888888732BD200
B4C3C3C47777779BFA0000
B4C3C3C5889EADAB7A0000
B4C3C3C2000E2E2E2E1000
B4C3C3C20009796A697000
B4C3C3C20003D4C4C4C000
B4C3C3C20000D3D3D3D300
ENDCHAR
STARTCHAR s
ENCODING 115
SWIDTH 683 0
DWIDTH 19 0
BBX 19 22 0 -1
BITMAP
00000000222100000000
000028CEDCDEEA610000
0008E8312321159E8100
00AB26CECCCDEA519D20
06B2CA31343215BD4300
0D3B73BECBCDEA446000
1E1E1E50000015B20000
2D3C2D00000000000000
1E1E1BA6554420000000
0B58B158AAABDE810000
04D28E965554228E4000
007D42689AABDC53E300
0004CD97665413D66B00
00000368999AD82E1E10
0000000000000D3C3C30
0001720000001D3C3C30
00227DB97779D83D1E10
006E7136787525D47A00
2D529EC9878ADB36D100
02CC5136787523AD2000
0004AECA888ADD700000
00000035676520000000
ENDCHAR
STARTCHAR t
ENCODING 116
SWIDTH 588 0
DWIDTH 16 0
BBX 16 20 0 0
BITMAP
2AAAAAAAAAAAAAA6
1444444444444443
2BBBBBBBBBBBBBB6
1444444444444442
2BBBBBBBBBBBBBB7
1444464656564442
00004B4B4A5A0000
00004B4B4A5A0000
00004B4B4A5A0000
00004B4B4A5A0000
00004B4B4A5A0000
00004B4B4A5A0000
00004B4B4A5A0000
00004B4B4A5A0000
00004B4B4A5A0000
00004B4B4A5A0000
00004B4B4A5A0000
00004B4B4A5A0000
00004B4B4A5A0000
00004B4B4A5A0000
ENDCHAR
STARTCHAR u
ENCODING 117
SWIDTH 795 0
DWIDTH 22 0
BBX 21 21 1 -1
BITMAP
9191A0A000000829191910
D2E1E1F000000C3D2D2E10
D2E1E1F000000C3D2D2E10
D2E1E1F000000C3D2D2E10
D2E1E1F000000C3D2D2E10
D2E1E1F000000C3D2D2E10
D2E1E1F000000C3D2D2E10
D2E1E1F000000C3D2D2E10
D2E1E1F000000C3D2D2E10
D2E1E1F000000C3D2D2E10
D2E1E1F000000C3D2D2E10
D2D2E1E100000D2D2E1E10
B3C4C3B600003E1E1F1E00
96887A3E6004D57A5B3C00
4B3E1D63BFFC54E2B58700
0C48A2DA30128D47B2E100
04D2BA27CFFD828D2C7000
007C28D831126DA2AA0000
0008D439DFFDA42CA10000
00004CB620025AD6000000
00000049CEEDA510000000
ENDCHAR
STARTCHAR v
ENCODING 118
SWIDTH 855 0
DWIDTH 24 0
BBX 24 20 0 0
BITMAP
47381A1A10000001A0A19274
1E1E2C4A60000006A4C2D1E1
0A6886A4C000000C4A688790
04C2E1E1D200003D1E1E2D30
00D3B59788000097795B4C00
00795B3D2E0001E1D3B59600
001E1E2C4B5006A4C2E1E100
000A688695B00C4A6886A000
0004C2D1E1E22D1E1E2C4000
0000D3B4A68787795B3D0000
0000796A4C25E2D3B5970000
00001E1E2D35B4C2E1E10000
00000A69777B596886A00000
000004C3D14E1E1D2C400000
000000D2C488694B3D000000
0000007865E2C3A597000000
0000002E15B3D2E1E1000000
0000000B5B597796A0000000
00000005CE1E1D3C40000000
00000000E86A4C2D00000000
ENDCHAR
STARTCHAR w
ENCODING 119
SWIDTH 1129 0
DWIDTH 32 0
BBX 30 21 1 -1
BITMAP
9191A0A00007373838200055555565
D2E1E1F0000A5B4B4C300078788787
D2E1E1F0000A5B4B4C300078788787
D2E1E1F0000A5B4B4C300078788787
D2E1E1F0000A5B4B4C300078788787
D2E1E1F0000A5B4B4C300078788787
D2E1E1F0000A5B4B4C300078788787
D2E1E1F0000A5B4B4C300078788787
D2E1E1F0000A5B4B4C300078788787
D2E1E1F0000A5B4B4C300078788787
D2E1E1F0000A5B4B4C300078788787
D2E1E1F0000A5B4B4C300078788787
D2D2E1E1000B4B4C3C400087878696
B4B4B49A558D1E2E1EC656D3B5A4A5
87795C269A729A4C3E49A836D1E1D2
3D1E37E9668DB2C5AFA767CC2985B0
0A74E52799833C85F3589852AB2D40
02D63CD9668BE65EBEA767AE82C800
002CA237897429FE426898515E8000
00007DC8778BFA25CD9768AEB30000
000000368875100003688751000000
ENDCHAR
STARTCHAR x
ENCODING 120
SWIDTH 790 0
DWIDTH 22 0
BBX 22 20 0 0
BITMAP
39084490A3002A17539094
0B74D1C56C00A84E1C66C0
02E2A83E1C65D1D57B1E30
007B1E39A36D48A2E2A800
000C65C1D49A3E2B74D100
0003E2B745E1C65C1D4000
00008A2E2D57C1E38A0000
00000D548B2E3A93E10000
000004D3E2B84D1C600000
0000004C75D1D47B000000
0000006C1E48A2E3000000
000002E3993E1B7C300000
00000A84D1C66C26C00000
00005D1D57B1E4E1B70000
0001D48A2E2A838A2E2000
000993E2B75D4C1D47B000
004E1C66C1D62B74D1C500
00D57B1E3997B2E2A93E10
08A2E2A84E10D56C1E39A0
3E2B74D1D5004E1C66C1D4
ENDCHAR
STARTCHAR y
ENCODING 121
SWIDTH 733 0
DWIDTH 21 0
BBX 20 20 0 0
BITMAP
46464646000009191919
1D2D2D2D20005A596968
07878796A000C3C3D2D2
01D2D2D2C304B5A5A690
0078696A4C0B3C3C3C20
001D2D2C3B5B4B4A5A00
000686A5B1B4B4B3C300
0000D2C3C5C3C4B4B000
0000685B2A5A5B4B4000
00000D2C4D3C3C3C0000
000006939695A5A40000
000000D3D2D2C3C00000
0000006E79696A500000
0000000F1E1E1E000000
0000000E0F0F1E000000
0000000E0F0F1E000000
0000000E0F0F1E000000
0000000E0F0F1E000000
0000000E0F0F1E000000
0000000E0F0F1E000000
ENDCHAR
STARTCHAR z
ENCODING 122
SWIDTH 714 0
DWIDTH 20 0
BBX 20 20 0 0
BITMAP
09AAAAAAAA8480935711
04555555553D57B1E3A1
09BBBBBBB88A2E2A84C0
0444444444E2B74D1D30
09BBBBBB6C75D1D48800
034444447C1E48A2D100
00000001E3992E2B5000
0000000A93E1B66B0000
0000004D1C66C1D20000
000001D57B1E39700000
000008B2E2A84D000000
00003E2B84D1D4000000
0000C75D1D57A0000000
0006C1D48A2E10000000
001E3992E2B600000000
00A93E1B75C5EEEEEEE0
04E1C66C1E3111111110
1D57B1E3998EEEEEEEE0
3B2E2993E10000000000
32A84D1C6AFFFFFFFFF0
ENDCHAR
STARTCHAR braceleft
ENCODING 123
SWIDTH 396 0
DWIDTH 11 0
BBX 11 30 0 -6
BITMAP
000000379A30
00001BD86520
0001D717AA40
000A74E95520
002D1E44AB40
00596A3D5410
007787870000
008786960000
008786960000
008786960000
008786960000
008786960000
006596950000
3CB752B40000
1348E5900000
3CB62D400000
134C84C00000
3D91E2D20000
02B5A5A50000
008786960000
008786960000
008786960000
008786960000
008787860000
0068695C1000
003C2E28EF50
000C57D51100
0003E34BEE50
00004D931100
0000017BDE50
ENDCHAR
STARTCHAR bar
ENCODING 124
SWIDTH 266 0
DWIDTH 7 0
BBX 6 26 1 -3
BITMAP
737282
B4B4C3
B4B4C3
B4B4C3
B4B4C3
B4B4C3
B4B4C3
B4B4C3
B4B4C3
B4B4C3
B4B4C3
B4B4C3
B4B4C3
B4B4C3
B4B4C3
B4B4C3
B4B4C3
B4B4C3
B4B4C3
B4B4C3
B4B4C3
B4B4C3
B4B4C3
B4B4C3
B4B4C3
A4B3B3
ENDCHAR
STARTCHAR braceright
ENCODING 125
SWIDTH 396 0
DWIDTH 11 0
BBX 11 30 0 -6
BITMAP
2A9840000000
1557CC200000
2AA826D20000
1558E56B0000
2BA53E2C3000
145C59777000
0005A5A59000
0004B4A5A000
0004B4A5A000
0004B4A5A000
0004B4A5A000
0003B4B4B000
0002D2E1CE50
0000C4AA1110
00005C19EE50
000058D51100
0001E15BEE50
0003B3B25100
0004B4A5A000
0004B4A5A000
0004B4A5A000
0004B4A5A000
0004B4A5A000
0004A5A59000
001A77878000
3FEA1D3B5000
0114C93D0000
3EEC62D40000
01138E500000
3EDC82000000
ENDCHAR
STARTCHAR asciitilde
ENCODING 126
SWIDTH 665 0
DWIDTH 19 0
BBX 17 6 1 15
BITMAP
0069AAAAAAA8037370
1CA655555554079590
8917ABBBBBBBBD2970
C3AA54444444414E10
E0E11BBBBBBBBDD300
404004444444420000
ENDCHAR
STARTCHAR uni00A0
ENCODING 160
SWIDTH 108 0
DWIDTH 3 0
BBX 1 1 0 0
BITMAP
00
ENDCHAR
STARTCHAR exclamdown
ENCODING 161
SWIDTH 336 0
DWIDTH 9 0
BBX 8 24 1 -1
BITMAP
73728282
B4B4C3C3
B4B4C3C3
B4B4C3C3
B4B4C3C3
B4B4C3C3
B4B4C3C3
B4B4C3C3
B4B4C3C3
B4B4C3C3
B4B4C3C3
B4B4C3C3
B4B4C3C3
B4B4C3C3
B4B4C3C3
B4B4C3C3
B4B4C3C3
10101010
00000000
AEEEEEE2
01111110
AFFFFFF2
00000000
BFFFFFF3
ENDCHAR
STARTCHAR cent
ENCODING 162
SWIDTH 708 0
DWIDTH 20 0
BBX 20 29 0 -3
BITMAP
00000000020020000000
000000002C03C0000000
000000002C03C0000000
000000002C03C0000000
00000001579975100000
0000029EA7568BE81000
00005E7148A97329D500
0006D26DB7568CD43D60
004D29C348AA724D92C1
00D48A1BC7458D91B700
06B3D1C818BA619C1100
0B5A68A3E955AD240000
0E1E1E2C600005400000
2D2D3C3D000000000000
2C3C3B4B000000000000
1E2D2D2E000000000000
0E1D2D3A800007500000
0A6886B2CB77CB260000
04C2E2AB158842BA2100
00B66C28E977BE72D600
002E37D52687516E64D1
0004E43CD978AEA25E40
00003DA22677514BC300
0000007DC988ADD60000
00000000237732000000
000000002C03C0000000
000000002C03C0000000
000000002C03C0000000
00000000150150000000
ENDCHAR
STARTCHAR sterling
ENCODING 163
SWIDTH 689 0
DWIDTH 19 0
BBX 18 24 1 0
BITMAP
000001589986300000
0002AEA76679CE9200
005E71589986317D80
04E26EA75569CD71A7
1D48C248AA96329C10
6B3D1BC75568CC3100
A5968B17ABA7332000
C3C2D3B95457800000
D2D1E1E10000000000
D2D1E1E00000000000
D2D1E1E24444444000
D2D1E1E5BBBBBBA000
D2D1E1E25555554000
D2D1E1E5AAAAAA9000
D2D1E1E35555555000
D2D1E1E5AAAAAA9000
D2D1E1E00000000000
D2D1E1E00000000000
D2D1E1E00000000000
D2D1E1EEEEEEEED000
D2D1E1E11111111000
D2D1E1EEEEEEEED000
D2D1E1E10000000000
D2D1E1EFFFFFFFD000
ENDCHAR
STARTCHAR currency
ENCODING 164
SWIDTH 715 0
DWIDTH 20 0
BBX 20 23 0 -1
BITMAP
00001000000000010000
0000D3000000003D1000
00774D10000001D57800
2A1D47B000000B84D292
0B83D2879BB9782D48B0
01D568DA6446AD865D10
003D6D349BB943D6D300
0004D29D6446D92D4000
000A67B100000B85B000
001E1E20000001E1E100
003B4B00000000B4B400
005A5A0000000096A500
004B5A00000000A5A500
002D2D00000000D2C300
000D3B60000005C2E000
0007A2D600006E3A7000
0018C82BEBBEB37C8100
00A93CB313313AC38B00
07C1D47DECCED83D2B80
2D2B84D113310D57B1D2
017B2E40000003E2A810
0011C7000000006C1200
00005000000000050000
ENDCHAR
STARTCHAR yen
ENCODING 165
SWIDTH 796 0
DWIDTH 22 0
BBX 22 23 0 0
BITMAP
2737363600000036364645
0D2D2D2D100000B4B4C3C3
06969787800003C3C4B4B0
00D2D2D2D1000A5A4B4B30
0078787878002D3C3C3B00
001D2D2D2D1096A5A5B400
000777788782D2D2C3C000
0001D2D2D2B869696A5000
00008787872D2D2D2D0000
00001D2D2C878786960000
0000096963D2D2D2D00000
000002D2C7878878700000
000000A54D2D2D2D100000
0000003C69687877000000
0000000BE2D2D2D1000000
00000005B4B5A5A0000000
000ADDD7B5A5A69DDDD000
00011114B5A5A691111000
000AEEE7B5A5A69DEEE000
00011114B5A5A691111000
00000004B5A5A690000000
00000004B5A5A690000000
00000004B5A5A690000000
ENDCHAR
STARTCHAR brokenbar
ENCODING 166
SWIDTH 263 0
DWIDTH 7 0
BBX 6 26 1 -3
BITMAP
728281
C3C3C2
C3C3C2
C3C3C2
C3C3C2
C3C3C2
C3C3C2
C3C3C2
C3C3C2
C3C3C2
C3C3C2
212120
000000
000000
000000
A3A2B2
C3C3C2
C3C3C2
C3C3C2
C3C3C2
C3C3C2
C3C3C2
C3C3C2
C3C3C2
C3C3C2
B3C3C2
ENDCHAR
STARTCHAR section
ENCODING 167
SWIDTH 108 0
DWIDTH 3 0
BBX 1 1 0 0
BITMAP
00
ENDCHAR
STARTCHAR dieresis
ENCODING 168
SWIDTH 556 0
DWIDTH 16 0
BBX 14 4 1 20
BITMAP
91A1A100566565
D2D1E100788787
D2D1E100788787
41405000232232
ENDCHAR
STARTCHAR copyright
ENCODING 169
SWIDTH 869 0
DWIDTH 24 0
BBX 24 23 0 1
BITMAP
000000000478975100000000
00000018EFECCDFFB3000000
000006EE83000016CFA10000
00009FA10000000006EC2000
0007F700049BCA71003EC100
004F9001BFEBACFF7004F900
00CD002DE6100019FA008F30
05F500CE3000000059001EA0
09E006F500000000000009E0
0EA00CD000000000000004F4
0F700F9000000000000002F6
2F602F7000000000000001F7
1F701F8000000000000001F6
0E800EB000000000000003F5
0BC009F200000000000007F2
07F202EC0000000024000CC0
01EA005FB1000003DD105F60
007F4006EE9656BFD201DD00
000CE20029EFFFC7000AF300
0001DE400001210001BF5000
00001CF9200000006EE40000
0000006EFC8667AEF9200000
000000015ADEFDB720000000
ENDCHAR
STARTCHAR ordfeminine
ENCODING 170
SWIDTH 833 0
DWIDTH 23 0
BBX 23 22 0 -1
BITMAP
000000000134310000000000
00000018CECBCED820000000
000007E831343127D9100000
0001AC25BEBBCEC719D20000
000AA2BC4145314AC26D1000
006D2D82AEBABEA35E38A000
01D2A93D7145415D65D1D300
06A4D2D45ECACE72D3976900
0B4A6884E30002B84B2D1E00
0E1E1E2D4000001E1D2D2D20
0E1E1E2D0000000A5A4B4B30
1E1E2D2D00000009695A5A40
0F1F1E1E10000009695A5A40
0C3C4B4A80000009695A5A40
088695C2CA312579695A5A40
02E1D39B26BDC939695A5A40
00993D27E9534789695A5A40
001D64D6269BA729695A5A40
0002D82AE9656999695A5A40
00001BC426898519695A5A40
0000005CDA767A99695A5A40
000000002578741000000000
ENDCHAR
STARTCHAR guillemotleft
ENCODING 171
SWIDTH 911 0
DWIDTH 26 0
BBX 24 15 1 3
BITMAP
000000000010000000000001
000000004AC00000000017C5
0000017DC6100000004AE930
0004AE9328C000017DC615B6
17DC615BE82004AE9328DB50
D9328EB516A06C615BE82395
15BE8239EA40028EB516CD71
DB516CD710006D8239EA4000
24AEA43B8200117DC718B500
CD6199328DA05E934B615BE4
8EA517DC61403BD824AE9322
005BD8249E900028EB516CD3
000028EB5150000005BD8233
00000005BE70000000028EB3
000000000270000000000053
ENDCHAR
STARTCHAR logicalnot
ENCODING 172
SWIDTH 718 0
DWIDTH 20 0
BBX 18 10 1 5
BITMAP
ACCCCCCCCCCCCB1B1A
3333333333334E1E1D
ACCCCCCCCCCCCE1E1D
2333333333333E1E1D
ACCCCCCCCCCCDE1E1D
2222222222223E1E1D
0000000000000E1E1D
0000000000000E1E1D
0000000000000E1E1D
000000000000010101
ENDCHAR
STARTCHAR registered
ENCODING 174
SWIDTH 869 0
DWIDTH 24 0
BBX 24 23 0 1
BITMAP
000000000478975100000000
00000018EFECCDFFB3000000
000006EE83000016CFA10000
00009FA10000000006EC2000
0007F70000000000003EC100
004F9002777777510004F900
00CD0004FFFFFFFE40008F30
05F50004F400003DE2001EA0
09E00004F4000004F70009E0
0EA00004F4000002F70004F4
0F700004F4000008F40002F6
2F600004FA8889BFA00001F7
1F700004FEEEEFD6000001F6
0E800004F4000DC0000003F5
0BC00004F40007F5000007F2
07F20004F40001EC00000CC0
01EA0004F400008F40005F60
007F4004F400001EB001DD00
000CE20010000001100AF300
0001DE400000000001BF5000
00001CF9200000006EE40000
0000006EFC8667AEF9200000
000000015ADEFDB720000000
ENDCHAR
STARTCHAR degree
ENCODING 176
SWIDTH 330 0
DWIDTH 9 0
BBX 9 8 0 21
BITMAP
005CCC7000
05B4648900
0C4C5A6B20
1C8400C850
0D58049940
0977B94C00
00AA79C200
0002530000
ENDCHAR
STARTCHAR plusminus
ENCODING 177
SWIDTH 598 0
DWIDTH 17 0
BBX 15 18 1 0
BITMAP
0000A1B0B0B00000
0000E1E0F0F00000
0000E1E0F0F00000
0000E1E0F0F00000
CCCCF1E0F0FCCC90
3333E1E0F0F33320
CCCCF1E0F0FCCCA0
2222E1E0F0F22220
DDDDF1E0F0FDDDA0
2222E1E0F0F22210
0000E1E0F0F00000
0000E1E0F0F00000
0000E1E0F0F00000
0000101010100000
1EEEEEEEEEEEEE10
0111111111111100
1EEEEEEEEEEEEE10
0111111111111100
ENDCHAR
STARTCHAR uni00B2
ENCODING 178
SWIDTH 435 0
DWIDTH 12 0
BBX 12 19 0 4
BITMAP
003689974000
09C97657AD40
01478AA834E2
03C97656D3A6
00000000B5A6
00000003E2E2
0000000C5A80
000000995C00
000005D3E200
00002D3C6000
0000C68A0000
0008A4D10000
004D2E300000
01D3B7000000
055380000000
2DDDDDDDDD80
022222222210
2DDDDDDDDD80
011111111110
ENDCHAR
STARTCHAR uni00B3
ENCODING 179
SWIDTH 515 0
DWIDTH 14 0
BBX 14 20 0 3
BITMAP
02578987300000
3DA87668DC3000
02589A9725E300
0AA76569E73D10
02589A952D5960
0486555B85B4A0
00000002D3C3C0
0001555464A4A0
0002AAABDD6560
0001555422AB10
0002AAABEB28A0
0001666516D2C3
0002999AE48877
00000000695969
01B98879D48777
0035677625E2C3
06DB9989DC37B0
01246676329C10
0CEBA989BE8000
00245665300000
ENDCHAR
STARTCHAR acute
ENCODING 180
SWIDTH 472 0
DWIDTH 13 0
BBX 12 7 1 20
BITMAP
000000003300
0000004BD500
00004BD528D2
004CC528E920
5CC529E81000
6429E8100000
02D710000000
ENDCHAR
STARTCHAR uni00B5
ENCODING 181
SWIDTH 802 0
DWIDTH 22 0
BBX 21 23 1 -3
BITMAP
7373828200000646464730
A4B4B4C300000869695A50
A4B4B4C300000869695A50
A4B4B4C300000869695A50
A4B4B4C300000869695A50
A4B4B4C300000869695A50
A4B4B4C300000869695A50
A4B4B4C300000869695A50
A4B4B4C300000869695A50
A4B4B4C300000869695A50
A4B4B4C300000869695A50
A4B4B4C3000009695A5A40
A4B4B4C300001D3C4C4B30
A4B4B4C41002B93D2E1E10
A4B4B4C6EEEE72D5895B00
A4B4B4C420116D64D2C400
A4B4B4C6EFEEA35E38B000
A4B4B4C420125BC26D1000
A4B4B4C6EFFEB61AC20000
A4B4B4C4210149E8100000
A4B4B4C6DEEDB710000000
A4B4B4C300000000000000
A4A4B3B300000000000000
ENDCHAR
STARTCHAR paragraph
ENCODING 182
SWIDTH 676 0
DWIDTH 19 0
BBX 18 23 0 -3
BITMAP
00000048AAAAAAAAA7
00005DB7544444448A
0009C348ABBBBBB75A
008B1AD74444447A5A
03D2C818BBBBB84A5A
0977A2D944447B4A5A
0E2D2C65BCC94B4A5A
1E1E1E1E436B4B4A5A
0F1E1E1E546B4B4A5A
0E2D2C55BBCB4B4A5A
0A7793E8547B4B4A5A
04E2C828ABCB4B4A5A
00AB1AC7547B4B4A5A
001BC338AABB4B4A5A
00007EB7557B4B4A5A
000001589ABB4B4A5A
00000000004B4B4A5A
00000000004B4B4A5A
00000000004B4B4A5A
00000000004B4B4A5A
00000000004B4B4A5A
00000000004B4B4A5A
00000000003EEA4EE9
ENDCHAR
STARTCHAR periodcentered
ENCODING 183
SWIDTH 260 0
DWIDTH 7 0
BBX 6 6 1 10
BITMAP
9BBBB1
344440
ACCCC1
333330
ACCCC1
233330
ENDCHAR
STARTCHAR cedilla
ENCODING 184
SWIDTH 321 0
DWIDTH 9 0
BBX 7 10 1 -11
BITMAP
00035350
005AA590
1DA63590
7A18AC90
A59A4420
B4B40000
A58C7740
6B158850
0BD97740
00378850
ENDCHAR
STARTCHAR uni00B9
ENCODING 185
SWIDTH 359 0
DWIDTH 10 0
BBX 9 17 0 6
BITMAP
2AAAAAAA80
1555555540
2AAAAAAA80
1556E6D6C0
0002D2D3C0
0002D2D3C0
0002D2D3C0
0002D2D3C0
0002D2D3C0
0002D2D3C0
0002D2D3C0
0002D2D3C0
0002D2D3C0
0002D2D3C0
0002D2D3C0
0002D2D3C0
0000101010
ENDCHAR
STARTCHAR ordmasculine
ENCODING 186
SWIDTH 835 0
DWIDTH 23 0
BBX 23 22 0 -1
BITMAP
00000000268A974000000000
0000004CD97568CE71000000
00001AD5169A97329D400000
0001C929EA6558CC44E50000
000B83D8159AA725D82E3000
007B2E54DA6458D81C74D000
01E2C65D339BA61AB2D3A700
0695C2D28D645AC2A85B3D00
0B4A5976C100006C1E1E2D30
0E1E1E1D2000000B59696960
1E1E1D2D0000000697878870
1E2D2D3C0000000696878780
0E0E0E1E1000000978787960
0C3C4B599000003E1D2C3B40
088794C1C92005E57B3D1E00
03D1D39B18EEEB35D2B68900
00A75D28D61103AC28B2E200
002D47D33ADEEC619C1C7000
0003E44DA510138E91B90000
00003D816BDFEC825D800000
0000019E9420137CC4000000
000000027BDEEC9400000000
ENDCHAR
STARTCHAR guillemotright
ENCODING 187
SWIDTH 912 0
DWIDTH 26 0
BBX 24 15 1 3
BITMAP
100000000000100000000000
CA40000000005D7100000000
16CD71000000039EA4000000
B8239EA400005B516CD71000
28EB516CD71005BE8239EA40
A615BE8239E059328DB516C7
3AE9328DB51017DC615BE830
0016CD715AE000049EA428D6
028C339EA420005B816CD711
AD8239916DD03EB516B439F6
416CD714AE902239EA427DC4
8EA427DC61003CD714AE9300
515AE82000003428DB500000
7DB5000000002BE820000000
620000000000350000000000
ENDCHAR
STARTCHAR onequarter
ENCODING 188
SWIDTH 1236 0
DWIDTH 35 0
BBX 34 26 0 -3
BITMAP
3AAAAAAA70000003727270000000000000
2555555540000008878690000000000000
3AAAAAAA7000000C4B5A50000000000000
1557D7C8B000001E1E1E10000000000000
0003C4B4B000004B3C3D00000221203000
0003C4B4B0000088786900000C5885C000
0003C4B4B00000C4B5A500004D1E2C5000
0003C4B4B00001E1E1E10000B6794D0000
0003C4B4B00004B3C3D00003D1E2B60000
0003C4B4B00008878790000A77A3E00000
0003C4B4B0000C4B5A50002E1D3A700000
0003C4B4B0001E1E1E1000986B2E122220
0003C4B4B0004B3C3D0002E1D498078870
0003C4B4B000887879000895C1E2078870
0003C4B4B000C4B4A50009274470055540
0003C4B4B001E1E1E1001DDDDDDDDDDDDD
000010101004B3C3C00001111111111111
000000000008778790001EEEEEEEEEEEED
00000000000C4B4A500001111111111111
00000000001E1E1E10001EEEEEEEEEEEEE
00000000004B3C3C000000000000044440
0000000000877879000000000000078870
0000000000C4B4A5000000000000077870
0000000001E1E1E1000000000000000000
0000000004B3C3C0000000000000000000
0000000005546460000000000000000000
ENDCHAR
STARTCHAR onehalf
ENCODING 189
SWIDTH 1154 0
DWIDTH 32 0
BBX 32 26 0 -3
BITMAP
3AAAAAAA700000037272700000000000
25555555400000088786900000000000
3AAAAAAA7000000C4B5A500000000000
1557D7C8B000001E1E1E100000000000
0003C4B4B000004B3C3D000000000000
0003C4B4B0000088786901479AB96100
0003C4B4B00000C4B5A507A764458E70
0003C4B4B00001E1E1E10158ABCA52E3
0003C4B4B00004B3C3D002A75435C598
0003C4B4B00008878790000000009797
0003C4B4B0000C4B5A5000000002E2E2
0003C4B4B0001E1E1E100000000C5980
0003C4B4B0004B3C3D000000008A5C00
0003C4B4B00088787900000004D3E300
0003C4B4B000C4B4A50000001D3C6000
0003C4B4B001E1E1E1000000B68A0000
000010101004B3C3C0000007A4D10000
00000000000877879000004D2E300000
00000000000C4B4A500001D3B7000000
00000000001E1E1E1000044270000000
00000000004B3C3C00001FFFFFFFFFA0
00000000008778790000000000000000
0000000000C4B4A500001FFFFFFFFFA0
0000000001E1E1E10000000000000000
0000000004B3C3C00000000000000000
00000000055464600000000000000000
ENDCHAR
STARTCHAR threequarters
ENCODING 190
SWIDTH 1345 0
DWIDTH 38 0
BBX 37 26 0 -3
BITMAP
02578987200000000004646360000000000000
4DA87668DB200000000A697870000000000000
02589A9626E30000000D2D3C30000000000000
0BA76569E64D0000002D1E1E00000000000000
02689A952D4A6000006A5A4B00001213030000
0586556C76A5900000A696870000B6894C0000
00000003C4B4B00000D2D3C30003D1E2B60000
000155555495A00002D1E1E0000A77A3D00000
0003AAABDC66500006A5A4B0002E1D3A700000
0001555423BA00000A69687000986B2E100000
0003AAABEB2890000D2D3C3002E1D498000000
0002666417D1D2002D1E1E000995C2E1222200
0003999AE49787006A5A4B001E2C5890787800
0000000069696800A69687008A4D1E20787800
01B98879E4978600D2D3C30082644700454500
0035677626E2D202D1E1E000DDDDDDDDDDDDD0
07DB9889DC38A006A5A4B00011111111111110
0124667632AC100A69687000EEEEEEEEEEEEE0
0DEBA989CD70000D2D3C300011111111111110
002456653000002D1E1E0000EEEEEEEEEEEEE0
000000000000006A5A5B000000000000444400
00000000000000A69687000000000000787800
00000000000000D2D2C3000000000000687800
00000000000002D1E1E0000000000000000000
00000000000006A5A5B0000000000000000000
00000000000006454550000000000000000000
ENDCHAR
STARTCHAR questiondown
ENCODING 191
SWIDTH 693 0
DWIDTH 19 0
BBX 19 24 0 0
BITMAP
00000268998510000000
0017DD97667AEB400000
05E92268998515D90000
2C35CD97657AE82AA000
008C4269AA8519C1B700
0011AD96557CD37C2E00
00005269AA834E2C4B50
00000585446D67878780
000000000005A5A59690
00030303134C67878780
000F0F0E4BA52D3B4A50
000F0F0E2569E55C1E10
000F0F0E498616D29800
000F0F0E3779DA17C100
000F0F0E387523BC2000
000F0F0E3889CD600000
000F0F0E266530000000
000F0F0E000000000000
00010101000000000000
007EEEEE700000000000
00011111000000000000
007FFFFF700000000000
00000000000000000000
008FFFFF700000000000
ENDCHAR
STARTCHAR Agrave
ENCODING 192
SWIDTH 936 0
DWIDTH 26 0
BBX 26 32 0 0
BITMAP
00000050000000000000000000
000002AD710000000000000000
0000AB42AE7100000000000000
000006DB429E71000000000000
00000005DC429E810000000000
0000000005CC42710000000000
000000000005C8000000000000
00000000000000000000000000
00000000000000000000000000
00000000076372819000000000
000000001ED1E1D2C400000000
0000000079B596886A00000000
00000000D35B3C2E1E10000000
00000003C25E2D3B5970000000
0000000968888795B3D0000000
0000001E1E23D1E1E2C4000000
0000006A5B37C4A6886A000000
000000C4B5976A4C2E1E100000
000003D2E1E13E1D3B59600000
0000097786A4997795B3C00000
00001E1D2C4A63D1E1E2D30000
00006A4C2D1E10C4A688790000
0000C4A68779006A4C2D1E1000
0003D1E1E2D3001E1D3C4A6000
00097795B3C699997786A4C000
001E2D3B59655554D2E1E2D300
006A4C2D1E5AAAA7C4B5977900
00C4A6886A3555556A5B3D2E10
02D1E1E2C6AAAAAA6E1D2C4A60
088795B3D2444444396886A4C0
0E2D3B597000000004C2E1E1D3
5B3C2E1E1000000000D3B59779
ENDCHAR
STARTCHAR Aacute
ENCODING 193
SWIDTH 936 0
DWIDTH 26 0
BBX 26 32 0 0
BITMAP
00000000000000000005100000
000000000000000005CC300000
0000000000000005DB42AC1000
00000000000006DB43AE710000
000000000006DB33AE71000000
00000000000733AD6100000000
0000000000005D600000000000
00000000000000000000000000
00000000000000000000000000
00000000076372819000000000
000000001ED1E1D2C400000000
0000000079B596886A00000000
00000000D35B3C2E1E10000000
00000003C25E2D3B5970000000
0000000968888795B3D0000000
0000001E1E23D1E1E2C4000000
0000006A5B37C4A6886A000000
000000C4B5976A4C2E1E100000
000003D2E1E13E1D3B59600000
0000097786A4997795B3C00000
00001E1D2C4A63D1E1E2D30000
00006A4C2D1E10C4A688790000
0000C4A68779006A4C2D1E1000
0003D1E1E2D3001E1D3C4A6000
00097795B3C699997786A4C000
001E2D3B59655554D2E1E2D300
006A4C2D1E5AAAA7C4B5977900
00C4A6886A3555556A5B3D2E10
02D1E1E2C6AAAAAA6E1D2C4A60
088795B3D2444444396886A4C0
0E2D3B597000000004C2E1E1D3
5B3C2E1E1000000000D3B59779
ENDCHAR
STARTCHAR Acircumflex
ENCODING 194
SWIDTH 936 0
DWIDTH 26 0
BBX 26 32 0 0
BITMAP
00000000000892A00000000000
00000000001EE2D30000000000
00000000006A97790000000000
0000000000C43D1E1000000000
0000000003D26C4A6000000000
00000000097796A4C000000000
000000000C2B31D1C200000000
00000000000000000000000000
00000000000000000000000000
00000000076372819000000000
000000001ED1E1D2C400000000
0000000079B596886A00000000
00000000D35B3C2E1E10000000
00000003C25E2D3B5970000000
0000000968888795B3D0000000
0000001E1E23D1E1E2C4000000
0000006A5B37C4A6886A000000
000000C4B5976A4C2E1E100000
000003D2E1E13E1D3B59600000
0000097786A4997795B3C00000
00001E1D2C4A63D1E1E2D30000
00006A4C2D1E10C4A688790000
0000C4A68779006A4C2D1E1000
0003D1E1E2D3001E1D3C4A6000
00097795B3C699997786A4C000
001E2D3B59655554D2E1E2D300
006A4C2D1E5AAAA7C4B5977900
00C4A6886A3555556A5B3D2E10
02D1E1E2C6AAAAAA6E1D2C4A60
088795B3D2444444396886A4C0
0E2D3B597000000004C2E1E1D3
5B3C2E1E1000000000D3B59779
ENDCHAR
STARTCHAR Atilde
ENCODING 195
SWIDTH 936 0
DWIDTH 26 0
BBX 26 30 0 0
BITMAP
000000179AAAAAAA6055540000
000003E95555555530B5960000
00000C529ABBBBBBBCC1D30000
00001E0D844444444308B00000
00003C3C04BBBBBBBBEB100000
00001313014444444310000000
00000000000000000000000000
00000000076372819000000000
000000001ED1E1D2C400000000
0000000079B596886A00000000
00000000D35B3C2E1E10000000
00000003C25E2D3B5970000000
0000000968888795B3D0000000
0000001E1E23D1E1E2C4000000
0000006A5B37C4A6886A000000
000000C4B5976A4C2E1E100000
000003D2E1E13E1D3B59600000
0000097786A4997795B3C00000
00001E1D2C4A63D1E1E2D30000
00006A4C2D1E10C4A688790000
0000C4A68779006A4C2D1E1000
0003D1E1E2D3001E1D3C4A6000
00097795B3C699997786A4C000
001E2D3B59655554D2E1E2D300
006A4C2D1E5AAAA7C4B5977900
00C4A6886A3555556A5B3D2E10
02D1E1E2C6AAAAAA6E1D2C4A60
088795B3D2444444396886A4C0
0E2D3B597000000004C2E1E1D3
5B3C2E1E1000000000D3B59779
ENDCHAR
STARTCHAR Adieresis
ENCODING 196
SWIDTH 936 0
DWIDTH 26 0
BBX 26 28 0 0
BITMAP
00000065647400292928000000
000000879696002C3C3C000000
000000879696002C3C3C000000
00000032323200141414000000
00000000000000000000000000
00000000076372819000000000
000000001ED1E1D2C400000000
0000000079B596886A00000000
00000000D35B3C2E1E10000000
00000003C25E2D3B5970000000
0000000968888795B3D0000000
0000001E1E23D1E1E2C4000000
0000006A5B37C4A6886A000000
000000C4B5976A4C2E1E100000
000003D2E1E13E1D3B59600000
0000097786A4997795B3C00000
00001E1D2C4A63D1E1E2D30000
00006A4C2D1E10C4A688790000
0000C4A68779006A4C2D1E1000
0003D1E1E2D3001E1D3C4A6000
00097795B3C699997786A4C000
001E2D3B59655554D2E1E2D300
006A4C2D1E5AAAA7C4B5977900
00C4A6886A3555556A5B3D2E10
02D1E1E2C6AAAAAA6E1D2C4A60
088795B3D2444444396886A4C0
0E2D3B597000000004C2E1E1D3
5B3C2E1E1000000000D3B59779
ENDCHAR
STARTCHAR Aring
ENCODING 197
SWIDTH 936 0
DWIDTH 26 0
BBX 26 31 0 0
BITMAP
000000000019CCB30000000000
0000000000C5564C2000000000
00000000068A76C5A000000000
00000000094C0084C000000000
00000000076C21B4B000000000
0000000002C4AB5A5000000000
00000000004C87C70000000000
00000000000145100000000000
00000000076372819000000000
000000001ED1E1D2C400000000
0000000079B596886A00000000
00000000D35B3C2E1E10000000
00000003C25E2D3B5970000000
0000000968888795B3D0000000
0000001E1E23D1E1E2C4000000
0000006A5B37C4A6886A000000
000000C4B5976A4C2E1E100000
000003D2E1E13E1D3B59600000
0000097786A4997795B3C00000
00001E1D2C4A63D1E1E2D30000
00006A4C2D1E10C4A688790000
0000C4A68779006A4C2D1E1000
0003D1E1E2D3001E1D3C4A6000
00097795B3C699997786A4C000
001E2D3B59655554D2E1E2D300
006A4C2D1E5AAAA7C4B5977900
00C4A6886A3555556A5B3D2E10
02D1E1E2C6AAAAAA6E1D2C4A60
088795B3D2444444396886A4C0
0E2D3B597000000004C2E1E1D3
5B3C2E1E1000000000D3B59779
ENDCHAR
STARTCHAR AE
ENCODING 198
SWIDTH 1198 0
DWIDTH 34 0
BBX 33 23 0 0
BITMAP
0000000007637281AAAAAAAAAAAAAAAA50
000000001EE1E1D3B95555555555555530
0000000069B597785DAAAAAAAAAAAAAA50
00000000C45B3D2E1E6555555555555520
00000003D25E2C3B59CBBBBBBBBBBBBB50
0000000978888695B3E444444444444420
0000001E1D23D1E1D2C400000000000000
0000006A4B38B5A6886A00000000000000
000000C4A6975A4C2E1E10000000000000
000003D2E1E23E2D3B5ADCCCCCCCCC9000
0000097795A4997795B4E3333333332000
00001E1D3B4A63D1E1E2DCCCCCCCCCA000
00006A4C2D1E10C4A6887A333333332000
0000C4A68879006A4C2D2EDDDDDDDDA000
0003D1E1E2C3001E1D3B5B622222222000
00097795B3D699997795B5A00000000000
000E2D3B59755554D2E1E2D10000000000
005B4C2E1E6AAAA7C4A697870000000000
00B5A6886A3555556A4C3D3FEEEEEEEE70
02D1E1D2C6AAAAAA6E1D2C4C5111111100
088795B3D2444444396886A6FEEEEEEE70
0E2C3B597000000003C2E1E2E200000000
5B3D2E1E1000000000C3B5979FFFFFFF70
ENDCHAR
STARTCHAR Ccedilla
ENCODING 199
SWIDTH 852 0
DWIDTH 24 0
BBX 24 34 0 -10
BITMAP
000000000157898520000000
00000003BEA8667AEC500000
000001AD6158998514CC2000
00003D829EB7657AEA27E400
0002E53D9148AA8417E53E40
001C65D34DC8657BD53D64E1
00892D28D427AA833CA2D420
01E2C56C29D8557DA1B92100
0796B3E2BA1000008C140000
0C4B5A77B000000006100000
0E1E1E1E2000000000000000
2D3D3D3C0000000000000000
3C4B4B5A0000000000000000
2C3C4C4B0000000000000000
1E1E1E1E0000000000000000
0D2D3C5A7000000001000000
097885C2D40000003D200000
03D2E2A83D820028E46B0000
00B66C1C918DEED827D2A500
003E29A1AD721126CB29B2B1
0006D18C34ADFEDA42CB2C70
00007D35DB6210149E62C900
000005E816ADFFEB617E6000
00000019E95210148DB20000
0000000016AFFFFB72000000
00000000016A968000000000
000000001DA6368000000000
000000008918AD8000000000
00000000B4A9442000000000
00000000C3C3000000000000
00000000B49B774000000000
000000007A16885000000000
000000001BC8774000000000
000000000047884000000000
ENDCHAR
STARTCHAR Egrave
ENCODING 200
SWIDTH 706 0
DWIDTH 20 0
BBX 18 32 1 0
BITMAP
015000000000000000
03BD50000000000000
CA34BD600000000000
17EA33BD6000000000
0016DA33AD60000000
000006DB3370000000
00000006D500000000
000000000000000000
000000000000000000
7272828AAAAAAAAAA6
B4C3C3C75555555553
B4C3C3CBAAAAAAAAA6
B4C3C3C65555555553
B4C3C3CBBBBBBBBBB7
B4C3C3C64444444443
B4C3C3C20000000000
B4C3C3C20000000000
B4C3C3C20000000000
B4C3C3CCCCCC600000
B4C3C3C53333200000
B4C3C3CDCCCC600000
B4C3C3C53333100000
B4C3C3CDDDDD700000
B4C3C3C42222100000
B4C3C3C20000000000
B4C3C3C20000000000
B4C3C3C20000000000
B4C3C3CEEEEEEEEEE9
B4C3C3C31111111111
B4C3C3CEEEEEEEEEE9
B4C3C3C30000000000
B4C3C3CFFFFFFFFFF9
ENDCHAR
STARTCHAR Eacute
ENCODING 201
SWIDTH 706 0
DWIDTH 20 0
BBX 18 32 1 0
BITMAP
000000000000000510
00000000000006DB20
000000000017DA33BB
0000000017EA34BD60
00000017E924BD6000
0000001724CD500000
000000007C50000000
000000000000000000
000000000000000000
7272828AAAAAAAAAA6
B4C3C3C75555555553
B4C3C3CBAAAAAAAAA6
B4C3C3C65555555553
B4C3C3CBBBBBBBBBB7
B4C3C3C64444444443
B4C3C3C20000000000
B4C3C3C20000000000
B4C3C3C20000000000
B4C3C3CCCCCC600000
B4C3C3C53333200000
B4C3C3CDCCCC600000
B4C3C3C53333100000
B4C3C3CDDDDD700000
B4C3C3C42222100000
B4C3C3C20000000000
B4C3C3C20000000000
B4C3C3C20000000000
B4C3C3CEEEEEEEEEE9
B4C3C3C31111111111
B4C3C3CEEEEEEEEEE9
B4C3C3C30000000000
B4C3C3CFFFFFFFFFF9
ENDCHAR
STARTCHAR Ecircumflex
ENCODING 202
SWIDTH 706 0
DWIDTH 20 0
BBX 18 32 1 0
BITMAP
000000097480000000
0000002EE1E1000000
00000088B596000000
000000E25B3C000000
000005B35E2C300000
00000B596886900000
00001C1D12C1C10000
000000000000000000
000000000000000000
7272828AAAAAAAAAA6
B4C3C3C75555555553
B4C3C3CBAAAAAAAAA6
B4C3C3C65555555553
B4C3C3CBBBBBBBBBB7
B4C3C3C64444444443
B4C3C3C20000000000
B4C3C3C20000000000
B4C3C3C20000000000
B4C3C3CCCCCC600000
B4C3C3C53333200000
B4C3C3CDCCCC600000
B4C3C3C53333100000
B4C3C3CDDDDD700000
B4C3C3C42222100000
B4C3C3C20000000000
B4C3C3C20000000000
B4C3C3C20000000000
B4C3C3CEEEEEEEEEE9
B4C3C3C31111111111
B4C3C3CEEEEEEEEEE9
B4C3C3C30000000000
B4C3C3CFFFFFFFFFF9
ENDCHAR
STARTCHAR Edieresis
ENCODING 203
SWIDTH 706 0
DWIDTH 20 0
BBX 18 28 1 0
BITMAP
008383920047474700
00B4B4C3005A596900
00B4B4C3005A596900
004141410023232300
000000000000000000
7272828AAAAAAAAAA6
B4C3C3C75555555553
B4C3C3CBAAAAAAAAA6
B4C3C3C65555555553
B4C3C3CBBBBBBBBBB7
B4C3C3C64444444443
B4C3C3C20000000000
B4C3C3C20000000000
B4C3C3C20000000000
B4C3C3CCCCCC600000
B4C3C3C53333200000
B4C3C3CDCCCC600000
B4C3C3C53333100000
B4C3C3CDDDDD700000
B4C3C3C42222100000
B4C3C3C20000000000
B4C3C3C20000000000
B4C3C3C20000000000
B4C3C3CEEEEEEEEEE9
B4C3C3C31111111111
B4C3C3CEEEEEEEEEE9
B4C3C3C30000000000
B4C3C3CFFFFFFFFFF9
ENDCHAR
STARTCHAR Igrave
ENCODING 204
SWIDTH 338 0
DWIDTH 9 0
BBX 14 32 -5 0
BITMAP
00330000000000
005DB400000000
2D815DB4000000
029E825CC40000
00018E925CC500
0000018E924600
000000017D2000
00000000000000
00000000000000
00000072728281
000000B4C3C3C2
000000B4C3C3C2
000000B4C3C3C2
000000B4C3C3C2
000000B4C3C3C2
000000B4C3C3C2
000000B4C3C3C2
000000B4C3C3C2
000000B4C3C3C2
000000B4C3C3C2
000000B4C3C3C2
000000B4C3C3C2
000000B4C3C3C2
000000B4C3C3C2
000000B4C3C3C2
000000B4C3C3C2
000000B4C3C3C2
000000B4C3C3C2
000000B4C3C3C2
000000B4C3C3C2
000000B4C3C3C2
000000B4C3C3C2
ENDCHAR
STARTCHAR Iacute
ENCODING 205
SWIDTH 338 0
DWIDTH 9 0
BBX 13 32 1 0
BITMAP
00000000015000
000000018E9100
0000018E825C70
00029E815DC400
029E816DB40000
02716DB4000000
000AB300000000
00000000000000
00000000000000
72728281000000
B4C3C3C2000000
B4C3C3C2000000
B4C3C3C2000000
B4C3C3C2000000
B4C3C3C2000000
B4C3C3C2000000
B4C3C3C2000000
B4C3C3C2000000
B4C3C3C2000000
B4C3C3C2000000
B4C3C3C2000000
B4C3C3C2000000
B4C3C3C2000000
B4C3C3C2000000
B4C3C3C2000000
B4C3C3C2000000
B4C3C3C2000000
B4C3C3C2000000
B4C3C3C2000000
B4C3C3C2000000
B4C3C3C2000000
B4C3C3C2000000
ENDCHAR
STARTCHAR Icircumflex
ENCODING 206
SWIDTH 338 0
DWIDTH 9 0
BBX 9 32 0 0
BITMAP
001B475000
006EB4C000
00C5E2D300
03D0977900
09774D1E10
0E2D3C4A60
5A3B0594A0
0000000000
0000000000
0727282810
0B4C3C3C20
0B4C3C3C20
0B4C3C3C20
0B4C3C3C20
0B4C3C3C20
0B4C3C3C20
0B4C3C3C20
0B4C3C3C20
0B4C3C3C20
0B4C3C3C20
0B4C3C3C20
0B4C3C3C20
0B4C3C3C20
0B4C3C3C20
0B4C3C3C20
0B4C3C3C20
0B4C3C3C20
0B4C3C3C20
0B4C3C3C20
0B4C3C3C20
0B4C3C3C20
0B4C3C3C20
ENDCHAR
STARTCHAR Idieresis
ENCODING 207
SWIDTH 338 0
DWIDTH 9 0
BBX 14 28 -2 0
BITMAP
B0B0B000657474
E0F0F000869695
E0F0F000869695
50505000323232
00000000000000
00072728281000
000B4C3C3C2000
000B4C3C3C2000
000B4C3C3C2000
000B4C3C3C2000
000B4C3C3C2000
000B4C3C3C2000
000B4C3C3C2000
000B4C3C3C2000
000B4C3C3C2000
000B4C3C3C2000
000B4C3C3C2000
000B4C3C3C2000
000B4C3C3C2000
000B4C3C3C2000
000B4C3C3C2000
000B4C3C3C2000
000B4C3C3C2000
000B4C3C3C2000
000B4C3C3C2000
000B4C3C3C2000
000B4C3C3C2000
000B4C3C3C2000
ENDCHAR
STARTCHAR Eth
ENCODING 208
SWIDTH 905 0
DWIDTH 25 0
BBX 25 23 0 0
BITMAP
02AAAAAAAAAAAA985100000000
04D5555555555557AE91000000
04B3AAAAAAAAAAA8519E400000
04B4C55555555557BD44E40000
04B4B3BBBBBBBBA833D64E2000
04B4B4C444444457D82D57B000
04B4B4A4BBBBBBB71B93D1D400
04B4B4A5B4444449C1D4986A00
0383837470000000985B3D2E10
3CCCCCCCCCC100002E1E1D2C30
13333333333000000C4B4B5B50
3CCCCCCCCCC100000A5A5A6960
13333333333000000B4B4B5A50
3DDDDDDDDDD100000E2D2C3B40
13646464622000006B3D1E1E10
04B4B4A5A0000004E3A77A4C00
04B4B4A5EDDDDDED46D1E3B600
04B4B4A0111111128D2A83D000
04B4B4FEEEEEEEED81AB1D5000
04B4B011111111115DA1B80000
04B4FEEEEEEEEEFEA43C800000
04B00000000000025AD5000000
04FFFFFFFFFFFFFDB510000000
ENDCHAR
STARTCHAR Ntilde
ENCODING 209
SWIDTH 877 0
DWIDTH 25 0
BBX 23 30 1 0
BITMAP
0000169AAAAAAA7046460000
0001DA655555553097780000
0009818ABBBBBBBCD1A50000
000E1B944444444305D10000
001E1E02BBBBBBBBDC300000
000303014444444420000000
000000000000000000000000
762909265000000636373720
BF3B76B2E200000A5A5B4B40
BAB2E2C67A00000A5A5B4B40
B4C67A3E1D40000A5A5B4B40
B43E1D4894D0000A5A5B4B40
B47994D1D3A8000A5A5B4B40
B4B3D3A85C2E200A5A5B4B40
B4C35C2E2B76B00A5A5B4B40
B4C34B76B2E2C50A5A5B4B40
B4C3B3E2C57A3D1A5A5B4B40
B4C3C37A3D1D49985A5B4B40
B4C3C33D4994D1D44A5B4B40
B4C3C3B5D1D3A85C0A5B4B40
B4C3C3C2A85C2E2B6A5B4B40
B4C3C3C21E2B66B2E45B4B40
B4C3C3C206B2E2C58A0B4B40
B4C3C3C200C57A3E1D4B4B40
B4C3C3C2003D1D4994D64B40
B4C3C3C2000994D1D3A71B40
B4C3C3C20001D3A85C2E2B40
B4C3C3C200005C2E2B67BB40
B4C3C3C200000B66B2E2CE40
B4C3C3C2000002E1C58A3F40
ENDCHAR
STARTCHAR Ograve
ENCODING 210
SWIDTH 933 0
DWIDTH 26 0
BBX 26 33 0 -1
BITMAP
00000150000000000000000000
000002AD600000000000000000
0000BB33AD7100000000000000
000006DB43AE71000000000000
00000006DB429E710000000000
0000000005DB42710000000000
000000000005C7000000000000
00000000000000000000000000
00000000015799751000000000
00000003BEA8668AEB40000000
000001AD6158998515CB200000
00003D829EB7667AEA26D40000
0002E53D9148AA8517D53D3000
001C65D34DC8657BE62D74D200
00892D28D427AA833C92D47A00
01E2C56C29D8557DA2B83D2D30
0796B3E2BA1000008C2D498790
0C4B5A77B00000000995C3D2D0
0E1E1E1E2000000001E1D2D2D2
2D3D3D3C0000000000A5B5A5B4
3C4B4B5A0000000000879696A5
2C3C4C4B000000000096A6A5A4
1E1E1E1E0000000000D2C3C3C3
0D2D3C5A7000000005C3E1E1E1
097885C2D40000003E3A76A5A0
03D2E2A83D820027E46C1E3B50
00B66C1C918DEED927D2A84C00
003E29A1AD721126CB19B1D400
0006D18C34ADFFEA42BA1B7000
00007D35DB621125AE62C90000
000005E816ADFFEB617E600000
00000019E95211249EA2000000
0000000016ADEEDB7200000000
ENDCHAR
STARTCHAR Oacute
ENCODING 211
SWIDTH 933 0
DWIDTH 26 0
BBX 26 33 0 -1
BITMAP
00000000000000000005100000
000000000000000005DB300000
0000000000000006DB42AC0000
00000000000006DB33AE710000
000000000006DA33AD71000000
00000000000733BD6000000000
0000000000005D600000000000
00000000000000000000000000
00000000015799751000000000
00000003BEA8668AEB40000000
000001AD6158998515CB200000
00003D829EB7667AEA26D40000
0002E53D9148AA8517D53D3000
001C65D34DC8657BE62D74D200
00892D28D427AA833C92D47A00
01E2C56C29D8557DA2B83D2D30
0796B3E2BA1000008C2D498790
0C4B5A77B00000000995C3D2D0
0E1E1E1E2000000001E1D2D2D2
2D3D3D3C0000000000A5B5A5B4
3C4B4B5A0000000000879696A5
2C3C4C4B000000000096A6A5A4
1E1E1E1E0000000000D2C3C3C3
0D2D3C5A7000000005C3E1E1E1
097885C2D40000003E3A76A5A0
03D2E2A83D820027E46C1E3B50
00B66C1C918DEED927D2A84C00
003E29A1AD721126CB19B1D400
0006D18C34ADFFEA42BA1B7000
00007D35DB621125AE62C90000
000005E816ADFFEB617E600000
00000019E95211249EA2000000
0000000016ADEEDB7200000000
ENDCHAR
STARTCHAR Ocircumflex
ENCODING 212
SWIDTH 933 0
DWIDTH 26 0
BBX 26 33 0 -1
BITMAP
00000000000883A00000000000
00000000001EE1D20000000000
00000000006997780000000000
0000000000C43D2E0000000000
0000000003D26C4A5000000000
00000000097886A5B000000000
000000000C1C31D1C200000000
00000000000000000000000000
00000000015799751000000000
00000003BEA8668AEB40000000
000001AD6158998515CB200000
00003D829EB7667AEA26D40000
0002E53D9148AA8517D53D3000
001C65D34DC8657BE62D74D200
00892D28D427AA833C92D47A00
01E2C56C29D8557DA2B83D2D30
0796B3E2BA1000008C2D498790
0C4B5A77B00000000995C3D2D0
0E1E1E1E2000000001E1D2D2D2
2D3D3D3C0000000000A5B5A5B4
3C4B4B5A0000000000879696A5
2C3C4C4B000000000096A6A5A4
1E1E1E1E0000000000D2C3C3C3
0D2D3C5A7000000005C3E1E1E1
097885C2D40000003E3A76A5A0
03D2E2A83D820027E46C1E3B50
00B66C1C918DEED927D2A84C00
003E29A1AD721126CB19B1D400
0006D18C34ADFFEA42BA1B7000
00007D35DB621125AE62C90000
000005E816ADFFEB617E600000
00000019E95211249EA2000000
0000000016ADEEDB7200000000
ENDCHAR
STARTCHAR Otilde
ENCODING 213
SWIDTH 933 0
DWIDTH 26 0
BBX 26 31 0 -1
BITMAP
000000279AAAAAAA5064640000
000003E95555555520B4A50000
00000C529ABBBBBBBCB0D20000
00001E0D744444444308B00000
00003B4C04BBBBBBBBEB100000
00001313014444444310000000
00000000015799751000000000
00000003BEA8668AEB40000000
000001AD6158998515CB200000
00003D829EB7667AEA26D40000
0002E53D9148AA8517D53D3000
001C65D34DC8657BE62D74D200
00892D28D427AA833C92D47A00
01E2C56C29D8557DA2B83D2D30
0796B3E2BA1000008C2D498790
0C4B5A77B00000000995C3D2D0
0E1E1E1E2000000001E1D2D2D2
2D3D3D3C0000000000A5B5A5B4
3C4B4B5A0000000000879696A5
2C3C4C4B000000000096A6A5A4
1E1E1E1E0000000000D2C3C3C3
0D2D3C5A7000000005C3E1E1E1
097885C2D40000003E3A76A5A0
03D2E2A83D820027E46C1E3B50
00B66C1C918DEED927D2A84C00
003E29A1AD721126CB19B1D400
0006D18C34ADFFEA42BA1B7000
00007D35DB621125AE62C90000
000005E816ADFFEB617E600000
00000019E95211249EA2000000
0000000016ADEEDB7200000000
ENDCHAR
STARTCHAR Odieresis
ENCODING 214
SWIDTH 933 0
DWIDTH 26 0
BBX 26 29 0 -1
BITMAP
00000074747400293838000000
0000009695A5003C4B4B000000
0000009695A5003C4B4B000000
00000032323200141414000000
00000000015799751000000000
00000003BEA8668AEB40000000
000001AD6158998515CB200000
00003D829EB7667AEA26D40000
0002E53D9148AA8517D53D3000
001C65D34DC8657BE62D74D200
00892D28D427AA833C92D47A00
01E2C56C29D8557DA2B83D2D30
0796B3E2BA1000008C2D498790
0C4B5A77B00000000995C3D2D0
0E1E1E1E2000000001E1D2D2D2
2D3D3D3C0000000000A5B5A5B4
3C4B4B5A0000000000879696A5
2C3C4C4B000000000096A6A5A4
1E1E1E1E0000000000D2C3C3C3
0D2D3C5A7000000005C3E1E1E1
097885C2D40000003E3A76A5A0
03D2E2A83D820027E46C1E3B50
00B66C1C918DEED927D2A84C00
003E29A1AD721126CB19B1D400
0006D18C34ADFFEA42BA1B7000
00007D35DB621125AE62C90000
000005E816ADFFEB617E600000
00000019E95211249EA2000000
0000000016ADEEDB7200000000
ENDCHAR
STARTCHAR multiply
ENCODING 215
SWIDTH 790 0
DWIDTH 22 0
BBX 22 20 0 0
BITMAP
39084490A3002A17539094
0B74D1C56C00A84E1C66C0
02E2A83E1C65D1D57B1E30
007B1E39A36D48A2E2A800
000C65C1D49A3E2B74D100
0003E2B745E1C65C1D4000
00008A2E2D57C1E38A0000
00000D548B2E3A93E10000
000004D3E2B84D1C600000
0000004C75D1D47B000000
0000006C1E48A2E3000000
000002E3993E1B7C300000
00000A84D1C66C26C00000
00005D1D57B1E4E1B70000
0001D48A2E2A838A2E2000
000993E2B75D4C1D47B000
004E1C66C1D62B74D1C500
00D57B1E3997B2E2A93E10
08A2E2A84E10D56C1E39A0
3E2B74D1D5004E1C66C1D4
ENDCHAR
STARTCHAR Oslash
ENCODING 216
SWIDTH 938 0
DWIDTH 26 0
BBX 26 32 0 -5
BITMAP
00000000000000000070000000
000000000000000006B2600000
00000000000000000D3A764000
0000000001579975273D1E2000
00000003BEA8668AEB53790000
000001AD5158998515CB620000
00003D729EB7667AE926D40000
0002E53D8148AA8517E64E3000
001D65D34DC8657CE52D74D100
00892D28D427AA833C91D57900
01E2D57C29D8557DA2B83E1D20
0786B3D2B90000008C2D497780
0C4C4A77A00000000985C3D2D0
1E1E1E1E2000000001E1E2D2D2
2D3C3C3C0000000000A5B5B5B4
3B4B4B5A0000000000869696A5
3C3C4C4B000000000096A5A5B4
1E2E2E1E0000000000D2C3C3C3
0D2D3C4A7000000005B3E1E1E1
097886B2D40000003E3A77A5A0
04D2E2B83D820028E46C1E3B50
00B66B1C918DEED827D2A94C00
003E29A1AD721126CB19C2D400
0006D19C34ADFFEA42BB1B7000
00007D35EA621125AE72C90000
000005E816ADFFEB617E600000
00005929E95211249EA2000000
0000D4A536ADEEDB7200000000
0006B3D1E20000000000000000
00053A67A00000000000000000
0000061E200000000000000000
00000004000000000000000000
ENDCHAR
STARTCHAR Ugrave
ENCODING 217
SWIDTH 905 0
DWIDTH 25 0
BBX 24 33 1 -1
BITMAP
000033000000000000000000
00006DA30000000000000000
003E716DB300000000000000
00029E816DB4000000000000
0000029E815DB40000000000
000000028E82550000000000
00000000018D200000000000
000000000000000000000000
000000000000000000000000
819191900000000082828181
D2D1E1E000000000C3C3D2D2
D2D1E1E000000000C3C3D2D2
D2D1E1E000000000C3C3D2D2
D2D1E1E000000000C3C3D2D2
D2D1E1E000000000C3C3D2D2
D2D1E1E000000000C3C3D2D2
D2D1E1E000000000C3C3D2D2
D2D1E1E000000000C3C3D2D2
D2D1E1E000000000C3C3D2D2
D2D1E1E000000000C3C3D2D2
D2D1E1E000000000C3C3D2D2
D2D1E1E000000000C3C3D2D2
C3D2D2E100000000D2D2D1E1
B4B4B4B500000002E1E1E1F0
87786A4D2000000B77A4B4C0
4C2D1D56D61004C92E2B5980
0D4993E53AEEEC53D66C2E20
05D1C73DA411139E54E3A800
00AA2CA16BEFFC717E47D100
000BA19D8310037DB27D2000
00009D527CEFEC833BC10000
000004CD8320137BD6000000
000000049CEFEC9500000000
ENDCHAR
STARTCHAR Uacute
ENCODING 218
SWIDTH 905 0
DWIDTH 25 0
BBX 24 33 1 -1
BITMAP
000000000000000002500000
00000000000000029E810000
000000000000029E816D6000
0000000000029E716DB40000
0000000002AE716DB3000000
0000000003717DA300000000
00000000000CA30000000000
000000000000000000000000
000000000000000000000000
819191900000000082828181
D2D1E1E000000000C3C3D2D2
D2D1E1E000000000C3C3D2D2
D2D1E1E000000000C3C3D2D2
D2D1E1E000000000C3C3D2D2
D2D1E1E000000000C3C3D2D2
D2D1E1E000000000C3C3D2D2
D2D1E1E000000000C3C3D2D2
D2D1E1E000000000C3C3D2D2
D2D1E1E000000000C3C3D2D2
D2D1E1E000000000C3C3D2D2
D2D1E1E000000000C3C3D2D2
D2D1E1E000000000C3C3D2D2
C3D2D2E100000000D2D2D1E1
B4B4B4B500000002E1E1E1F0
87786A4D2000000B77A4B4C0
4C2D1D56D61004C92E2B5980
0D4993E53AEEEC53D66C2E20
05D1C73DA411139E54E3A800
00AA2CA16BEFFC717E47D100
000BA19D8310037DB27D2000
00009D527CEFEC833BC10000
000004CD8320137BD6000000
000000049CEFEC9500000000
ENDCHAR
STARTCHAR Ucircumflex
ENCODING 219
SWIDTH 905 0
DWIDTH 25 0
BBX 24 33 1 -1
BITMAP
0000000001C3840000000000
0000000007E95B0000000000
000000000D4E1E2000000000
000000004C0A687000000000
00000000A675C2D000000000
00000001E1E2D3B400000000
0000000684A0775900000000
000000000000000000000000
000000000000000000000000
819191900000000082828181
D2D1E1E000000000C3C3D2D2
D2D1E1E000000000C3C3D2D2
D2D1E1E000000000C3C3D2D2
D2D1E1E000000000C3C3D2D2
D2D1E1E000000000C3C3D2D2
D2D1E1E000000000C3C3D2D2
D2D1E1E000000000C3C3D2D2
D2D1E1E000000000C3C3D2D2
D2D1E1E000000000C3C3D2D2
D2D1E1E000000000C3C3D2D2
D2D1E1E000000000C3C3D2D2
D2D1E1E000000000C3C3D2D2
C3D2D2E100000000D2D2D1E1
B4B4B4B500000002E1E1E1F0
87786A4D2000000B77A4B4C0
4C2D1D56D61004C92E2B5980
0D4993E53AEEEC53D66C2E20
05D1C73DA411139E54E3A800
00AA2CA16BEFFC717E47D100
000BA19D8310037DB27D2000
00009D527CEFEC833BC10000
000004CD8320137BD6000000
000000049CEFEC9500000000
ENDCHAR
STARTCHAR Udieresis
ENCODING 220
SWIDTH 905 0
DWIDTH 25 0
BBX 24 29 1 -1
BITMAP
00000A1A1A00074838300000
00001E1E2D000A5A4B400000
00001E1E2D000A5A4B400000
000005041400032314100000
000000000000000000000000
819191900000000082828181
D2D1E1E000000000C3C3D2D2
D2D1E1E000000000C3C3D2D2
D2D1E1E000000000C3C3D2D2
D2D1E1E000000000C3C3D2D2
D2D1E1E000000000C3C3D2D2
D2D1E1E000000000C3C3D2D2
D2D1E1E000000000C3C3D2D2
D2D1E1E000000000C3C3D2D2
D2D1E1E000000000C3C3D2D2
D2D1E1E000000000C3C3D2D2
D2D1E1E000000000C3C3D2D2
D2D1E1E000000000C3C3D2D2
C3D2D2E100000000D2D2D1E1
B4B4B4B500000002E1E1E1F0
87786A4D2000000B77A4B4C0
4C2D1D56D61004C92E2B5980
0D4993E53AEEEC53D66C2E20
05D1C73DA411139E54E3A800
00AA2CA16BEFFC717E47D100
000BA19D8310037DB27D2000
00009D527CEFEC833BC10000
000004CD8320137BD6000000
000000049CEFEC9500000000
ENDCHAR
STARTCHAR Yacute
ENCODING 221
SWIDTH 789 0
DWIDTH 22 0
BBX 22 32 0 0
BITMAP
0000000000000000051000
0000000000000006DB3000
00000000000006DB33AC00
000000000006DA33AE7100
0000000007DA33BD600000
000000000733BD60000000
00000000006D6000000000
0000000000000000000000
0000000000000000000000
3646454500000045455554
1D2D2D2D100000C3D2D2D1
08787878700004A5A59690
01D2D2D2D0000C3C3C3D20
0086869696004B4B5A5A00
002D2D2D2D00B4B4C3C300
000969696963C3B4B4B000
0002D2D2D2AA5A4B4B3000
0000A5A5A53C3C3C3B0000
00003C3C3B96A5A5B40000
00000B4A54D2D2C3C00000
000003B3B969695A500000
000000B35D2D2D2D000000
0000004B87879696000000
0000000CD2D2D2D0000000
0000000696968780000000
0000000696878780000000
0000000696878780000000
0000000696878780000000
0000000696878780000000
0000000696878780000000
0000000696878780000000
0000000696878780000000
ENDCHAR
STARTCHAR Thorn
ENCODING 222
SWIDTH 798 0
DWIDTH 22 0
BBX 21 26 1 -2
BITMAP
7272728200000000000000
B4B4C3C300000000000000
B4B4C3C311100000000000
B4B4C3CEEDDEE940000000
B4B4C3C4122116CB300000
B4B4C3CEDDDEE926E40000
B4B4C3C4222128E63E3000
B4B4C3CEDCCED62C74D000
B4B4C3C433313BA2D3A700
B4B4C3CEDCCEB2A85C3D00
B4B4C3C300008C1E2E2D20
B4B4C3C300000B5A5A5A50
B4B4C3C300000878797960
B4B4C3C300000A696A6950
B4B4C3C300004E1D2C3C30
B4B4C3C6988AE47A3D1D00
B4B4C3C5677518D2C67900
B4B4C3C6999AEA29A2E100
B4B4C3C5666524CA1D6000
B4B4C3C6999ADD52D80000
B4B4C3C56665228E600000
B4B4C3C6AA9ACD81000000
B4B4C3C455542000000000
B4B4C3C300000000000000
B4B4C3C300000000000000
A4B3B3C200000000000000
ENDCHAR
STARTCHAR germandbls
ENCODING 223
SWIDTH 826 0
DWIDTH 23 0
BBX 22 26 1 -2
BITMAP
0000026999999861000000
0001AE97555567AE910000
003D8158AAAAA8519D3000
02E45EA6555556BD45D100
0C65D349AAAAA934E48A00
4C2E29D7544457E73E1E30
96886C28BBBBB72D597880
C4B3C4A844444995A5A5A0
C2D2D1E1000003C4B4B4B0
C2D2D1E499999D77969690
C2D2D1E36666534E3C3B50
C2D2D1E5AAAAACE47A4C00
C2D2D1E3555557BB2C3C30
C2D2D1E5BBBBB938C4C4B0
C2D2D1E2444446E2D3D2D2
C2D2D1E1000000A5A5B4B4
C2D2D1E1000001D3C3C3C3
C2D2D1E6DDDDEE83D2E1E1
C2D2D1E11111116E4985C0
C2D2D1E6EEEEEFA37C1D50
C2D2D1E11111114BB2AA00
C2D2D1E7EEEEEEB52BC100
C2D2D1E100000149E91000
C2D2D1E7FFFFFEC8200000
C2D2D1E100000000000000
C2D2D1D100000000000000
ENDCHAR
STARTCHAR agrave
ENCODING 224
SWIDTH 832 0
DWIDTH 23 0
BBX 23 30 0 -1
BITMAP
000051000000000000000000
00019E810000000000000000
007C528E8200000000000000
0004CD518E92000000000000
000004BD618E920000000000
00000003BD61720000000000
0000000003AB000000000000
000000000000000000000000
000000000134210000000000
00000028DECBCEC710000000
000019E721343138E8000000
0001CB16CEBBCEC52BB10000
001C82CA3144315BB29B0000
009B2E63BEBACE927D1B8000
02D1D65E6145317D47B2E100
0976A3E27EBACE63D2B59700
0D2C4B57C20003D6794B3B00
1D1E1E1E2000003E1E1E1E00
3C3C4B4B0000000D2D2D2D10
3B4B4B5A0000000B3C3C3D20
2D3D3C3D0000000B4C3C3D20
0E1E1E2C5000000B4C3C3D20
0B5977A3D831365B4C3C3D20
05C2D2B917BDB82B4C3C3D20
00C65C29D843586B4C3C3D20
002E46D527ABA61B4C3C3D20
0004E63BD9657A7B4C3C3D20
00002CB32699851B4C3C3D20
0000006CD9767B7B4C3C3D20
000000002578740000000000
ENDCHAR
STARTCHAR aacute
ENCODING 225
SWIDTH 832 0
DWIDTH 23 0
BBX 23 30 0 -1
BITMAP
000000000000000003300000
0000000000000004BD500000
00000000000004BD518D2000
000000000004CC528E920000
0000000005CC529E81000000
0000000006429E8100000000
00000000002D810000000000
000000000000000000000000
000000000134210000000000
00000028DECBCEC710000000
000019E721343138E8000000
0001CB16CEBBCEC52BB10000
001C82CA3144315BB29B0000
009B2E63BEBACE927D1B8000
02D1D65E6145317D47B2E100
0976A3E27EBACE63D2B59700
0D2C4B57C20003D6794B3B00
1D1E1E1E2000003E1E1E1E00
3C3C4B4B0000000D2D2D2D10
3B4B4B5A0000000B3C3C3D20
2D3D3C3D0000000B4C3C3D20
0E1E1E2C5000000B4C3C3D20
0B5977A3D831365B4C3C3D20
05C2D2B917BDB82B4C3C3D20
00C65C29D843586B4C3C3D20
002E46D527ABA61B4C3C3D20
0004E63BD9657A7B4C3C3D20
00002CB32699851B4C3C3D20
0000006CD9767B7B4C3C3D20
000000002578740000000000
ENDCHAR
STARTCHAR acircumflex
ENCODING 226
SWIDTH 832 0
DWIDTH 23 0
BBX 23 30 0 -1
BITMAP
0000000005B1B10000000000
000000000CE4A60000000000
000000003D6A4C0000000000
00000000971E2D3000000000
00000001E289779000000000
00000006A4C3D1E100000000
0000000A4960B39500000000
000000000000000000000000
000000000134210000000000
00000028DECBCEC710000000
000019E721343138E8000000
0001CB16CEBBCEC52BB10000
001C82CA3144315BB29B0000
009B2E63BEBACE927D1B8000
02D1D65E6145317D47B2E100
0976A3E27EBACE63D2B59700
0D2C4B57C20003D6794B3B00
1D1E1E1E2000003E1E1E1E00
3C3C4B4B0000000D2D2D2D10
3B4B4B5A0000000B3C3C3D20
2D3D3C3D0000000B4C3C3D20
0E1E1E2C5000000B4C3C3D20
0B5977A3D831365B4C3C3D20
05C2D2B917BDB82B4C3C3D20
00C65C29D843586B4C3C3D20
002E46D527ABA61B4C3C3D20
0004E63BD9657A7B4C3C3D20
00002CB32699851B4C3C3D20
0000006CD9767B7B4C3C3D20
000000002578740000000000
ENDCHAR
STARTCHAR atilde
ENCODING 227
SWIDTH 832 0
DWIDTH 23 0
BBX 23 28 0 -1
BITMAP
0000169AAAAAAA7037460000
0001DA655555553088680000
0009818ABBBBBBBCD2A60000
000D2B944444444405D10000
000F0F02BBBBBBBBDC300000
000303014444444420000000
000000000134210000000000
00000028DECBCEC710000000
000019E721343138E8000000
0001CB16CEBBCEC52BB10000
001C82CA3144315BB29B0000
009B2E63BEBACE927D1B8000
02D1D65E6145317D47B2E100
0976A3E27EBACE63D2B59700
0D2C4B57C20003D6794B3B00
1D1E1E1E2000003E1E1E1E00
3C3C4B4B0000000D2D2D2D10
3B4B4B5A0000000B3C3C3D20
2D3D3C3D0000000B4C3C3D20
0E1E1E2C5000000B4C3C3D20
0B5977A3D831365B4C3C3D20
05C2D2B917BDB82B4C3C3D20
00C65C29D843586B4C3C3D20
002E46D527ABA61B4C3C3D20
0004E63BD9657A7B4C3C3D20
00002CB32699851B4C3C3D20
0000006CD9767B7B4C3C3D20
000000002578740000000000
ENDCHAR
STARTCHAR adieresis
ENCODING 228
SWIDTH 832 0
DWIDTH 23 0
BBX 23 26 0 -1
BITMAP
0000474756000B0B0B000000
0000596968000F0F0E000000
0000596968000F0F0E000000
000023232300050505000000
000000000134210000000000
00000028DECBCEC710000000
000019E721343138E8000000
0001CB16CEBBCEC52BB10000
001C82CA3144315BB29B0000
009B2E63BEBACE927D1B8000
02D1D65E6145317D47B2E100
0976A3E27EBACE63D2B59700
0D2C4B57C20003D6794B3B00
1D1E1E1E2000003E1E1E1E00
3C3C4B4B0000000D2D2D2D10
3B4B4B5A0000000B3C3C3D20
2D3D3C3D0000000B4C3C3D20
0E1E1E2C5000000B4C3C3D20
0B5977A3D831365B4C3C3D20
05C2D2B917BDB82B4C3C3D20
00C65C29D843586B4C3C3D20
002E46D527ABA61B4C3C3D20
0004E63BD9657A7B4C3C3D20
00002CB32699851B4C3C3D20
0000006CD9767B7B4C3C3D20
000000002578740000000000
ENDCHAR
STARTCHAR aring
ENCODING 229
SWIDTH 832 0
DWIDTH 23 0
BBX 23 30 0 -1
BITMAP
0000000006CCC50000000000
0000000089474A6000000000
00000001C5A5B4D000000000
000000049B2039A200000000
00000002B86076C100000000
00000000B59B86A000000000
000000001B97AB1000000000
000000000035300000000000
000000000134210000000000
00000028DECBCEC710000000
000019E721343138E8000000
0001CB16CEBBCEC52BB10000
001C82CA3144315BB29B0000
009B2E63BEBACE927D1B8000
02D1D65E6145317D47B2E100
0976A3E27EBACE63D2B59700
0D2C4B57C20003D6794B3B00
1D1E1E1E2000003E1E1E1E00
3C3C4B4B0000000D2D2D2D10
3B4B4B5A0000000B3C3C3D20
2D3D3C3D0000000B4C3C3D20
0E1E1E2C5000000B4C3C3D20
0B5977A3D831365B4C3C3D20
05C2D2B917BDB82B4C3C3D20
00C65C29D843586B4C3C3D20
002E46D527ABA61B4C3C3D20
0004E63BD9657A7B4C3C3D20
00002CB32699851B4C3C3D20
0000006CD9767B7B4C3C3D20
000000002578740000000000
ENDCHAR
STARTCHAR ae
ENCODING 230
SWIDTH 1166 0
DWIDTH 33 0
BBX 32 22 0 -1
BITMAP
00000000013431000000000000000000
00000028DECBCEC7282829AAAAAAAAA6
000019E721343138E71C3C6444444442
0001CB16CEBBCEC52BB93CBBBBBBBBB6
001C82CA3144315BB29B1C6444444442
009B2E63BEBACE927D1B8CCBBBBBBBB6
02D1D65E6145317D47B2EE5444444442
0976A3E27EBACE63D2B59F2000000000
0D2C4B57C20003D6794B3F6555555550
1D1E1E1E2000003E1E1E1FBAAAAAAAA0
3C3C4B4B0000000D2D2D2D7555555550
3B4B4B5A0000000B3C3C3DAAAAAAAAA0
2D3D3C3D0000000B4C3C3D7666666660
0E1E1E2C5000000B4C3C3DA999999990
0B5977A3D831365B4C3C3D2000000000
05C2D2B917BDB82B4C3C3D2000000000
00C65C29D843586B4C3C3DEEEEEEEEE8
002E46D527ABA61B4C3C3D3111111111
0004E63BD9657A7B4C3C3DEEEEEEEEE8
00002CB32699851B4C3C3D3000000000
0000006CD9767B7B4C3C3DFFFFFFFFF8
00000000257874000000000000000000
ENDCHAR
STARTCHAR ccedilla
ENCODING 231
SWIDTH 736 0
DWIDTH 21 0
BBX 20 31 0 -10
BITMAP
00000000278A97400000
0000005DD86568CE7000
00001BC4269A9723BC30
0002D72AE96568DB35E3
001D64E7169B9616E64A
00983E35EA6459E72D40
02E1D47D249BA52B9100
0877A4D2AC645BB13000
0D2C3B58A00000620000
1E2E1E1E100000000000
3C3C3B4B000000000000
3C4B4B5A000000000000
2D2D2D2D000000000000
0E1E2D3B700000200000
0A5976B2D81017E20000
05C2E2B929EEEA27A000
00C57C1AC51114BC2930
003E28C24AEEEB62BA26
0005D36E9410149E72D7
00004E716BEFEC726E60
000002AD8420237DC200
000000027BFFFD940000
0000000037E1E1000000
00000007D750E1000000
0000001E259BF1000000
0000003B3E5440000000
0000004B5A0000000000
0000003B2E8770000000
0000001E337880000000
00000005EA8770000000
00000000157880000000
ENDCHAR
STARTCHAR egrave
ENCODING 232
SWIDTH 666 0
DWIDTH 19 0
BBX 18 29 0 0
BITMAP
004200000000000000
008E92000000000000
5D617E920000000000
03BD617EA200000000
0003AD617DA3000000
000003AD7163000000
00000002AC00000000
000000000000000000
000000000000000000
08382829AAAAAAAAA6
0B4C3C3C6444444443
0B4C3C3CBBBBBBBBB6
0B4C3C3C6444444442
0B4C3C3CCBBBBBBBB7
0B4C3C3C5444444442
0B4C3C3C2000000000
0B4C3C3C6555555550
0B4C3C3CBAAAAAAAA0
0B4C3C3C7555555550
0B4C3C3CAAAAAAAAA0
0B4C3C3C7666666660
0B4C3C3CA999999990
0B4C3C3C2000000000
0B4C3C3C2000000000
0B4C3C3CEEEEEEEEE8
0B4C3C3C3111111111
0B4C3C3CEEEEEEEEE8
0B4C3C3C3000000000
0B4C3C3CFFFFFFFFF9
ENDCHAR
STARTCHAR eacute
ENCODING 233
SWIDTH 666 0
DWIDTH 19 0
BBX 18 29 1 0
BITMAP
000000000000003400
0000000000003AD600
00000000003BD617E3
000000003BD617EA20
0000004BD618E92000
0000005518E9200000
00000001D810000000
000000000000000000
000000000000000000
8382829AAAAAAAAA60
B4C3C3C64444444430
B4C3C3CBBBBBBBBB60
B4C3C3C64444444420
B4C3C3CCBBBBBBBB70
B4C3C3C54444444420
B4C3C3C20000000000
B4C3C3C65555555500
B4C3C3CBAAAAAAAA00
B4C3C3C75555555500
B4C3C3CAAAAAAAAA00
B4C3C3C76666666600
B4C3C3CA9999999900
B4C3C3C20000000000
B4C3C3C20000000000
B4C3C3CEEEEEEEEE80
B4C3C3C31111111110
B4C3C3CEEEEEEEEE80
B4C3C3C30000000000
B4C3C3CFFFFFFFFF90
ENDCHAR
STARTCHAR ecircumflex
ENCODING 234
SWIDTH 666 0
DWIDTH 19 0
BBX 17 29 1 0
BITMAP
0000004C1A20000000
000000AE6880000000
000001E4C2D0000000
00000790D3B5000000
00000D38795B000000
00004C2E1E1E200000
000086770958600000
000000000000000000
000000000000000000
8382829AAAAAAAAA60
B4C3C3C64444444430
B4C3C3CBBBBBBBBB60
B4C3C3C64444444420
B4C3C3CCBBBBBBBB70
B4C3C3C54444444420
B4C3C3C20000000000
B4C3C3C65555555500
B4C3C3CBAAAAAAAA00
B4C3C3C75555555500
B4C3C3CAAAAAAAAA00
B4C3C3C76666666600
B4C3C3CA9999999900
B4C3C3C20000000000
B4C3C3C20000000000
B4C3C3CEEEEEEEEE80
B4C3C3C31111111110
B4C3C3CEEEEEEEEE80
B4C3C3C30000000000
B4C3C3CFFFFFFFFF90
ENDCHAR
STARTCHAR edieresis
ENCODING 235
SWIDTH 666 0
DWIDTH 19 0
BBX 17 25 1 0
BITMAP
038383700091A1A100
04B4B5A000D2D1E100
04B4B5A000D2D1E100
014132300041405000
000000000000000000
8382829AAAAAAAAA60
B4C3C3C64444444430
B4C3C3CBBBBBBBBB60
B4C3C3C64444444420
B4C3C3CCBBBBBBBB70
B4C3C3C54444444420
B4C3C3C20000000000
B4C3C3C65555555500
B4C3C3CBAAAAAAAA00
B4C3C3C75555555500
B4C3C3CAAAAAAAAA00
B4C3C3C76666666600
B4C3C3CA9999999900
B4C3C3C20000000000
B4C3C3C20000000000
B4C3C3CEEEEEEEEE80
B4C3C3C31111111110
B4C3C3CEEEEEEEEE80
B4C3C3C30000000000
B4C3C3CFFFFFFFFF90
ENDCHAR
STARTCHAR igrave
ENCODING 236
SWIDTH 337 0
DWIDTH 9 0
BBX 14 29 -5 0
BITMAP
00330000000000
005DB400000000
2D815DB4000000
029E825CC40000
00018E925CC500
0000018E924600
000000017D2000
00000000000000
00000000000000
00000083828292
000000B4C3C3C2
000000B4C3C3C2
000000B4C3C3C2
000000B4C3C3C2
000000B4C3C3C2
000000B4C3C3C2
000000B4C3C3C2
000000B4C3C3C2
000000B4C3C3C2
000000B4C3C3C2
000000B4C3C3C2
000000B4C3C3C2
000000B4C3C3C2
000000B4C3C3C2
000000B4C3C3C2
000000B4C3C3C2
000000B4C3C3C2
000000B4C3C3C2
000000B4C3C3C2
ENDCHAR
STARTCHAR iacute
ENCODING 237
SWIDTH 337 0
DWIDTH 9 0
BBX 13 29 1 0
BITMAP
00000000015000
000000018E9100
0000018E825C70
00029E815DC400
029E816DB40000
02716DB4000000
000AB300000000
00000000000000
00000000000000
83828292000000
B4C3C3C2000000
B4C3C3C2000000
B4C3C3C2000000
B4C3C3C2000000
B4C3C3C2000000
B4C3C3C2000000
B4C3C3C2000000
B4C3C3C2000000
B4C3C3C2000000
B4C3C3C2000000
B4C3C3C2000000
B4C3C3C2000000
B4C3C3C2000000
B4C3C3C2000000
B4C3C3C2000000
B4C3C3C2000000
B4C3C3C2000000
B4C3C3C2000000
B4C3C3C2000000
ENDCHAR
STARTCHAR icircumflex
ENCODING 238
SWIDTH 337 0
DWIDTH 9 0
BBX 9 29 0 0
BITMAP
001B475000
006EB4C000
00C5E2D300
03D0977900
09774D1E10
0E2D3C4A60
5A3B0594A0
0000000000
0000000000
0838282920
0B4C3C3C20
0B4C3C3C20
0B4C3C3C20
0B4C3C3C20
0B4C3C3C20
0B4C3C3C20
0B4C3C3C20
0B4C3C3C20
0B4C3C3C20
0B4C3C3C20
0B4C3C3C20
0B4C3C3C20
0B4C3C3C20
0B4C3C3C20
0B4C3C3C20
0B4C3C3C20
0B4C3C3C20
0B4C3C3C20
0B4C3C3C20
ENDCHAR
STARTCHAR idieresis
ENCODING 239
SWIDTH 337 0
DWIDTH 9 0
BBX 14 25 -2 0
BITMAP
B0B0B000657474
E0F0F000869695
E0F0F000869695
50505000323232
00000000000000
00083828292000
000B4C3C3C2000
000B4C3C3C2000
000B4C3C3C2000
000B4C3C3C2000
000B4C3C3C2000
000B4C3C3C2000
000B4C3C3C2000
000B4C3C3C2000
000B4C3C3C2000
000B4C3C3C2000
000B4C3C3C2000
000B4C3C3C2000
000B4C3C3C2000
000B4C3C3C2000
000B4C3C3C2000
000B4C3C3C2000
000B4C3C3C2000
000B4C3C3C2000
000B4C3C3C2000
ENDCHAR
STARTCHAR eth
ENCODING 240
SWIDTH 783 0
DWIDTH 22 0
BBX 21 25 0 -1
BITMAP
0000001478987300000000
00003AEB87678CE8100000
001AD61479A97328D50000
008818EB86568CD52D6000
0002D82489A9724C92D300
000015DB75568EA1B84C00
000002348AA9619B2E2C30
000000186546AD2B587780
00000000000007A4B4B4B0
00000001232102E2D2D3C0
000017CECBBCD3E1E2D2D0
0005E932444311E1E2D2D0
007D35CDBABCD3E1E2D2D0
03D29B32566541E1E2D2D0
0B58A2BD9899A3E1E2D2D0
1E1E2D63788872E1E2D2D0
4B4B4B3D766664C2C3C3C0
4B5A5A5C20003C6695A5A0
2D2D1E27DEEEC62D3B5960
0D3C65E8211139E55C1E10
07B2D629DFFEC827D2A800
00C82CC6210137DB28C000
001CA249DEFEC833BB1000
00007EA6210136BD600000
00000169CEEDC940000000
ENDCHAR
STARTCHAR ntilde
ENCODING 241
SWIDTH 787 0
DWIDTH 22 0
BBX 20 27 1 0
BITMAP
000279AAAAAAA4064730
004E85555555520C3B40
00D439ABBBBBBBDA1E10
03C1E744444444309A00
05A5B05BBBBBBBCEA100
01212024444444310000
00000000000000000000
87290936600000282838
BF2B66B2E100003C3C4B
BBB3E1C58900003C3C4B
B4D4994D1D30003C3C4B
B45D1E3A76C0003C3C4B
B46B76B2E2C5003C3C4B
B4B5E1C58A3D103C3C4B
B4C3994D1D3A803C3C4B
B4C33E3A75C2E23C3C4B
B4C3A6B2E2C67A3C3C4B
B4C3C3C58A3D1D5B3C4B
B4C3C34D1D3A85C53C4B
B4C3C30A75C2E2B63C4B
B4C3C302E2C67A3E4C4B
B4C3C3008A3D1D49884B
B4C3C3001D3985C1E34B
B4C3C30005C2E2B67B4B
B4C3C30000C67A3E1D8B
B4C3C300003D1D4994FB
B4C3C300000985C1E3BB
ENDCHAR
STARTCHAR ograve
ENCODING 242
SWIDTH 833 0
DWIDTH 23 0
BBX 23 30 0 -1
BITMAP
000043000000000000000000
00006DA30000000000000000
003E716DA300000000000000
0002AE716DB3000000000000
0000029E816DB40000000000
000000029E81550000000000
00000000028D100000000000
000000000000000000000000
00000000278A973000000000
0000005DD86568CD60000000
00001BC4269A9722AD200000
0002D72AE96568DB35E40000
001D64E7169B9616E64E2000
00983E35EA6459E72D56B000
02E1D47D249BA52B92E2C500
0877A4D2AC645BB1C6795B00
0D2C3B58A000008A3D1E1E10
1E2E1E1E1000000D3C4B4B40
3C3C3B4B0000000879696A50
3C4B4B5A0000000878696960
2D2D2D2D0000000B4A4A5B40
0E1E2D3B7000004D1E1E1D20
0A5976B2D81016E3995B3C00
05C2E2B929EEEA27C1D4A700
00C57C1AC51114BB2A93D100
003E28C24AEEEB52BA1D5000
0005D36E9410148E72C70000
00004E716BEFEC726D600000
000002AD8420137DB3000000
000000027BDEDC8300000000
ENDCHAR
STARTCHAR oacute
ENCODING 243
SWIDTH 833 0
DWIDTH 23 0
BBX 23 30 0 -1
BITMAP
000000000000000002400000
00000000000000029E800000
000000000000029E716D5000
000000000002AE716DB30000
0000000003AD717DA3000000
0000000003617EA300000000
00000000000C920000000000
000000000000000000000000
00000000278A973000000000
0000005DD86568CD60000000
00001BC4269A9722AD200000
0002D72AE96568DB35E40000
001D64E7169B9616E64E2000
00983E35EA6459E72D56B000
02E1D47D249BA52B92E2C500
0877A4D2AC645BB1C6795B00
0D2C3B58A000008A3D1E1E10
1E2E1E1E1000000D3C4B4B40
3C3C3B4B0000000879696A50
3C4B4B5A0000000878696960
2D2D2D2D0000000B4A4A5B40
0E1E2D3B7000004D1E1E1D20
0A5976B2D81016E3995B3C00
05C2E2B929EEEA27C1D4A700
00C57C1AC51114BB2A93D100
003E28C24AEEEB52BA1D5000
0005D36E9410148E72C70000
00004E716BEFEC726D600000
000002AD8420137DB3000000
000000027BDEDC8300000000
ENDCHAR
STARTCHAR ocircumflex
ENCODING 244
SWIDTH 833 0
DWIDTH 23 0
BBX 23 30 0 -1
BITMAP
0000000002C2940000000000
0000000008E86A0000000000
000000000D4E1E1000000000
000000005B0B597000000000
00000000B585B3D000000000
00000002E1E1E2C400000000
000000068590776800000000
000000000000000000000000
00000000278A973000000000
0000005DD86568CD60000000
00001BC4269A9722AD200000
0002D72AE96568DB35E40000
001D64E7169B9616E64E2000
00983E35EA6459E72D56B000
02E1D47D249BA52B92E2C500
0877A4D2AC645BB1C6795B00
0D2C3B58A000008A3D1E1E10
1E2E1E1E1000000D3C4B4B40
3C3C3B4B0000000879696A50
3C4B4B5A0000000878696960
2D2D2D2D0000000B4A4A5B40
0E1E2D3B7000004D1E1E1D20
0A5976B2D81016E3995B3C00
05C2E2B929EEEA27C1D4A700
00C57C1AC51114BB2A93D100
003E28C24AEEEB52BA1D5000
0005D36E9410148E72C70000
00004E716BEFEC726D600000
000002AD8420137DB3000000
000000027BDEDC8300000000
ENDCHAR
STARTCHAR otilde
ENCODING 245
SWIDTH 833 0
DWIDTH 23 0
BBX 23 28 0 -1
BITMAP
0000059AAAAAAAA019190000
0000AC65555555504C2D0000
0005C06ABBBBBBBBE56A0000
000966C54444444412D40000
000B4B409BBBBBBBCE600000
000313103444444430000000
00000000278A973000000000
0000005DD86568CD60000000
00001BC4269A9722AD200000
0002D72AE96568DB35E40000
001D64E7169B9616E64E2000
00983E35EA6459E72D56B000
02E1D47D249BA52B92E2C500
0877A4D2AC645BB1C6795B00
0D2C3B58A000008A3D1E1E10
1E2E1E1E1000000D3C4B4B40
3C3C3B4B0000000879696A50
3C4B4B5A0000000878696960
2D2D2D2D0000000B4A4A5B40
0E1E2D3B7000004D1E1E1D20
0A5976B2D81016E3995B3C00
05C2E2B929EEEA27C1D4A700
00C57C1AC51114BB2A93D100
003E28C24AEEEB52BA1D5000
0005D36E9410148E72C70000
00004E716BEFEC726D600000
000002AD8420137DB3000000
000000027BDEDC8300000000
ENDCHAR
STARTCHAR odieresis
ENCODING 246
SWIDTH 833 0
DWIDTH 23 0
BBX 23 26 0 -1
BITMAP
00001A1A2900083838300000
00001E2D2D000A4B4B400000
00001E2D2D000A4B4B400000
000004141400031414100000
00000000278A973000000000
0000005DD86568CD60000000
00001BC4269A9722AD200000
0002D72AE96568DB35E40000
001D64E7169B9616E64E2000
00983E35EA6459E72D56B000
02E1D47D249BA52B92E2C500
0877A4D2AC645BB1C6795B00
0D2C3B58A000008A3D1E1E10
1E2E1E1E1000000D3C4B4B40
3C3C3B4B0000000879696A50
3C4B4B5A0000000878696960
2D2D2D2D0000000B4A4A5B40
0E1E2D3B7000004D1E1E1D20
0A5976B2D81016E3995B3C00
05C2E2B929EEEA27C1D4A700
00C57C1AC51114BB2A93D100
003E28C24AEEEB52BA1D5000
0005D36E9410148E72C70000
00004E716BEFEC726D600000
000002AD8420137DB3000000
000000027BDEDC8300000000
ENDCHAR
STARTCHAR divide
ENCODING 247
SWIDTH 260 0
DWIDTH 7 0
BBX 10 17 -1 1
BITMAP
0051515100
00C3C3D200
00C3C3D200
00C3C3D200
00C3C3D200
0062617100
0000000000
BDDDDDDDD1
2222222220
BDDDDDDDD1
1111111110
0021203000
00C3C3D200
00C3C3D200
00C3C3D200
00C3C3D200
0082929100
ENDCHAR
STARTCHAR oslash
ENCODING 248
SWIDTH 832 0
DWIDTH 23 0
BBX 23 26 0 -3
BITMAP
000000000000000170000000
000000000000000894500000
00000000378A97381C472000
0000005DD86568CD773E1000
00001CC4269A9723AD660000
0002D72AE96568DB35E30000
001D54E7169BA726E64D2000
00983E36EA5459E72D56B000
03D1D47D249BA52C93E2C400
0977A4D2AC645BB1C5895B00
0D2D3C58A000009A3D1E1E10
1D2D2E1E1000000D3C3C4B30
3C4B4B4A0000000969695A50
3B4B4A5A0000000879696950
2D2C3C2D0000000B4B5B4B40
0E1E1E2B6000005D1E1E1E20
0A5977B2D81017E3985B3C00
05C2E2B929EEEA27C1D3A700
00C57C1AC51114BC2A93D000
003E29C25BEEEB62BA1D4000
0005D36E9410149E72C70000
00026E716BEFEC726D600000
000A74AD8420138DB3000000
000A1D268BDEDC8300000000
0000384D0000000000000000
000000640000000000000000
ENDCHAR
STARTCHAR ugrave
ENCODING 249
SWIDTH 795 0
DWIDTH 22 0
BBX 21 30 1 -1
BITMAP
0005000000000000000000
002AD61000000000000000
0AB33AD710000000000000
006DB42AE7100000000000
00005DB429E71000000000
0000005CC4271000000000
000000005C700000000000
0000000000000000000000
0000000000000000000000
9191A0A000000829191910
D2E1E1F000000C3D2D2E10
D2E1E1F000000C3D2D2E10
D2E1E1F000000C3D2D2E10
D2E1E1F000000C3D2D2E10
D2E1E1F000000C3D2D2E10
D2E1E1F000000C3D2D2E10
D2E1E1F000000C3D2D2E10
D2E1E1F000000C3D2D2E10
D2E1E1F000000C3D2D2E10
D2E1E1F000000C3D2D2E10
D2D2E1E100000D2D2E1E10
B3C4C3B600003E1E1F1E00
96887A3E6004D57A5B3C00
4B3E1D63BFFC54E2B58700
0C48A2DA30128D47B2E100
04D2BA27CFFD828D2C7000
007C28D831126DA2AA0000
0008D439DFFDA42CA10000
00004CB620025AD6000000
00000049CEEDA510000000
ENDCHAR
STARTCHAR uacute
ENCODING 250
SWIDTH 795 0
DWIDTH 22 0
BBX 21 30 1 -1
BITMAP
0000000000000000510000
000000000000005CC30000
0000000000005DB42AC100
00000000006DB43AE71000
000000006DB33AE7100000
00000000733AD610000000
0000000005D60000000000
0000000000000000000000
0000000000000000000000
9191A0A000000829191910
D2E1E1F000000C3D2D2E10
D2E1E1F000000C3D2D2E10
D2E1E1F000000C3D2D2E10
D2E1E1F000000C3D2D2E10
D2E1E1F000000C3D2D2E10
D2E1E1F000000C3D2D2E10
D2E1E1F000000C3D2D2E10
D2E1E1F000000C3D2D2E10
D2E1E1F000000C3D2D2E10
D2E1E1F000000C3D2D2E10
D2D2E1E100000D2D2E1E10
B3C4C3B600003E1E1F1E00
96887A3E6004D57A5B3C00
4B3E1D63BFFC54E2B58700
0C48A2DA30128D47B2E100
04D2BA27CFFD828D2C7000
007C28D831126DA2AA0000
0008D439DFFDA42CA10000
00004CB620025AD6000000
00000049CEEDA510000000
ENDCHAR
STARTCHAR ucircumflex
ENCODING 251
SWIDTH 795 0
DWIDTH 22 0
BBX 21 30 1 -1
BITMAP
00000000892A0000000000
00000001EE2D3000000000
00000006A9779000000000
0000000C43D1E100000000
0000003D26C4A600000000
00000097796A4C00000000
000000C2B31D1C20000000
0000000000000000000000
0000000000000000000000
9191A0A000000829191910
D2E1E1F000000C3D2D2E10
D2E1E1F000000C3D2D2E10
D2E1E1F000000C3D2D2E10
D2E1E1F000000C3D2D2E10
D2E1E1F000000C3D2D2E10
D2E1E1F000000C3D2D2E10
D2E1E1F000000C3D2D2E10
D2E1E1F000000C3D2D2E10
D2E1E1F000000C3D2D2E10
D2E1E1F000000C3D2D2E10
D2D2E1E100000D2D2E1E10
B3C4C3B600003E1E1F1E00
96887A3E6004D57A5B3C00
4B3E1D63BFFC54E2B58700
0C48A2DA30128D47B2E100
04D2BA27CFFD828D2C7000
007C28D831126DA2AA0000
0008D439DFFDA42CA10000
00004CB620025AD6000000
00000049CEEDA510000000
ENDCHAR
STARTCHAR udieresis
ENCODING 252
SWIDTH 795 0
DWIDTH 22 0
BBX 21 26 1 -1
BITMAP
0006574740029293800000
000869695003C3C4B00000
000869695003C3C4B00000
0003232320014141400000
0000000000000000000000
9191A0A000000829191910
D2E1E1F000000C3D2D2E10
D2E1E1F000000C3D2D2E10
D2E1E1F000000C3D2D2E10
D2E1E1F000000C3D2D2E10
D2E1E1F000000C3D2D2E10
D2E1E1F000000C3D2D2E10
D2E1E1F000000C3D2D2E10
D2E1E1F000000C3D2D2E10
D2E1E1F000000C3D2D2E10
D2E1E1F000000C3D2D2E10
D2D2E1E100000D2D2E1E10
B3C4C3B600003E1E1F1E00
96887A3E6004D57A5B3C00
4B3E1D63BFFC54E2B58700
0C48A2DA30128D47B2E100
04D2BA27CFFD828D2C7000
007C28D831126DA2AA0000
0008D439DFFDA42CA10000
00004CB620025AD6000000
00000049CEEDA510000000
ENDCHAR
STARTCHAR yacute
ENCODING 253
SWIDTH 733 0
DWIDTH 21 0
BBX 20 29 0 0
BITMAP
00000000000000004300
000000000000004BD500
0000000000004CC528D2
00000000005CC529E920
000000005CC429E81000
000000006429E8100000
0000000003D710000000
00000000000000000000
00000000000000000000
46464646000009191919
1D2D2D2D20005A596968
07878796A000C3C3D2D2
01D2D2D2C304B5A5A690
0078696A4C0B3C3C3C20
001D2D2C3B5B4B4A5A00
000686A5B1B4B4B3C300
0000D2C3C5C3C4B4B000
0000685B2A5A5B4B4000
00000D2C4D3C3C3C0000
000006939695A5A40000
000000D3D2D2C3C00000
0000006E79696A500000
0000000F1E1E1E000000
0000000E0F0F1E000000
0000000E0F0F1E000000
0000000E0F0F1E000000
0000000E0F0F1E000000
0000000E0F0F1E000000
0000000E0F0F1E000000
ENDCHAR
STARTCHAR thorn
ENCODING 254
SWIDTH 833 0
DWIDTH 23 0
BBX 22 26 1 -3
BITMAP
7372828200000000000000
B4B4C3C300000000000000
B4B4C3C300000000000000
B4B4C3C300000000000000
B4B4C3C300000000000000
B4B4C3C300000000000000
B4B4C3C0BBBBBA97300000
B4B4C3C244444469EB2000
B4B4C3C0BBBBBBA618E300
B4B4C3C24444445AD46E20
B4B4C3C0BBBBBBA43D3A90
B4B4C3C23333346D84D2E0
B4B4C3C0CCCCCC92D2C3C4
B4B4C3C2333333B69696A5
B4B4C3C2444444C69696A5
B4B4C3C0BBBBBB73E2D3C3
B4B4C3C24444458E56C3D0
B4B4C3C0AAAAAA825E2A70
B4B4C3C15555557BC28C00
B4B4C3C0AAAAAA852AC100
B4B4C3C15555567AE80000
B4B4C3C199999985100000
B4B4C3C300000000000000
B4B4C3C300000000000000
B4B4C3C300000000000000
A4B3B3C200000000000000
ENDCHAR
STARTCHAR ydieresis
ENCODING 255
SWIDTH 733 0
DWIDTH 21 0
BBX 20 25 0 0
BITMAP
000475656000B0B1A000
000696878000F0E1E000
000696878000F0E1E000
00023232300050505000
00000000000000000000
46464646000009191919
1D2D2D2D20005A596968
07878796A000C3C3D2D2
01D2D2D2C304B5A5A690
0078696A4C0B3C3C3C20
001D2D2C3B5B4B4A5A00
000686A5B1B4B4B3C300
0000D2C3C5C3C4B4B000
0000685B2A5A5B4B4000
00000D2C4D3C3C3C0000
000006939695A5A40000
000000D3D2D2C3C00000
0000006E79696A500000
0000000F1E1E1E000000
0000000E0F0F1E000000
0000000E0F0F1E000000
0000000E0F0F1E000000
0000000E0F0F1E000000
0000000E0F0F1E000000
0000000E0F0F1E000000
ENDCHAR
STARTCHAR Amacron
ENCODING 256
SWIDTH 936 0
DWIDTH 26 0
BBX 26 23 0 0
BITMAP
00000000076372819000000000
000000001ED1E1D2C400000000
0000000079B596886A00000000
00000000D35B3C2E1E10000000
00000003C25E2D3B5970000000
0000000968888795B3D0000000
0000001E1E23D1E1E2C4000000
0000006A5B37C4A6886A000000
000000C4B5976A4C2E1E100000
000003D2E1E13E1D3B59600000
0000097786A4997795B3C00000
00001E1D2C4A63D1E1E2D30000
00006A4C2D1E10C4A688790000
0000C4A68779006A4C2D1E1000
0003D1E1E2D3001E1D3C4A6000
00097795B3C699997786A4C000
001E2D3B59655554D2E1E2D300
006A4C2D1E5AAAA7C4B5977900
00C4A6886A3555556A5B3D2E10
02D1E1E2C6AAAAAA6E1D2C4A60
088795B3D2444444396886A4C0
0E2D3B597000000004C2E1E1D3
5B3C2E1E1000000000D3B59779
ENDCHAR
STARTCHAR amacron
ENCODING 257
SWIDTH 832 0
DWIDTH 23 0
BBX 23 22 0 -1
BITMAP
000000000134210000000000
00000028DECBCEC710000000
000019E721343138E8000000
0001CB16CEBBCEC52BB10000
001C82CA3144315BB29B0000
009B2E63BEBACE927D1B8000
02D1D65E6145317D47B2E100
0976A3E27EBACE63D2B59700
0D2C4B57C20003D6794B3B00
1D1E1E1E2000003E1E1E1E00
3C3C4B4B0000000D2D2D2D10
3B4B4B5A0000000B3C3C3D20
2D3D3C3D0000000B4C3C3D20
0E1E1E2C5000000B4C3C3D20
0B5977A3D831365B4C3C3D20
05C2D2B917BDB82B4C3C3D20
00C65C29D843586B4C3C3D20
002E46D527ABA61B4C3C3D20
0004E63BD9657A7B4C3C3D20
00002CB32699851B4C3C3D20
0000006CD9767B7B4C3C3D20
000000002578740000000000
ENDCHAR
STARTCHAR Abreve
ENCODING 258
SWIDTH 936 0
DWIDTH 26 0
BBX 26 29 0 0
BITMAP
00000000042200133100000000
000000000D4B44A6C100000000
0000000005B478498000000000
00000000004BBBB60000000000
00000000000000000000000000
00000000000000000000000000
00000000076372819000000000
000000001ED1E1D2C400000000
0000000079B596886A00000000
00000000D35B3C2E1E10000000
00000003C25E2D3B5970000000
0000000968888795B3D0000000
0000001E1E23D1E1E2C4000000
0000006A5B37C4A6886A000000
000000C4B5976A4C2E1E100000
000003D2E1E13E1D3B59600000
0000097786A4997795B3C00000
00001E1D2C4A63D1E1E2D30000
00006A4C2D1E10C4A688790000
0000C4A68779006A4C2D1E1000
0003D1E1E2D3001E1D3C4A6000
00097795B3C699997786A4C000
001E2D3B59655554D2E1E2D300
006A4C2D1E5AAAA7C4B5977900
00C4A6886A3555556A5B3D2E10
02D1E1E2C6AAAAAA6E1D2C4A60
088795B3D2444444396886A4C0
0E2D3B597000000004C2E1E1D3
5B3C2E1E1000000000D3B59779
ENDCHAR
STARTCHAR abreve
ENCODING 259
SWIDTH 832 0
DWIDTH 23 0
BBX 23 27 0 -1
BITMAP
000000041300042200000000
0000000A4C53899400000000
00000003C46856B000000000
000000002ABBC71000000000
000000000000000000000000
000000000134210000000000
00000028DECBCEC710000000
000019E721343138E8000000
0001CB16CEBBCEC52BB10000
001C82CA3144315BB29B0000
009B2E63BEBACE927D1B8000
02D1D65E6145317D47B2E100
0976A3E27EBACE63D2B59700
0D2C4B57C20003D6794B3B00
1D1E1E1E2000003E1E1E1E00
3C3C4B4B0000000D2D2D2D10
3B4B4B5A0000000B3C3C3D20
2D3D3C3D0000000B4C3C3D20
0E1E1E2C5000000B4C3C3D20
0B5977A3D831365B4C3C3D20
05C2D2B917BDB82B4C3C3D20
00C65C29D843586B4C3C3D20
002E46D527ABA61B4C3C3D20
0004E63BD9657A7B4C3C3D20
00002CB32699851B4C3C3D20
0000006CD9767B7B4C3C3D20
000000002578740000000000
ENDCHAR
STARTCHAR Aogonek
ENCODING 260
SWIDTH 937 0
DWIDTH 26 0
BBX 26 32 0 -9
BITMAP
00000000058191909100000000
000000000DE2D3B59700000000
000000004C88795B3D00000000
00000000A62D1E1E2C40000000
00000001E16C4A6886A0000000
0000000795A6A4C2E1E1000000
0000000D3B51E2D3B596000000
0000003C2E1997795B3C000000
00000096886A3D1E1E2D300000
000001E1D2C43C4A6887900000
000006A5B3D1C6A4C2D1E10000
00000C4B597791E1D3C4A60000
00003D2E1E1D3097786A4C0000
000097786A4C003D2E1E2D3000
0001E1D3C4A6000C4B59779000
0006A4C2D1E59997A5B3D1E100
000C4A6877945553E1D2C4A600
003D1E1E2D6AAAA996886A4C00
0097795B3C2555554C2E1E1D30
01E2D3B597AAAAAA7D3B597790
06A4C2E1E24444444795B3D2E0
0C4A6886A000000001E1E2C4B5
2D1E1E2C4000000000A6886A5B
00000000018CE2000000000000
000000001D9310000000000000
00000000791AE3000000000000
00000000A59910000000000000
00000000B4C310000000000000
00000000B4C3C3000000000000
00000000B4C3C3000000000000
00000000B4C3C3000000000000
00000000A3A3B2000000000000
ENDCHAR
STARTCHAR aogonek
ENCODING 261
SWIDTH 832 0
DWIDTH 23 0
BBX 23 30 0 -9
BITMAP
000000000134210000000000
00000028DECBCEC710000000
000019E721343138E8000000
0001CB16CEBBCEC52BB10000
001C82CA3144315BB29B0000
009B2E63BEBACE927D1B8000
02D1D65E6145317D47B2E100
0976A3E27EBACE63D2B59700
0D2C4B57C20003D6794B3B00
1D1E1E1E2000003E1E1E1E00
3C3C4B4B0000000D2D2D2D10
3B4B4B5A0000000B3C3C3D20
2D3D3C3D0000000B4C3C3D20
0E1E1E2C5000000B4C3C3D20
0B5977A3D831365B4C3C3D20
05C2D2B917BDB82B4C3C3D20
00C65C29D843586B4C3C3D20
002E46D527ABA61B4C3C3D20
0004E63BD9657A7B4C3C3D20
00002CB32699851B4C3C3D20
0000006CD9767B7B4C3C3D20
000000009FFD740000000000
0000000AB410000000000000
0000004C08E6000000000000
000000785C20000000000000
000000878710000000000000
000000878696000000000000
000000878696000000000000
000000878696000000000000
000000767685000000000000
ENDCHAR
STARTCHAR Cacute
ENCODING 262
SWIDTH 852 0
DWIDTH 24 0
BBX 24 33 0 -1
BITMAP
000000000000000000051000
000000000000000005DB3000
0000000000000006DB42AC00
00000000000006DB33AE7100
000000000006DA33AD710000
00000000000733BD60000000
0000000000005D6000000000
000000000000000000000000
000000000157898520000000
00000003BEA8667AEC500000
000001AD6158998514CC2000
00003D829EB7657AEA27E400
0002E53D9148AA8417E53E40
001C65D34DC8657BD53D64E1
00892D28D427AA833CA2D420
01E2C56C29D8557DA1B92100
0796B3E2BA1000008C140000
0C4B5A77B000000006100000
0E1E1E1E2000000000000000
2D3D3D3C0000000000000000
3C4B4B5A0000000000000000
2C3C4C4B0000000000000000
1E1E1E1E0000000000000000
0D2D3C5A7000000001000000
097885C2D40000003D200000
03D2E2A83D820028E46B0000
00B66C1C918DEED827D2A500
003E29A1AD721126CB29B2B1
0006D18C34ADFEDA42CB2C70
00007D35DB6210149E62C900
000005E816ADFFEB617E6000
00000019E95210148DB20000
0000000016ACEEDB72000000
ENDCHAR
STARTCHAR cacute
ENCODING 263
SWIDTH 736 0
DWIDTH 21 0
BBX 21 30 0 -1
BITMAP
0000000000000000024000
00000000000000029E8000
000000000000029E716D50
000000000002AE716DB300
0000000003AD717DA30000
0000000003617EA3000000
00000000000C9200000000
0000000000000000000000
00000000278A9740000000
0000005DD86568CE700000
00001BC4269A9723BC3000
0002D72AE96568DB35E300
001D64E7169B9616E64A00
00983E35EA6459E72D4000
02E1D47D249BA52B910000
0877A4D2AC645BB1300000
0D2C3B58A0000062000000
1E2E1E1E10000000000000
3C3C3B4B00000000000000
3C4B4B5A00000000000000
2D2D2D2D00000000000000
0E1E2D3B70000020000000
0A5976B2D81017E2000000
05C2E2B929EEEA27A00000
00C57C1AC51114BC293000
003E28C24AEEEB62BA2600
0005D36E9410149E72D700
00004E716BEFEC726E6000
000002AD8420237DC20000
000000027BDEEC94000000
ENDCHAR
STARTCHAR Cdotaccent
ENCODING 266
SWIDTH 852 0
DWIDTH 24 0
BBX 24 31 0 -1
BITMAP
00000000004AAAA500000000
000000000025555300000000
00000000004AAAA500000000
000000000025555200000000
00000000004BBBB600000000
000000000024444200000000
000000000157898520000000
00000003BEA8667AEC500000
000001AD6158998514CC2000
00003D829EB7657AEA27E400
0002E53D9148AA8417E53E40
001C65D34DC8657BD53D64E1
00892D28D427AA833CA2D420
01E2C56C29D8557DA1B92100
0796B3E2BA1000008C140000
0C4B5A77B000000006100000
0E1E1E1E2000000000000000
2D3D3D3C0000000000000000
3C4B4B5A0000000000000000
2C3C4C4B0000000000000000
1E1E1E1E0000000000000000
0D2D3C5A7000000001000000
097885C2D40000003D200000
03D2E2A83D820028E46B0000
00B66C1C918DEED827D2A500
003E29A1AD721126CB29B2B1
0006D18C34ADFEDA42CB2C70
00007D35DB6210149E62C900
000005E816ADFFEB617E6000
00000019E95210148DB20000
0000000016ACEEDB72000000
ENDCHAR
STARTCHAR cdotaccent
ENCODING 267
SWIDTH 736 0
DWIDTH 21 0
BBX 20 28 0 -1
BITMAP
0000000008AAAA000000
00000000055555000000
0000000009AAAA000000
00000000045555000000
0000000009BBBB000000
00000000044444000000
00000000278A97400000
0000005DD86568CE7000
00001BC4269A9723BC30
0002D72AE96568DB35E3
001D64E7169B9616E64A
00983E35EA6459E72D40
02E1D47D249BA52B9100
0877A4D2AC645BB13000
0D2C3B58A00000620000
1E2E1E1E100000000000
3C3C3B4B000000000000
3C4B4B5A000000000000
2D2D2D2D000000000000
0E1E2D3B700000200000
0A5976B2D81017E20000
05C2E2B929EEEA27A000
00C57C1AC51114BC2930
003E28C24AEEEB62BA26
0005D36E9410149E72D7
00004E716BEFEC726E60
000002AD8420237DC200
000000027BDEEC940000
ENDCHAR
STARTCHAR Ccaron
ENCODING 268
SWIDTH 852 0
DWIDTH 24 0
BBX 24 33 0 -1
BITMAP
000000000B1A20B1A2000000
000000000A6876A4C0000000
0000000004C37B5A60000000
0000000000D33D1E10000000
000000000078886900000000
00000000002EE2C300000000
00000000000AA3C000000000
000000000000000000000000
000000000157898520000000
00000003BEA8667AEC500000
000001AD6158998514CC2000
00003D829EB7657AEA27E400
0002E53D9148AA8417E53E40
001C65D34DC8657BD53D64E1
00892D28D427AA833CA2D420
01E2C56C29D8557DA1B92100
0796B3E2BA1000008C140000
0C4B5A77B000000006100000
0E1E1E1E2000000000000000
2D3D3D3C0000000000000000
3C4B4B5A0000000000000000
2C3C4C4B0000000000000000
1E1E1E1E0000000000000000
0D2D3C5A7000000001000000
097885C2D40000003D200000
03D2E2A83D820028E46B0000
00B66C1C918DEED827D2A500
003E29A1AD721126CB29B2B1
0006D18C34ADFEDA42CB2C70
00007D35DB6210149E62C900
000005E816ADFFEB617E6000
00000019E95210148DB20000
0000000016ACEEDB72000000
ENDCHAR
STARTCHAR ccaron
ENCODING 269
SWIDTH 736 0
DWIDTH 21 0
BBX 20 30 0 -1
BITMAP
00000005647066470000
00000002D1E1D3B50000
00000000B495C2E00000
000000005A0A68800000
000000000E2E1D200000
0000000009D95B000000
0000000003E3A5000000
00000000000000000000
00000000278A97400000
0000005DD86568CE7000
00001BC4269A9723BC30
0002D72AE96568DB35E3
001D64E7169B9616E64A
00983E35EA6459E72D40
02E1D47D249BA52B9100
0877A4D2AC645BB13000
0D2C3B58A00000620000
1E2E1E1E100000000000
3C3C3B4B000000000000
3C4B4B5A000000000000
2D2D2D2D000000000000
0E1E2D3B700000200000
0A5976B2D81017E20000
05C2E2B929EEEA27A000
00C57C1AC51114BC2930
003E28C24AEEEB62BA26
0005D36E9410149E72D7
00004E716BEFEC726E60
000002AD8420237DC200
000000027BDEEC940000
ENDCHAR
STARTCHAR Dcaron
ENCODING 270
SWIDTH 886 0
DWIDTH 25 0
BBX 23 32 1 0
BITMAP
000000056470664700000000
00000002D1E1D3B500000000
00000000B495C2E000000000
000000005A0A688000000000
000000000E2E1D2000000000
0000000009D95B0000000000
0000000003E3A50000000000
000000000000000000000000
000000000000000000000000
7AAAAAAAAAAAA97300000000
B85555555555568DD5000000
B48AAAAAAAAAA9724DA00000
B4C755555555558EA1AB0000
B4C38BBBBBBBB9619C2A9000
B4C3C644444446AD37C1D400
B4C3C39BBBBBBA44E2B76C00
B4C3C3C6444446D66B2E1D30
B4C3C3C20000002E2C4B6980
B4C3C3C2000000098796A5B0
B4C3C3C200000005B4B4C3D0
B4C3C3C200000003D2D2D2E0
B4C3C3C200000004C3C3D2D0
B4C3C3C20000000795A5B4B0
B4C3C3C20000000D4A598780
B4C3C3C2000001AA3E1E3C40
B4C3C3CEDDDDDE92C57B3D00
B4C3C3111111114D73E2B600
B4C3CEEEEEEEEEB43E56C000
B4C3111111111039E45E2000
B4CEEEEEEEEEEFC828D20000
B400000000000137DA100000
BFFFFFFFFFFFFEC830000000
ENDCHAR
STARTCHAR dcaron
ENCODING 271
SWIDTH 1084 0
DWIDTH 30 0
BBX 29 21 1 0
BITMAP
000000000000000000000007786860
7AAAAAAAAAAA973000000008787960
B7444444444558CD50000008787960
B48BBBBBBBBBA724D9000008787960
B4B74444444469E91AB00000096960
B4B49BBBBBBBA619D2B800003D3A50
B4B4C64444445AD37C1D3007C61E20
B4B4C3ACCCCCA34E2B76A00125C800
B4B4C3C533336E56B3E1E107DA5000
B4B4C3C3000003E1E2D3B400000000
B4B4C3C3000000C4B5B5A500000000
B4B4C3C3000000B5A5A59500000000
B4B4C3C3000001E2D3C4B400000000
B4B4C3C300001B93D2E1E100000000
B4B4C3CEDDDEE82D5894C000000000
B4B4C311111115D73E2B5000000000
B4B4CEEEEEEEEB44D47C0000000000
B4B41111111114AD35E20000000000
B4BEEEEEEEEEFC718D300000000000
B40000000000137D91000000000000
BFFFFFFFFFFFEC8200000000000000
ENDCHAR
STARTCHAR Dcroat
ENCODING 272
SWIDTH 888 0
DWIDTH 25 0
BBX 26 23 -2 0
BITMAP
0007AAAAAAAAAAAA9740000000
000B85555555555568DD500000
000B48AAAAAAAAAA9724DA1000
000B4B755555555558EA1AB000
000B4B48BBBBBBBB9619C2A900
000B4B4C644444446AD37C1D40
000B4B4C39BBBBBBA44E3B76C0
000B4B4C3C6444446D66C2E1D3
000B4B4C3C30000002E2C4B698
5D9B4B4C3C1DDD000098796A5B
121B4B4C3C222200004C4B3D3D
5D9B4B4C3C1DDD00003D2D2E2E
011B4B4C3C211100004C3C3D2D
5EAB4B4C3C7EEE0000795A4B4C
011B4B4C3C31110000D4A69879
000B4B4C3C30000019A2E1E3C4
000B4B4C3CEDDDDDE92C67B3D0
000B4B4C3111111114D73E2B60
000B4B4CEEEEEEEEEB43E56C00
000B4B4111111111039E45E200
000B4BEEEEEEEEEEFC828D3000
000B400000000000137DA10000
000BFFFFFFFFFFFFEC83000000
ENDCHAR
STARTCHAR dcroat
ENCODING 273
SWIDTH 833 0
DWIDTH 23 0
BBX 25 20 -2 0
BITMAP
0008AAAAAAAAAAA97300000000
000B7444444444558CD5000000
000B48BBBBBBBBBA724D900000
000B4C64444444469E91AB0000
000B4C39BBBBBBBA619C2B8000
000B4C3C64444445AD37B1D300
000B4C3C3ACCCCCA34E2B76A00
000B4C3C3C533336E56B3D1E10
254B4C3C3C1555003E1E2D3C40
3A7B4C3C3C0AAA000C4B4B5A50
264B4C3C3C4666000B4A5A5A50
397B4C3C3C5999001E2D3C4B40
000B4C3C3C200002B94D2E1E10
000B4C3C3CEDDDEE82D5894B00
000B4C3C311111115D73D2C500
000B4C3CEEEEEEEEB44E47C000
000B4C31111111114AD35D2000
000B4CEEEEEEEEEFC719D30000
000B40000000000137D9100000
000BFFFFFFFFFFFEC820000000
ENDCHAR
STARTCHAR Emacron
ENCODING 274
SWIDTH 706 0
DWIDTH 20 0
BBX 18 23 1 0
BITMAP
7272828AAAAAAAAAA6
B4C3C3C75555555553
B4C3C3CBAAAAAAAAA6
B4C3C3C65555555553
B4C3C3CBBBBBBBBBB7
B4C3C3C64444444443
B4C3C3C20000000000
B4C3C3C20000000000
B4C3C3C20000000000
B4C3C3CCCCCC600000
B4C3C3C53333200000
B4C3C3CDCCCC600000
B4C3C3C53333100000
B4C3C3CDDDDD700000
B4C3C3C42222100000
B4C3C3C20000000000
B4C3C3C20000000000
B4C3C3C20000000000
B4C3C3CEEEEEEEEEE9
B4C3C3C31111111111
B4C3C3CEEEEEEEEEE9
B4C3C3C30000000000
B4C3C3CFFFFFFFFFF9
ENDCHAR
STARTCHAR emacron
ENCODING 275
SWIDTH 666 0
DWIDTH 19 0
BBX 17 20 1 0
BITMAP
8382829AAAAAAAAA60
B4C3C3C64444444430
B4C3C3CBBBBBBBBB60
B4C3C3C64444444420
B4C3C3CCBBBBBBBB70
B4C3C3C54444444420
B4C3C3C20000000000
B4C3C3C65555555500
B4C3C3CBAAAAAAAA00
B4C3C3C75555555500
B4C3C3CAAAAAAAAA00
B4C3C3C76666666600
B4C3C3CA9999999900
B4C3C3C20000000000
B4C3C3C20000000000
B4C3C3CEEEEEEEEE80
B4C3C3C31111111110
B4C3C3CEEEEEEEEE80
B4C3C3C30000000000
B4C3C3CFFFFFFFFF90
ENDCHAR
STARTCHAR Ebreve
ENCODING 276
SWIDTH 706 0
DWIDTH 20 0
BBX 18 29 1 0
BITMAP
000013310013400000
00001C5A44B4D00000
00000894874A600000
0000005BBBB4000000
000000000000000000
000000000000000000
7272828AAAAAAAAAA6
B4C3C3C75555555553
B4C3C3CBAAAAAAAAA6
B4C3C3C65555555553
B4C3C3CBBBBBBBBBB7
B4C3C3C64444444443
B4C3C3C20000000000
B4C3C3C20000000000
B4C3C3C20000000000
B4C3C3CCCCCC600000
B4C3C3C53333200000
B4C3C3CDCCCC600000
B4C3C3C53333100000
B4C3C3CDDDDD700000
B4C3C3C42222100000
B4C3C3C20000000000
B4C3C3C20000000000
B4C3C3C20000000000
B4C3C3CEEEEEEEEEE9
B4C3C3C31111111111
B4C3C3CEEEEEEEEEE9
B4C3C3C30000000000
B4C3C3CFFFFFFFFFF9
ENDCHAR
STARTCHAR ebreve
ENCODING 277
SWIDTH 666 0
DWIDTH 19 0
BBX 17 26 1 0
BITMAP
000031300042300000
000085B637A7600000
00002C46855C100000
0000029BBC81000000
000000000000000000
000000000000000000
8382829AAAAAAAAA60
B4C3C3C64444444430
B4C3C3CBBBBBBBBB60
B4C3C3C64444444420
B4C3C3CCBBBBBBBB70
B4C3C3C54444444420
B4C3C3C20000000000
B4C3C3C65555555500
B4C3C3CBAAAAAAAA00
B4C3C3C75555555500
B4C3C3CAAAAAAAAA00
B4C3C3C76666666600
B4C3C3CA9999999900
B4C3C3C20000000000
B4C3C3C20000000000
B4C3C3CEEEEEEEEE80
B4C3C3C31111111110
B4C3C3CEEEEEEEEE80
B4C3C3C30000000000
B4C3C3CFFFFFFFFF90
ENDCHAR
STARTCHAR Edotaccent
ENCODING 278
SWIDTH 706 0
DWIDTH 20 0
BBX 18 30 1 0
BITMAP
0000006BBBB5000000
000000244441000000
0000006CCCC5000000
000000233331000000
0000006CCCC5000000
000000133331000000
000000000000000000
7272828AAAAAAAAAA6
B4C3C3C75555555553
B4C3C3CBAAAAAAAAA6
B4C3C3C65555555553
B4C3C3CBBBBBBBBBB7
B4C3C3C64444444443
B4C3C3C20000000000
B4C3C3C20000000000
B4C3C3C20000000000
B4C3C3CCCCCC600000
B4C3C3C53333200000
B4C3C3CDCCCC600000
B4C3C3C53333100000
B4C3C3CDDDDD700000
B4C3C3C42222100000
B4C3C3C20000000000
B4C3C3C20000000000
B4C3C3C20000000000
B4C3C3CEEEEEEEEEE9
B4C3C3C31111111111
B4C3C3CEEEEEEEEEE9
B4C3C3C30000000000
B4C3C3CFFFFFFFFFF9
ENDCHAR
STARTCHAR edotaccent
ENCODING 279
SWIDTH 666 0
DWIDTH 19 0
BBX 17 27 1 0
BITMAP
000000BBBBA0000000
000000444430000000
000000CCCCA0000000
000000333330000000
000000CCCCB0000000
000000333320000000
000000000000000000
8382829AAAAAAAAA60
B4C3C3C64444444430
B4C3C3CBBBBBBBBB60
B4C3C3C64444444420
B4C3C3CCBBBBBBBB70
B4C3C3C54444444420
B4C3C3C20000000000
B4C3C3C65555555500
B4C3C3CBAAAAAAAA00
B4C3C3C75555555500
B4C3C3CAAAAAAAAA00
B4C3C3C76666666600
B4C3C3CA9999999900
B4C3C3C20000000000
B4C3C3C20000000000
B4C3C3CEEEEEEEEE80
B4C3C3C31111111110
B4C3C3CEEEEEEEEE80
B4C3C3C30000000000
B4C3C3CFFFFFFFFF90
ENDCHAR
STARTCHAR Eogonek
ENCODING 280
SWIDTH 706 0
DWIDTH 20 0
BBX 18 31 1 -8
BITMAP
7282828AAAAAAAAAA6
B4C3C3D75555555553
B4C3C3DBAAAAAAAAA6
B4C3C3D65555555553
B4C3C3DBBBBBBBBBB7
B4C3C3D64444444443
B4C3C3D20000000000
B4C3C3D20000000000
B4C3C3D20000000000
B4C3C3DCCCCC600000
B4C3C3D53333200000
B4C3C3DDCCCC600000
B4C3C3D43333100000
B4C3C3DDDDDD700000
B4C3C3D42222100000
B4C3C3D20000000000
B4C3C3D20000000000
B4C3C3D20000000000
B4C3C3DEEEEEEEEEE9
B4C3C3D31111111111
B4C3C3DEEEEEEEEEE9
B4C3C3D20000000000
B4C3C3DFFFFFFFFFFF
00000000000008C510
0000000000001E16D8
0000000000004B2D30
0000000000005A5901
0000000000005A6969
0000000000005A6969
0000000000005A6969
000000000000585858
ENDCHAR
STARTCHAR eogonek
ENCODING 281
SWIDTH 666 0
DWIDTH 19 0
BBX 17 28 1 -8
BITMAP
8382829AAAAAAAAA60
B4C3C3C64444444430
B4C3C3CBBBBBBBBB60
B4C3C3C64444444420
B4C3C3CCBBBBBBBB70
B4C3C3C54444444420
B4C3C3C20000000000
B4C3C3C65555555500
B4C3C3CBAAAAAAAA00
B4C3C3C75555555500
B4C3C3CAAAAAAAAA00
B4C3C3C76666666600
B4C3C3CA9999999900
B4C3C3C20000000000
B4C3C3C20000000000
B4C3C3CEEEEEEEEE80
B4C3C3C31111111110
B4C3C3CEEEEEEEEE80
B4C3C3C30000000000
B4C3C3CFFFFFFFFFF0
0000000000008C4100
000000000001E16D80
000000000004B3D300
000000000005969010
000000000005969680
000000000005969680
000000000005969680
000000000005858670
ENDCHAR
STARTCHAR Ecaron
ENCODING 282
SWIDTH 706 0
DWIDTH 20 0
BBX 18 32 1 0
BITMAP
00001A1B12A1A10000
00000C4A6795A00000
000006A46D3B400000
000001E15C2D000000
00000097A687000000
0000003DE1E2000000
0000000C95A0000000
000000000000000000
000000000000000000
7272828AAAAAAAAAA6
B4C3C3C75555555553
B4C3C3CBAAAAAAAAA6
B4C3C3C65555555553
B4C3C3CBBBBBBBBBB7
B4C3C3C64444444443
B4C3C3C20000000000
B4C3C3C20000000000
B4C3C3C20000000000
B4C3C3CCCCCC600000
B4C3C3C53333200000
B4C3C3CDCCCC600000
B4C3C3C53333100000
B4C3C3CDDDDD700000
B4C3C3C42222100000
B4C3C3C20000000000
B4C3C3C20000000000
B4C3C3C20000000000
B4C3C3CEEEEEEEEEE9
B4C3C3C31111111111
B4C3C3CEEEEEEEEEE9
B4C3C3C30000000000
B4C3C3CFFFFFFFFFF9
ENDCHAR
STARTCHAR ecaron
ENCODING 283
SWIDTH 666 0
DWIDTH 19 0
BBX 17 29 1 0
BITMAP
000074660746500000
00005B3D1E1D200000
00000E2A6A4B000000
00000880C4A5000000
000002D3D2E0000000
000000BD7790000000
0000005E1C30000000
000000000000000000
000000000000000000
8382829AAAAAAAAA60
B4C3C3C64444444430
B4C3C3CBBBBBBBBB60
B4C3C3C64444444420
B4C3C3CCBBBBBBBB70
B4C3C3C54444444420
B4C3C3C20000000000
B4C3C3C65555555500
B4C3C3CBAAAAAAAA00
B4C3C3C75555555500
B4C3C3CAAAAAAAAA00
B4C3C3C76666666600
B4C3C3CA9999999900
B4C3C3C20000000000
B4C3C3C20000000000
B4C3C3CEEEEEEEEE80
B4C3C3C31111111110
B4C3C3CEEEEEEEEE80
B4C3C3C30000000000
B4C3C3CFFFFFFFFF90
ENDCHAR
STARTCHAR Gbreve
ENCODING 286
SWIDTH 908 0
DWIDTH 25 0
BBX 25 30 0 -1
BITMAP
00000000042100133100000000
000000000D4B44A6C100000000
0000000006B478498000000000
00000000004BBBB50000000000
00000000000000000000000000
00000000015789852000000000
00000003BEA8667AEC50000000
000001AD6158998514CC200000
00003D829EB7657AEA27E40000
0002E53D9148AA8417E53E4000
001C65D34DC8657BD53D64E100
00892D28D427AA833CA2D42000
01E2C56C29D8557DA1B9210000
0796B3E2BA1000008C14000000
0C4B5A77B00000000610000000
0E1E1E1E200000000000000000
2D3D3D3C000000000000000000
3C4B4B5A000000000858484930
2C3C3B4B00000000096A5A5B40
1E2D2D1E00000000096A5A5B40
0E2D2D3B50000000096A5A5B40
096977A3D2000000096A5A5B40
04C2D1D55E7200138E6A5A5B40
00C5892D629DEEEC8B6A5A5B40
004D2B82BC5101138E6A5A5B40
0008B1BB24ADEEEC8B6A5A5B40
00009C27EA5201137D6A5A5B40
000007E716ADFFEC8B6A5A5B40
0000002AE94211247D6A5A5B40
0000000027BDEEDB8400000000
ENDCHAR
STARTCHAR gbreve
ENCODING 287
SWIDTH 827 0
DWIDTH 23 0
BBX 22 27 0 -1
BITMAP
0000000314000313000000
000000067A736C58000000
00000001C55864C2000000
0000000018BBB920000000
0000000000000000000000
00000000278A9740000000
0000005DD86568CE700000
00001BC4269A9723BC3000
0002D72AE96568DB35E300
001D64E7169B9616E64A00
00983E35EA6459E72D4000
02E1D47D249BA52B910000
0877A4D2AC645BB1300000
0D2C3B58A0000062000000
1E2E1E1E10000000000000
3C3C3B4B00000000000000
3C4B4B5A0000000D2D1E1E
2D2D2D2D0000000D2E1E1F
0E1E2D3B7000000D2E1E1F
0A5976B2D81003AF2E1E1F
05C2E2B929EEEC6D2E1E1F
00C57C1AC511139F2E1E1F
003E28C24AEEEC7E2E1E1F
0005D36E9410138E2E1E1F
00004E716BEFEC8E2E1E1F
000002AD8420137E2E1E1F
000000027BDEDC83000000
ENDCHAR
STARTCHAR Gdotaccent
ENCODING 288
SWIDTH 908 0
DWIDTH 25 0
BBX 25 31 0 -1
BITMAP
00000000004AAAA50000000000
00000000002555530000000000
00000000004AAAA50000000000
00000000002555520000000000
00000000004BBBB60000000000
00000000002444420000000000
00000000015789852000000000
00000003BEA8667AEC50000000
000001AD6158998514CC200000
00003D829EB7657AEA27E40000
0002E53D9148AA8417E53E4000
001C65D34DC8657BD53D64E100
00892D28D427AA833CA2D42000
01E2C56C29D8557DA1B9210000
0796B3E2BA1000008C14000000
0C4B5A77B00000000610000000
0E1E1E1E200000000000000000
2D3D3D3C000000000000000000
3C4B4B5A000000000858484930
2C3C3B4B00000000096A5A5B40
1E2D2D1E00000000096A5A5B40
0E2D2D3B50000000096A5A5B40
096977A3D2000000096A5A5B40
04C2D1D55E7200138E6A5A5B40
00C5892D629DEEEC8B6A5A5B40
004D2B82BC5101138E6A5A5B40
0008B1BB24ADEEEC8B6A5A5B40
00009C27EA5201137D6A5A5B40
000007E716ADFFEC8B6A5A5B40
0000002AE94211247D6A5A5B40
0000000027BDEEDB8400000000
ENDCHAR
STARTCHAR gdotaccent
ENCODING 289
SWIDTH 827 0
DWIDTH 23 0
BBX 22 28 0 -1
BITMAP
0000000008AAAA00000000
0000000005555500000000
0000000009AAAA00000000
0000000004555500000000
0000000009BBBB00000000
0000000004444400000000
00000000278A9740000000
0000005DD86568CE700000
00001BC4269A9723BC3000
0002D72AE96568DB35E300
001D64E7169B9616E64A00
00983E35EA6459E72D4000
02E1D47D249BA52B910000
0877A4D2AC645BB1300000
0D2C3B58A0000062000000
1E2E1E1E10000000000000
3C3C3B4B00000000000000
3C4B4B5A0000000D2D1E1E
2D2D2D2D0000000D2E1E1F
0E1E2D3B7000000D2E1E1F
0A5976B2D81003AF2E1E1F
05C2E2B929EEEC6D2E1E1F
00C57C1AC511139F2E1E1F
003E28C24AEEEC7E2E1E1F
0005D36E9410138E2E1E1F
00004E716BEFEC8E2E1E1F
000002AD8420137E2E1E1F
000000027BDEDC83000000
ENDCHAR
STARTCHAR Gcommaaccent
ENCODING 290
SWIDTH 908 0
DWIDTH 25 0
BBX 25 35 0 -11
BITMAP
00000000015789852000000000
00000003BEA8667AEC50000000
000001AD6158998514CC200000
00003D829EB7657AEA27E40000
0002E53D9148AA8417E53E4000
001C65D34DC8657BD53D64E100
00892D28D427AA833CA2D42000
01E2C56C29D8557DA1B9210000
0796B3E2BA1000008C14000000
0C4B5A77B00000000610000000
0E1E1E1E200000000000000000
2D3D3D3C000000000000000000
3C4B4B5A000000000858484930
2C3C3B4B00000000096A5A5B40
1E2D2D1E00000000096A5A5B40
0E2D2D3B50000000096A5A5B40
096977A3D2000000096A5A5B40
04C2D1D55E7200138E6A5A5B40
00C5892D629DEEEC8B6A5A5B40
004D2B82BC5101138E6A5A5B40
0008B1BB24ADEEEC8B6A5A5B40
00009C27EA5201137D6A5A5B40
000007E716ADFFEC8B6A5A5B40
0000002AE94211247D6A5A5B40
0000000027BDEEDB8400000000
00000000000000000000000000
00000000007878870000000000
00000000007878870000000000
00000000007878870000000000
00000000006777870000000000
00000000000087870000000000
000000000014D3960000000000
00000000006B51E20000000000
0000000000136D800000000000
00000000006C94000000000000
ENDCHAR
STARTCHAR gcommaaccent
ENCODING 291
SWIDTH 827 0
DWIDTH 23 0
BBX 22 22 0 -1
BITMAP
00000000278A9740000000
0000005DD86568CE700000
00001BC4269A9723BC3000
0002D72AE96568DB35E300
001D64E7169B9616E64A00
00983E35EA6459E72D4000
02E1D47D249BA52B910000
0877A4D2AC645BB1300000
0D2C3B58A0000062000000
1E2E1E1E10000000000000
3C3C3B4B00000000000000
3C4B4B5A0000000D2D1E1E
2D2D2D2D0000000D2E1E1F
0E1E2D3B7000000D2E1E1F
0A5976B2D81003AF2E1E1F
05C2E2B929EEEC6D2E1E1F
00C57C1AC511139F2E1E1F
003E28C24AEEEC7E2E1E1F
0005D36E9410138E2E1E1F
00004E716BEFEC8E2E1E1F
000002AD8420137E2E1E1F
000000027BDEDC83000000
ENDCHAR
STARTCHAR Hcircumflex
ENCODING 292
SWIDTH 901 0
DWIDTH 25 0
BBX 23 32 1 0
BITMAP
0000000002C3840000000000
0000000008E96A0000000000
000000000D4E1E1000000000
000000004B0A597000000000
00000000A575B3D000000000
00000002E1E1D2C400000000
000000068590775800000000
000000000000000000000000
000000000000000000000000
727282810000000090909190
B4C3C3C200000000F0F1E1E0
B4C3C3C200000000F0F1E1E0
B4C3C3C200000000F0F1E1E0
B4C3C3C200000000F0F1E1E0
B4C3C3C200000000F0F1E1E0
B4C3C3C200000000F0F1E1E0
B4C3C3C200000000F0F1E1E0
B4C3C3C200000000F0F1E1E0
B4C3C3CCCCCCCCCCF0F1E1E0
B4C3C3C533333333F0F1E1E0
B4C3C3CDCCCCCCCCF0F1E1E0
B4C3C3C422222222F0F1E1E0
B4C3C3CDDDDDDDDDF0F1E1E0
B4C3C3C422222222F0F1E1E0
B4C3C3C200000000F0F1E1E0
B4C3C3C200000000F0F1E1E0
B4C3C3C200000000F0F1E1E0
B4C3C3C200000000F0F1E1E0
B4C3C3C200000000F0F1E1E0
B4C3C3C200000000F0F1E1E0
B4C3C3C200000000F0F1E1E0
B4C3C3C200000000F0F1E1E0
ENDCHAR
STARTCHAR hcircumflex
ENCODING 293
SWIDTH 830 0
DWIDTH 23 0
BBX 21 29 1 0
BITMAP
000000001C384000000000
000000007E95B000000000
00000000D4E1E200000000
00000004C0A68700000000
0000000A675C2D00000000
0000001E1E2D3B40000000
000000684A077590000000
0000000000000000000000
0000000000000000000000
83828292000000A0A0A0A0
B4C3C3C2000000E1F0F0E0
B4C3C3C2000000E1F0F0E0
B4C3C3C2000000E1F0F0E0
B4C3C3C2000000E1F0F0E0
B4C3C3C2000000E1F0F0E0
B4C3C3C2000000E1F0F0E0
B4C3C3CCCCCCCCF1F0F0E0
B4C3C3C5333333E1F0F0E0
B4C3C3CDCCCCCCF1F0F0E0
B4C3C3C4222222E1F0F0E0
B4C3C3CDDDDDDDF1F0F0E0
B4C3C3C4222222E1F0F0E0
B4C3C3C2000000E1F0F0E0
B4C3C3C2000000E1F0F0E0
B4C3C3C2000000E1F0F0E0
B4C3C3C2000000E1F0F0E0
B4C3C3C2000000E1F0F0E0
B4C3C3C2000000E1F0F0E0
B4C3C3C2000000E1F0F0E0
ENDCHAR
STARTCHAR Hbar
ENCODING 294
SWIDTH 901 0
DWIDTH 25 0
BBX 27 23 -1 0
BITMAP
0073728282000000009090919000
00B4B4C3C300000000F0F0E1E000
00B4B4C3C300000000F0F0E1E000
A9B4B4C3C1DDDDDDD7F0F0E1E8B0
11B4B4C3C222222221F0F0E1E120
AAB4B4C3C6DDDDDDD7F0F0E1E9B0
11B4B4C3C311111111F0F0E1E110
00B4B4C3C300000000F0F0E1E000
00B4B4C3C300000000F0F0E1E000
00B4B4C3CCCCCCCCCCF0F0E1E000
00B4B4C3C533333333F0F0E1E000
00B4B4C3CDCCCCCCCCF0F0E1E000
00B4B4C3C522222222F0F0E1E000
00B4B4C3CDDDDDDDDDF0F0E1E000
00B4B4C3C422222222F0F0E1E000
00B4B4C3C300000000F0F0E1E000
00B4B4C3C300000000F0F0E1E000
00B4B4C3C300000000F0F0E1E000
00B4B4C3C300000000F0F0E1E000
00B4B4C3C300000000F0F0E1E000
00B4B4C3C300000000F0F0E1E000
00B4B4C3C300000000F0F0E1E000
00B4B4C3C300000000F0F0E1E000
ENDCHAR
STARTCHAR hbar
ENCODING 295
SWIDTH 830 0
DWIDTH 23 0
BBX 25 20 -1 0
BITMAP
0073828282000000A1A0A0A000
00B4B4C3C3000000E1E0F0F000
57B4B4C3C0AAAAA6E1E0F0F570
34B4B4C3C1555553E1E0F0F340
57B4B4C3C5AAAAA6E1E0F0F670
23B4B4C3C4555553E1E0F0F330
00B4B4C3C3000000E1E0F0F000
00B4B4C3CCCCCCCCF1E0F0F000
00B4B4C3C5333333E1E0F0F000
00B4B4C3CDCCCCCCF1E0F0F000
00B4B4C3C5222222E1E0F0F000
00B4B4C3CDDDDDDDF1E0F0F000
00B4B4C3C4222222E1E0F0F000
00B4B4C3C3000000E1E0F0F000
00B4B4C3C3000000E1E0F0F000
00B4B4C3C3000000E1E0F0F000
00B4B4C3C3000000E1E0F0F000
00B4B4C3C3000000E1E0F0F000
00B4B4C3C3000000E1E0F0F000
00B4B4C3C3000000E1E0F0F000
ENDCHAR
STARTCHAR Itilde
ENCODING 296
SWIDTH 338 0
DWIDTH 9 0
BBX 17 30 -4 0
BITMAP
0048AAAAAAAA1091A0
08D75555555512E0E0
3D15ABBBBBBBBE64C0
784D54444444422C50
969608BBBBBBBCE700
213103444444430000
000000000000000000
000007272828100000
00000B4C3C3C200000
00000B4C3C3C200000
00000B4C3C3C200000
00000B4C3C3C200000
00000B4C3C3C200000
00000B4C3C3C200000
00000B4C3C3C200000
00000B4C3C3C200000
00000B4C3C3C200000
00000B4C3C3C200000
00000B4C3C3C200000
00000B4C3C3C200000
00000B4C3C3C200000
00000B4C3C3C200000
00000B4C3C3C200000
00000B4C3C3C200000
00000B4C3C3C200000
00000B4C3C3C200000
00000B4C3C3C200000
00000B4C3C3C200000
00000B4C3C3C200000
00000B4C3C3C200000
ENDCHAR
STARTCHAR itilde
ENCODING 297
SWIDTH 337 0
DWIDTH 9 0
BBX 17 27 -4 0
BITMAP
0048AAAAAAAA1091A0
08D75555555512E0E0
3D15ABBBBBBBBE64C0
784D54444444422C50
969608BBBBBBBCE700
213103444444430000
000000000000000000
000008382829200000
00000B4C3C3C200000
00000B4C3C3C200000
00000B4C3C3C200000
00000B4C3C3C200000
00000B4C3C3C200000
00000B4C3C3C200000
00000B4C3C3C200000
00000B4C3C3C200000
00000B4C3C3C200000
00000B4C3C3C200000
00000B4C3C3C200000
00000B4C3C3C200000
00000B4C3C3C200000
00000B4C3C3C200000
00000B4C3C3C200000
00000B4C3C3C200000
00000B4C3C3C200000
00000B4C3C3C200000
00000B4C3C3C200000
ENDCHAR
STARTCHAR Imacron
ENCODING 298
SWIDTH 338 0
DWIDTH 9 0
BBX 8 23 1 0
BITMAP
72728281
B4C3C3C2
B4C3C3C2
B4C3C3C2
B4C3C3C2
B4C3C3C2
B4C3C3C2
B4C3C3C2
B4C3C3C2
B4C3C3C2
B4C3C3C2
B4C3C3C2
B4C3C3C2
B4C3C3C2
B4C3C3C2
B4C3C3C2
B4C3C3C2
B4C3C3C2
B4C3C3C2
B4C3C3C2
B4C3C3C2
B4C3C3C2
B4C3C3C2
ENDCHAR
STARTCHAR imacron
ENCODING 299
SWIDTH 337 0
DWIDTH 9 0
BBX 8 20 1 0
BITMAP
83828292
B4C3C3C2
B4C3C3C2
B4C3C3C2
B4C3C3C2
B4C3C3C2
B4C3C3C2
B4C3C3C2
B4C3C3C2
B4C3C3C2
B4C3C3C2
B4C3C3C2
B4C3C3C2
B4C3C3C2
B4C3C3C2
B4C3C3C2
B4C3C3C2
B4C3C3C2
B4C3C3C2
B4C3C3C2
ENDCHAR
STARTCHAR Ibreve
ENCODING 300
SWIDTH 338 0
DWIDTH 9 0
BBX 9 29 0 0
BITMAP
2240003240
498835C4A0
0B75874C30
007CBBA200
0000000000
0000000000
0727282810
0B4C3C3C20
0B4C3C3C20
0B4C3C3C20
0B4C3C3C20
0B4C3C3C20
0B4C3C3C20
0B4C3C3C20
0B4C3C3C20
0B4C3C3C20
0B4C3C3C20
0B4C3C3C20
0B4C3C3C20
0B4C3C3C20
0B4C3C3C20
0B4C3C3C20
0B4C3C3C20
0B4C3C3C20
0B4C3C3C20
0B4C3C3C20
0B4C3C3C20
0B4C3C3C20
0B4C3C3C20
ENDCHAR
STARTCHAR ibreve
ENCODING 301
SWIDTH 337 0
DWIDTH 9 0
BBX 9 26 0 0
BITMAP
2240003240
498835C4A0
0B75874C30
007CBBA200
0000000000
0000000000
0838282920
0B4C3C3C20
0B4C3C3C20
0B4C3C3C20
0B4C3C3C20
0B4C3C3C20
0B4C3C3C20
0B4C3C3C20
0B4C3C3C20
0B4C3C3C20
0B4C3C3C20
0B4C3C3C20
0B4C3C3C20
0B4C3C3C20
0B4C3C3C20
0B4C3C3C20
0B4C3C3C20
0B4C3C3C20
0B4C3C3C20
0B4C3C3C20
ENDCHAR
STARTCHAR Iogonek
ENCODING 302
SWIDTH 338 0
DWIDTH 9 0
BBX 8 31 1 -8
BITMAP
72728281
B4C3C3C2
B4C3C3C2
B4C3C3C2
B4C3C3C2
B4C3C3C2
B4C3C3C2
B4C3C3C2
B4C3C3C2
B4C3C3C2
B4C3C3C2
B4C3C3C2
B4C3C3C2
B4C3C3C2
B4C3C3C2
B4C3C3C2
B4C3C3C2
B4C3C3C2
B4C3C3C2
B4C3C3C2
B4C3C3C2
B4C3C3C2
B4C4FFF4
001D8310
00791AE2
00B49910
00C3C310
00C3C3D2
00C3C3D2
00C3C3D2
00A3B2B2
ENDCHAR
STARTCHAR iogonek
ENCODING 303
SWIDTH 337 0
DWIDTH 9 0
BBX 8 28 1 -8
BITMAP
83828292
B4C3C3C2
B4C3C3C2
B4C3C3C2
B4C3C3C2
B4C3C3C2
B4C3C3C2
B4C3C3C2
B4C3C3C2
B4C3C3C2
B4C3C3C2
B4C3C3C2
B4C3C3C2
B4C3C3C2
B4C3C3C2
B4C3C3C2
B4C3C3C2
B4C3C3C2
B4C3C3C2
B4C4FFF5
001D9310
00791AE3
00A59910
00B4C310
00B4C3C3
00B4C3C3
00B4C3C3
00A3A3B2
ENDCHAR
STARTCHAR Idotaccent
ENCODING 304
SWIDTH 338 0
DWIDTH 9 0
BBX 8 30 1 0
BITMAP
07AAAA20
04555510
07AAAA20
03555510
08BBBB20
03444410
00000000
72728281
B4C3C3C2
B4C3C3C2
B4C3C3C2
B4C3C3C2
B4C3C3C2
B4C3C3C2
B4C3C3C2
B4C3C3C2
B4C3C3C2
B4C3C3C2
B4C3C3C2
B4C3C3C2
B4C3C3C2
B4C3C3C2
B4C3C3C2
B4C3C3C2
B4C3C3C2
B4C3C3C2
B4C3C3C2
B4C3C3C2
B4C3C3C2
B4C3C3C2
ENDCHAR
STARTCHAR dotlessi
ENCODING 305
SWIDTH 337 0
DWIDTH 9 0
BBX 8 20 1 0
BITMAP
83828292
B4C3C3C2
B4C3C3C2
B4C3C3C2
B4C3C3C2
B4C3C3C2
B4C3C3C2
B4C3C3C2
B4C3C3C2
B4C3C3C2
B4C3C3C2
B4C3C3C2
B4C3C3C2
B4C3C3C2
B4C3C3C2
B4C3C3C2
B4C3C3C2
B4C3C3C2
B4C3C3C2
B4C3C3C2
ENDCHAR
STARTCHAR IJ
ENCODING 306
SWIDTH 774 0
DWIDTH 22 0
BBX 20 24 1 -1
BITMAP
72828281000055545464
B4C3C3D2000078878796
B4C3C3D2000078878796
B4C3C3D2000078878796
B4C3C3D2000078878796
B4C3C3D2000078878796
B4C3C3D2000078878796
B4C3C3D2000078878796
B4C3C3D2000078878796
B4C3C3D2000078878796
B4C3C3D2000078878796
B4C3C3D2000078878796
B4C3C3D2000078878796
B4C3C3D2000078878796
B4C3C3D2000078878796
B4C3C3D2000086869695
B4C3C3D20002D2C4B4B4
B4C3C3D20CEE64D1D1E1
B4C3C3D201116E3985B0
B4C3C3D20CEEA27C1D40
B4C3C3D201114AC2A900
B4C3C3D20DFEB62BB000
B4C3C3D2000138E80000
000000000DFEC7200000
ENDCHAR
STARTCHAR ij
ENCODING 307
SWIDTH 729 0
DWIDTH 20 0
BBX 19 23 1 -3
BITMAP
73828282000747373830
B4B4C3C3000A5A5B4B40
B4B4C3C3000A5A5B4B40
B4B4C3C3000A5A5B4B40
B4B4C3C3000A5A5B4B40
B4B4C3C3000A5A5B4B40
B4B4C3C3000A5A5B4B40
B4B4C3C3000A5A5B4B40
B4B4C3C3000A5A5B4B40
B4B4C3C3000A5A5B4B40
B4B4C3C3000A5A5B4B40
B4B4C3C3000A5A5B4B40
B4B4C3C3000A5A5B4B40
B4B4C3C3000A5A5B4B40
B4B4C3C3000B4B4B3C30
B4B4C3C3006D1E1E1E10
B4B4C3C30DB2994B3D00
B4B4C3C3003AB1C49800
B4B4C3C30DC72B83E100
B4B4C3C30137E72D4000
000000000CC825E60000
000000000137CC300000
000000000CC940000000
ENDCHAR
STARTCHAR Jcircumflex
ENCODING 308
SWIDTH 434 0
DWIDTH 12 0
BBX 12 33 0 -1
BITMAP
000003C1A300
000009E77900
00001E4D2E00
00006A0C4A50
0000C486A4B0
0003D2E1E1D2
000866809677
000000000000
000000000000
000090909190
0000F0F0E1E0
0000F0F0E1E0
0000F0F0E1E0
0000F0F0E1E0
0000F0F0E1E0
0000F0F0E1E0
0000F0F0E1E0
0000F0F0E1E0
0000F0F0E1E0
0000F0F0E1E0
0000F0F0E1E0
0000F0F0E1E0
0000F0F0E1E0
0000F0F0E1E0
0001E1E1E2D0
0008A4C3C3C0
5EEB2B687780
0112BA2E2D40
5EED72C66B00
01027D63E300
5FFD925E4000
00025BC30000
5FEDA5000000
ENDCHAR
STARTCHAR jcircumflex
ENCODING 309
SWIDTH 393 0
DWIDTH 11 0
BBX 11 32 0 -3
BITMAP
00005B1B1000
0000BE596000
0002D5B3C000
000880E2C300
000E28886900
005B4C2D1E10
00A5860B4950
000000000000
000000000000
001919292800
001D2D2C3C00
001D2D2C3C00
001D2D2C3C00
001D2D2C3C00
001D2D2C3C00
001D2D2C3C00
001D2D2C3C00
001D2D2C3C00
001D2D2C3C00
001D2D2C3C00
001D2D2C3C00
001D2D2C3C00
001D2D2C3C00
003C3C3C4B00
02B769595A00
5D72E3B5A600
016D65C2E100
5EA35E2A8000
014AC37C1000
5DB529C10000
0249E8100000
5DB720000000
ENDCHAR
STARTCHAR Kcommaaccent
ENCODING 310
SWIDTH 815 0
DWIDTH 23 0
BBX 22 33 1 -10
BITMAP
7272828100000644628091
B4C3C3C200001E1D4A77A0
B4C3C3C20000985B2D1D20
B4C3C3C20002E1D3A67900
B4C3C3C2000986B3D1E200
B4C3C3C2002E1D3A679000
B4C3C3C200976A3D1E2000
B4C3C3C202E1D3B6890000
B4C3C3C20A76A3D1E20000
B4C3C3C22D1D2B58800000
B4C3C3C2A67A4D1E100000
B4C3C3C4E0E3B679000000
B4C3C3C2D4976A3D000000
B4C3C3C25B2E1D3B600000
B4C3C3C20C4976A3D00000
B4C3C3C205C2E1D3A60000
B4C3C3C200C4986B3D0000
B4C3C3C2004C2E1D3A6000
B4C3C3C2000C5885B3D100
B4C3C3C20004C1E1D4A700
B4C3C3C20000B5885B2E10
B4C3C3C200004D1E2C4970
B4C3C3C200000B6895C2E1
0000000000000000000000
00000000A4B4B400000000
00000000A4B4B400000000
00000000A4B4B400000000
00000000A4B4B300000000
0000000000B3C300000000
0000000026E1D200000000
000000009B33D000000000
00000000247E4000000000
000000008B820000000000
ENDCHAR
STARTCHAR kcommaaccent
ENCODING 311
SWIDTH 801 0
DWIDTH 22 0
BBX 21 30 1 -10
BITMAP
8382829200000927466380
B4C3C3C200006A3D1E2C40
B4C3C3C20001D2B5885B00
B4C3C3C2000894C2E1D300
B4C3C3C2002E2D4A77A000
B4C3C3C200976A3D1E2000
B4C3C3C203D1D2B5880000
B4C3C3C20B6895C2D10000
B4C3C3C24C2E2D4A600000
B4C3C3C2C4976A3D000000
B4C3C3C1E1D4A77A000000
B4C3C3C2885C2D1D300000
B4C3C3C21D2C5886B00000
B4C3C3C206A3D1E2C40000
B4C3C3C200D3A67A4C0000
B4C3C3C2005C2D1D3B6000
B4C3C3C2000C5885B3D100
B4C3C3C20003D1E2C49700
B4C3C3C20000A67A4C2E10
B4C3C3C200002D1D3A6790
0000000000000000000000
00000000D2E1E100000000
00000000D2E1E100000000
00000000D2E1E100000000
00000000C1E1E100000000
0000000000E1E000000000
0000000027C1E000000000
00000000BA26A000000000
00000000248E2000000000
00000000BB810000000000
ENDCHAR
STARTCHAR kgreenlandic
ENCODING 312
SWIDTH 801 0
DWIDTH 22 0
BBX 21 20 1 0
BITMAP
8382829200000927466380
B4C3C3C200006A3D1E2C40
B4C3C3C20001D2B5885B00
B4C3C3C2000894C2E1D300
B4C3C3C2002E2D4A77A000
B4C3C3C200976A3D1E2000
B4C3C3C203D1D2B5880000
B4C3C3C20B6895C2D10000
B4C3C3C24C2E2D4A600000
B4C3C3C2C4976A3D000000
B4C3C3C1E1D4A77A000000
B4C3C3C2885C2D1D300000
B4C3C3C21D2C5886B00000
B4C3C3C206A3D1E2C40000
B4C3C3C200D3A67A4C0000
B4C3C3C2005C2D1D3B6000
B4C3C3C2000C5885B3D100
B4C3C3C20003D1E2C49700
B4C3C3C20000A67A4C2E10
B4C3C3C200002D1D3A6790
ENDCHAR
STARTCHAR Lacute
ENCODING 313
SWIDTH 604 0
DWIDTH 17 0
BBX 17 32 1 0
BITMAP
000000000000015000
0000000000029E8100
00000000029E815D60
000000029E816DB400
0000029E716DB40000
000003716DA3000000
0000000BA300000000
000000000000000000
000000000000000000
727282810000000000
B4C3C3C20000000000
B4C3C3C20000000000
B4C3C3C20000000000
B4C3C3C20000000000
B4C3C3C20000000000
B4C3C3C20000000000
B4C3C3C20000000000
B4C3C3C20000000000
B4C3C3C20000000000
B4C3C3C20000000000
B4C3C3C20000000000
B4C3C3C20000000000
B4C3C3C20000000000
B4C3C3C20000000000
B4C3C3C20000000000
B4C3C3C20000000000
B4C3C3C20000000000
B4C3C3CEEEEEEEE000
B4C3C3C31111111000
B4C3C3CEEEEEEEE000
B4C3C3C30000000000
B4C3C3CFFFFFFFF000
ENDCHAR
STARTCHAR lacute
ENCODING 314
SWIDTH 583 0
DWIDTH 16 0
BBX 15 29 1 0
BITMAP
0000000001500000
000000018E910000
0000018E825C7000
00029E815DC40000
029E816DB4000000
02716DB400000000
000AB30000000000
0000000000000000
0000000000000000
8382829200000000
B4C3C3C200000000
B4C3C3C200000000
B4C3C3C200000000
B4C3C3C200000000
B4C3C3C200000000
B4C3C3C200000000
B4C3C3C200000000
B4C3C3C200000000
B4C3C3C200000000
B4C3C3C200000000
B4C3C3C200000000
B4C3C3C200000000
B4C3C3C200000000
B4C3C3C200000000
B4C3C3CEEEEEEE60
B4C3C3C311111100
B4C3C3CEEEEEEE60
B4C3C3C300000000
B4C3C3CFFFFFFF60
ENDCHAR
STARTCHAR Lcommaaccent
ENCODING 315
SWIDTH 604 0
DWIDTH 17 0
BBX 15 33 1 -10
BITMAP
7272828100000000
B4C3C3C200000000
B4C3C3C200000000
B4C3C3C200000000
B4C3C3C200000000
B4C3C3C200000000
B4C3C3C200000000
B4C3C3C200000000
B4C3C3C200000000
B4C3C3C200000000
B4C3C3C200000000
B4C3C3C200000000
B4C3C3C200000000
B4C3C3C200000000
B4C3C3C200000000
B4C3C3C200000000
B4C3C3C200000000
B4C3C3C200000000
B4C3C3CEEEEEEEE0
B4C3C3C311111110
B4C3C3CEEEEEEEE0
B4C3C3C300000000
B4C3C3CFFFFFFFF0
0000000000000000
00000C3C3D200000
00000C3C3D200000
00000C3C3D200000
00000B3C3D200000
0000000D2D200000
0000026D0E100000
00000AA35C000000
00000248E3000000
00000AB820000000
ENDCHAR
STARTCHAR lcommaaccent
ENCODING 316
SWIDTH 583 0
DWIDTH 16 0
BBX 15 30 1 -10
BITMAP
8382829200000000
B4C3C3C200000000
B4C3C3C200000000
B4C3C3C200000000
B4C3C3C200000000
B4C3C3C200000000
B4C3C3C200000000
B4C3C3C200000000
B4C3C3C200000000
B4C3C3C200000000
B4C3C3C200000000
B4C3C3C200000000
B4C3C3C200000000
B4C3C3C200000000
B4C3C3C200000000
B4C3C3CEEEEEEE60
B4C3C3C311111100
B4C3C3CEEEEEEE60
B4C3C3C300000000
B4C3C3CFFFFFFF60
0000000000000000
00001D2D2C000000
00001D2D2C000000
00001D2D2C000000
00001C2D2C000000
0000002C3C000000
000003A94B000000
00001C8197000000
0000035AC1000000
00001CA610000000
ENDCHAR
STARTCHAR Lcaron
ENCODING 317
SWIDTH 856 0
DWIDTH 24 0
BBX 23 24 1 0
BITMAP
00000000000000000C2D1D10
72828281000000000D2D1E10
B4C3C3D2000000000D2D1E10
B4C3C3D2000000000D2D1E10
B4C3C3D200000000000E1E10
B4C3C3D200000000016D0E00
B4C3C3D2000000000CB35B00
B4C3C3D2000000000137E300
B4C3C3D2000000000BC92000
B4C3C3D20000000000000000
B4C3C3D20000000000000000
B4C3C3D20000000000000000
B4C3C3D20000000000000000
B4C3C3D20000000000000000
B4C3C3D20000000000000000
B4C3C3D20000000000000000
B4C3C3D20000000000000000
B4C3C3D20000000000000000
B4C3C3D20000000000000000
B4C3C3DEEEEEEEE000000000
B4C3C3D31111111000000000
B4C3C3DEEEEEEEE000000000
B4C3C3D20000000000000000
B4C3C3DFFFFFFFF000000000
ENDCHAR
STARTCHAR lcaron
ENCODING 318
SWIDTH 584 0
DWIDTH 16 0
BBX 15 21 1 0
BITMAP
000000000B3B3B20
738282820B4C3C30
B4B4C3C30B4C3C30
B4B4C3C30B4C3C30
B4B4C3C3000C3C20
B4B4C3C3015E0E10
B4B4C3C30AC43D00
B4B4C3C30126E400
B4B4C3C30AC93000
B4B4C3C300000000
B4B4C3C300000000
B4B4C3C300000000
B4B4C3C300000000
B4B4C3C300000000
B4B4C3C300000000
B4B4C3C300000000
B4B4C3CEEEEEEE60
B4B4C3C311111100
B4B4C3CEEEEEEE60
B4B4C3C300000000
B4B4C3CFFFFFFF60
ENDCHAR
STARTCHAR Ldot
ENCODING 319
SWIDTH 604 0
DWIDTH 17 0
BBX 15 23 1 0
BITMAP
7272828100000000
B4C3C3C200000000
B4C3C3C200000000
B4C3C3C200000000
B4C3C3C200000000
B4C3C3C200000000
B4C3C3C200000000
B4C3C3C200000000
B4C3C3C22BBBB800
B4C3C3C214444300
B4C3C3C22CCCC800
B4C3C3C213333200
B4C3C3C22CCCC900
B4C3C3C203333200
B4C3C3C200000000
B4C3C3C200000000
B4C3C3C200000000
B4C3C3C200000000
B4C3C3CEEEEEEEE0
B4C3C3C311111110
B4C3C3CEEEEEEEE0
B4C3C3C300000000
B4C3C3CFFFFFFFF0
ENDCHAR
STARTCHAR ldot
ENCODING 320
SWIDTH 582 0
DWIDTH 16 0
BBX 15 20 1 0
BITMAP
7382828200000000
B4B4C3C300000000
B4B4C3C300000000
B4B4C3C300000000
B4B4C3C32BBBB800
B4B4C3C314444300
B4B4C3C32CCCC900
B4B4C3C303333200
B4B4C3C32CCCC900
B4B4C3C303333200
B4B4C3C300000000
B4B4C3C300000000
B4B4C3C300000000
B4B4C3C300000000
B4B4C3C300000000
B4B4C3CEEEEEEE60
B4B4C3C311111100
B4B4C3CEEEEEEE60
B4B4C3C300000000
B4B4C3CFFFFFFF60
ENDCHAR
STARTCHAR Lslash
ENCODING 321
SWIDTH 604 0
DWIDTH 17 0
BBX 19 23 -2 0
BITMAP
00073728282000000000
000B4B4C3C3000000000
000B4B4C3C3000000000
000B4B4C3C3000000000
000B4B4C3C3000000000
000B4B4C3C3016900000
000B4B4C3C2AE9400000
000B4B4C3C2426A00000
000B4B4C3C2BD9300000
045B4B4C3C2417A00000
CB4B4B4C3C3BD8300000
145B4B4C3C3400000000
CB4B4B4C3C3000000000
045B4B4C3C3000000000
CA4B4B4C3C3000000000
000B4B4C3C3000000000
000B4B4C3C3000000000
000B4B4C3C3000000000
000B4B4C3CEEEEEEEE10
000B4B4C3C3111111100
000B4B4C3CEEEEEEEE10
000B4B4C3C3000000000
000B4B4C3CFFFFFFFF10
ENDCHAR
STARTCHAR lslash
ENCODING 322
SWIDTH 581 0
DWIDTH 16 0
BBX 18 20 -2 0
BITMAP
000738282820000000
000B4B4C3C30000000
000B4B4C3C30000000
000B4B4C3C30003000
000B4B4C3C338DA000
000B4B4C3C1C723000
000B4B4C3C338DA000
000B4B4C3C1C613000
5B9B4B4C3C349D9000
741B4B4C3C4B610000
6B9B4B4C3C30000000
731B4B4C3C30000000
6C8B4B4C3C30000000
730B4B4C3C30000000
000B4B4C3C30000000
000B4B4C3CEEEEEEE6
000B4B4C3C31111110
000B4B4C3CEEEEEEE6
000B4B4C3C30000000
000B4B4C3CFFFFFFF6
ENDCHAR
STARTCHAR Nacute
ENCODING 323
SWIDTH 877 0
DWIDTH 25 0
BBX 23 32 1 0
BITMAP
000000000000000004200000
0000000000000004BD500000
00000000000004CC528D2000
000000000005CC529E820000
0000000005CC429E81000000
0000000006429E8100000000
00000000003D710000000000
000000000000000000000000
000000000000000000000000
762909265000000636373720
BF3B76B2E200000A5A5B4B40
BAB2E2C67A00000A5A5B4B40
B4C67A3E1D40000A5A5B4B40
B43E1D4894D0000A5A5B4B40
B47994D1D3A8000A5A5B4B40
B4B3D3A85C2E200A5A5B4B40
B4C35C2E2B76B00A5A5B4B40
B4C34B76B2E2C50A5A5B4B40
B4C3B3E2C57A3D1A5A5B4B40
B4C3C37A3D1D49985A5B4B40
B4C3C33D4994D1D44A5B4B40
B4C3C3B5D1D3A85C0A5B4B40
B4C3C3C2A85C2E2B6A5B4B40
B4C3C3C21E2B66B2E45B4B40
B4C3C3C206B2E2C58A0B4B40
B4C3C3C200C57A3E1D4B4B40
B4C3C3C2003D1D4994D64B40
B4C3C3C2000994D1D3A71B40
B4C3C3C20001D3A85C2E2B40
B4C3C3C200005C2E2B67BB40
B4C3C3C200000B66B2E2CE40
B4C3C3C2000002E1C58A3F40
ENDCHAR
STARTCHAR nacute
ENCODING 324
SWIDTH 787 0
DWIDTH 22 0
BBX 20 29 1 0
BITMAP
00000000000000005100
000000000000006DB300
0000000000006DB33AB0
00000000016DA33AD710
000000017DA33BD60000
00000000724BD6000000
0000000006D500000000
00000000000000000000
00000000000000000000
87290936600000282838
BF2B66B2E100003C3C4B
BBB3E1C58900003C3C4B
B4D4994D1D30003C3C4B
B45D1E3A76C0003C3C4B
B46B76B2E2C5003C3C4B
B4B5E1C58A3D103C3C4B
B4C3994D1D3A803C3C4B
B4C33E3A75C2E23C3C4B
B4C3A6B2E2C67A3C3C4B
B4C3C3C58A3D1D5B3C4B
B4C3C34D1D3A85C53C4B
B4C3C30A75C2E2B63C4B
B4C3C302E2C67A3E4C4B
B4C3C3008A3D1D49884B
B4C3C3001D3985C1E34B
B4C3C30005C2E2B67B4B
B4C3C30000C67A3E1D8B
B4C3C300003D1D4994FB
B4C3C300000985C1E3BB
ENDCHAR
STARTCHAR Ncommaaccent
ENCODING 325
SWIDTH 877 0
DWIDTH 25 0
BBX 23 33 1 -10
BITMAP
762909265000000636373720
BF3B76B2E200000A5A5B4B40
BAB2E2C67A00000A5A5B4B40
B4C67A3E1D40000A5A5B4B40
B43E1D4894D0000A5A5B4B40
B47994D1D3A8000A5A5B4B40
B4B3D3A85C2E200A5A5B4B40
B4C35C2E2B76B00A5A5B4B40
B4C34B76B2E2C50A5A5B4B40
B4C3B3E2C57A3D1A5A5B4B40
B4C3C37A3D1D49985A5B4B40
B4C3C33D4994D1D44A5B4B40
B4C3C3B5D1D3A85C0A5B4B40
B4C3C3C2A85C2E2B6A5B4B40
B4C3C3C21E2B66B2E45B4B40
B4C3C3C206B2E2C58A0B4B40
B4C3C3C200C57A3E1D4B4B40
B4C3C3C2003D1D4994D64B40
B4C3C3C2000994D1D3A71B40
B4C3C3C20001D3A85C2E2B40
B4C3C3C200005C2E2B67BB40
B4C3C3C200000B66B2E2CE40
B4C3C3C2000002E1C58A3F40
000000000000000000000000
000000003C3C4B0000000000
000000003C3C4B0000000000
000000003C3C4B0000000000
000000002B3C4B0000000000
00000000004B4B0000000000
0000000003B85A0000000000
000000002C80A60000000000
00000000035BB00000000000
000000002CA6000000000000
ENDCHAR
STARTCHAR ncommaaccent
ENCODING 326
SWIDTH 787 0
DWIDTH 22 0
BBX 20 30 1 -10
BITMAP
87290936600000282838
BF2B66B2E100003C3C4B
BBB3E1C58900003C3C4B
B4D4994D1D30003C3C4B
B45D1E3A76C0003C3C4B
B46B76B2E2C5003C3C4B
B4B5E1C58A3D103C3C4B
B4C3994D1D3A803C3C4B
B4C33E3A75C2E23C3C4B
B4C3A6B2E2C67A3C3C4B
B4C3C3C58A3D1D5B3C4B
B4C3C34D1D3A85C53C4B
B4C3C30A75C2E2B63C4B
B4C3C302E2C67A3E4C4B
B4C3C3008A3D1D49884B
B4C3C3001D3985C1E34B
B4C3C30005C2E2B67B4B
B4C3C30000C67A3E1D8B
B4C3C300003D1D4994FB
B4C3C300000985C1E3BB
00000000000000000000
00000007878870000000
00000007878870000000
00000007878870000000
00000006878870000000
00000000087870000000
000000014D4960000000
00000006B51D20000000
0000000136D800000000
00000005C94000000000
ENDCHAR
STARTCHAR Ncaron
ENCODING 327
SWIDTH 877 0
DWIDTH 25 0
BBX 23 32 1 0
BITMAP
000000093840928400000000
0000000796A3D1E100000000
00000002E199779000000000
00000000A51E2D3000000000
000000004B6A4C0000000000
000000000DD5A60000000000
0000000007D1D10000000000
000000000000000000000000
000000000000000000000000
762909265000000636373720
BF3B76B2E200000A5A5B4B40
BAB2E2C67A00000A5A5B4B40
B4C67A3E1D40000A5A5B4B40
B43E1D4894D0000A5A5B4B40
B47994D1D3A8000A5A5B4B40
B4B3D3A85C2E200A5A5B4B40
B4C35C2E2B76B00A5A5B4B40
B4C34B76B2E2C50A5A5B4B40
B4C3B3E2C57A3D1A5A5B4B40
B4C3C37A3D1D49985A5B4B40
B4C3C33D4994D1D44A5B4B40
B4C3C3B5D1D3A85C0A5B4B40
B4C3C3C2A85C2E2B6A5B4B40
B4C3C3C21E2B66B2E45B4B40
B4C3C3C206B2E2C58A0B4B40
B4C3C3C200C57A3E1D4B4B40
B4C3C3C2003D1D4994D64B40
B4C3C3C2000994D1D3A71B40
B4C3C3C20001D3A85C2E2B40
B4C3C3C200005C2E2B67BB40
B4C3C3C200000B66B2E2CE40
B4C3C3C2000002E1C58A3F40
ENDCHAR
STARTCHAR ncaron
ENCODING 328
SWIDTH 787 0
DWIDTH 22 0
BBX 20 29 1 0
BITMAP
000001A1A11A0A100000
000000B5976A5B000000
0000005B36C4B5000000
0000000E24D2E0000000
00000008797780000000
00000002DE1D20000000
00000000B94B00000000
00000000000000000000
00000000000000000000
87290936600000282838
BF2B66B2E100003C3C4B
BBB3E1C58900003C3C4B
B4D4994D1D30003C3C4B
B45D1E3A76C0003C3C4B
B46B76B2E2C5003C3C4B
B4B5E1C58A3D103C3C4B
B4C3994D1D3A803C3C4B
B4C33E3A75C2E23C3C4B
B4C3A6B2E2C67A3C3C4B
B4C3C3C58A3D1D5B3C4B
B4C3C34D1D3A85C53C4B
B4C3C30A75C2E2B63C4B
B4C3C302E2C67A3E4C4B
B4C3C3008A3D1D49884B
B4C3C3001D3985C1E34B
B4C3C30005C2E2B67B4B
B4C3C30000C67A3E1D8B
B4C3C300003D1D4994FB
B4C3C300000985C1E3BB
ENDCHAR
STARTCHAR Eng
ENCODING 330
SWIDTH 874 0
DWIDTH 24 0
BBX 23 32 1 -9
BITMAP
762908356000000737282820
BF3A75C2E200000B4B4C3C30
BAC2E2B76C00000B4B4C3C30
B4B76B2E2B70000B4B4C3C30
B42E2C66B2E2000B4B4C3C30
B477B2E2C67B000B4B4C3C30
B4B3C57A2E2C600B4B4C3C30
B4B43E1D57A2E20B4B4C3C30
B4B44993D1D57B0B4B4C3C30
B4B4B2D4993D1C6B4B4C3C30
B4B4C35D1D39939B4B4C3C30
B4B4C33A85D1D43B4B4C3C30
B4B4C3B2E3A74D1B4B4C3C30
B4B4C3C36C2E2A7B4B4C3C30
B4B4C3C30B66C18B4B4C3C30
B4B4C3C302E2B61B4B4C3C30
B4B4C3C3007A2E2B4B4C3C30
B4B4C3C3000D578B4B4C3C30
B4B4C3C30004D15B4B4C3C30
B4B4C3C30000990B4B4C3C30
B4B4C3C300001D3B4B4C3C30
B4B4C3C30000057B4B4C3C30
B4B4C3C30000002B4B3C3C30
000000000000000C2C3D2D20
000000000000127C2E1E1E00
000000000001DDA2A85A4B00
000000000000224BB2D3A600
000000000001DDB62C74D000
0000000000002248E62D3000
000000000001CCB825E50000
0000000000003347CB300000
000000000001CCB830000000
ENDCHAR
STARTCHAR eng
ENCODING 331
SWIDTH 691 0
DWIDTH 19 0
BBX 18 28 1 -8
BITMAP
8729093660009191A1
BF2B66B2E100D2D1E1
BBB3E1C58900D2D1E1
B4D4994D1D30D2D1E1
B45D1E3A76C0D2D1E1
B46B76B2E2C5D2D1E1
B4B5E1C58A3AD2D1E1
B4C3994D1D35D2D1E1
B4C33E3A75C0D2D1E1
B4C3A7B2E2C6D2D1E1
B4C3C3C5893AD2D1E1
B4C3C34D1D34D2D1E1
B4C3C30A75C0D2D1E1
B4C3C302E2C5D2D1E1
B4C3C3008A39D2D1E1
B4C3C3001D33D2D1E1
B4C3C30005C0D2D1E1
B4C3C30000C5D2D1E1
B4C3C3000039D2D1E1
B4C3C3000003D2D1E1
000000000000D2D1E1
000000000001E0E0E0
00000000005C75B3C0
0000000001A53E3960
000000000059E55C10
0000000001A717D200
000000000058DB1000
000000000197200000
ENDCHAR
STARTCHAR Omacron
ENCODING 332
SWIDTH 933 0
DWIDTH 26 0
BBX 26 25 0 -1
BITMAP
00000000015799751000000000
00000003BEA8668AEB40000000
000001AD6158998515CB200000
00003D829EB7667AEA26D40000
0002E53D9148AA8517D53D3000
001C65D34DC8657BE62D74D200
00892D28D427AA833C92D47A00
01E2C56C29D8557DA2B83D2D30
0796B3E2BA1000008C2D498790
0C4B5A77B00000000995C3D2D0
0E1E1E1E2000000001E1D2D2D2
2D3D3D3C0000000000A5B5A5B4
3C4B4B5A0000000000879696A5
2C3C4C4B000000000096A6A5A4
1E1E1E1E0000000000D2C3C3C3
0D2D3C5A7000000005C3E1E1E1
097885C2D40000003E3A76A5A0
03D2E2A83D820027E46C1E3B50
00B66C1C918DEED927D2A84C00
003E29A1AD721126CB19B1D400
0006D18C34ADFFEA42BA1B7000
00007D35DB621125AE62C90000
000005E816ADFFEB617E600000
00000019E95211249EA2000000
0000000016ADEEDB7200000000
ENDCHAR
STARTCHAR omacron
ENCODING 333
SWIDTH 833 0
DWIDTH 23 0
BBX 23 22 0 -1
BITMAP
00000000278A973000000000
0000005DD86568CD60000000
00001BC4269A9722AD200000
0002D72AE96568DB35E40000
001D64E7169B9616E64E2000
00983E35EA6459E72D56B000
02E1D47D249BA52B92E2C500
0877A4D2AC645BB1C6795B00
0D2C3B58A000008A3D1E1E10
1E2E1E1E1000000D3C4B4B40
3C3C3B4B0000000879696A50
3C4B4B5A0000000878696960
2D2D2D2D0000000B4A4A5B40
0E1E2D3B7000004D1E1E1D20
0A5976B2D81016E3995B3C00
05C2E2B929EEEA27C1D4A700
00C57C1AC51114BB2A93D100
003E28C24AEEEB52BA1D5000
0005D36E9410148E72C70000
00004E716BEFEC726D600000
000002AD8420137DB3000000
000000027BDEDC8300000000
ENDCHAR
STARTCHAR Obreve
ENCODING 334
SWIDTH 933 0
DWIDTH 26 0
BBX 26 30 0 -1
BITMAP
00000000042100133100000000
000000000D4B44A6C100000000
0000000006B478498000000000
00000000004BBBB50000000000
00000000000000000000000000
00000000015799751000000000
00000003BEA8668AEB40000000
000001AD6158998515CB200000
00003D829EB7667AEA26D40000
0002E53D9148AA8517D53D3000
001C65D34DC8657BE62D74D200
00892D28D427AA833C92D47A00
01E2C56C29D8557DA2B83D2D30
0796B3E2BA1000008C2D498790
0C4B5A77B00000000995C3D2D0
0E1E1E1E2000000001E1D2D2D2
2D3D3D3C0000000000A5B5A5B4
3C4B4B5A0000000000879696A5
2C3C4C4B000000000096A6A5A4
1E1E1E1E0000000000D2C3C3C3
0D2D3C5A7000000005C3E1E1E1
097885C2D40000003E3A76A5A0
03D2E2A83D820027E46C1E3B50
00B66C1C918DEED927D2A84C00
003E29A1AD721126CB19B1D400
0006D18C34ADFFEA42BA1B7000
00007D35DB621125AE62C90000
000005E816ADFFEB617E600000
00000019E95211249EA2000000
0000000016ADEEDB7200000000
ENDCHAR
STARTCHAR obreve
ENCODING 335
SWIDTH 833 0
DWIDTH 23 0
BBX 23 27 0 -1
BITMAP
000000031400031300000000
000000067A736C5800000000
00000001C55864C200000000
0000000018BBB92000000000
000000000000000000000000
00000000278A973000000000
0000005DD86568CD60000000
00001BC4269A9722AD200000
0002D72AE96568DB35E40000
001D64E7169B9616E64E2000
00983E35EA6459E72D56B000
02E1D47D249BA52B92E2C500
0877A4D2AC645BB1C6795B00
0D2C3B58A000008A3D1E1E10
1E2E1E1E1000000D3C4B4B40
3C3C3B4B0000000879696A50
3C4B4B5A0000000878696960
2D2D2D2D0000000B4A4A5B40
0E1E2D3B7000004D1E1E1D20
0A5976B2D81016E3995B3C00
05C2E2B929EEEA27C1D4A700
00C57C1AC51114BB2A93D100
003E28C24AEEEB52BA1D5000
0005D36E9410148E72C70000
00004E716BEFEC726D600000
000002AD8420137DB3000000
000000027BDEDC8300000000
ENDCHAR
STARTCHAR Ohungarumlaut
ENCODING 336
SWIDTH 933 0
DWIDTH 26 0
BBX 28 33 0 -1
BITMAP
0000000000000051000000004200
0000000000006DB20000005CC400
00000000017DA33BB0005CC429D1
000000017EA34BD6005DB429E810
0000017E924BD6006DB42AE71000
000001724CD50000733AE7100000
00000007C500000004D710000000
0000000000000000000000000000
0000000001579975100000000000
00000003BEA8668AEB4000000000
000001AD6158998515CB20000000
00003D829EB7667AEA26D4000000
0002E53D9148AA8517D53D300000
001C65D34DC8657BE62D74D20000
00892D28D427AA833C92D47A0000
01E2C56C29D8557DA2B83D2D3000
0796B3E2BA1000008C2D49879000
0C4B5A77B00000000995C3D2D000
0E1E1E1E2000000001E1D2D2D200
2D3D3D3C0000000000A5B5A5B400
3C4B4B5A0000000000879696A500
2C3C4C4B000000000096A6A5A400
1E1E1E1E0000000000D2C3C3C300
0D2D3C5A7000000005C3E1E1E100
097885C2D40000003E3A76A5A000
03D2E2A83D820027E46C1E3B5000
00B66C1C918DEED927D2A84C0000
003E29A1AD721126CB19B1D40000
0006D18C34ADFFEA42BA1B700000
00007D35DB621125AE62C9000000
000005E816ADFFEB617E60000000
00000019E95211249EA200000000
0000000016ADEEDB720000000000
ENDCHAR
STARTCHAR ohungarumlaut
ENCODING 337
SWIDTH 833 0
DWIDTH 23 0
BBX 26 30 0 -1
BITMAP
00000000000024000000001500
00000000003AE700000018E810
000000003AD717E40029E815D7
0000003BD617EA3029E816DB40
00003BD617EA2029E816DB4000
00004618E920002716DB300000
000001D920000000BA30000000
00000000000000000000000000
00000000278A97300000000000
0000005DD86568CD6000000000
00001BC4269A9722AD20000000
0002D72AE96568DB35E4000000
001D64E7169B9616E64E200000
00983E35EA6459E72D56B00000
02E1D47D249BA52B92E2C50000
0877A4D2AC645BB1C6795B0000
0D2C3B58A000008A3D1E1E1000
1E2E1E1E1000000D3C4B4B4000
3C3C3B4B0000000879696A5000
3C4B4B5A000000087869696000
2D2D2D2D0000000B4A4A5B4000
0E1E2D3B7000004D1E1E1D2000
0A5976B2D81016E3995B3C0000
05C2E2B929EEEA27C1D4A70000
00C57C1AC51114BB2A93D10000
003E28C24AEEEB52BA1D500000
0005D36E9410148E72C7000000
00004E716BEFEC726D60000000
000002AD8420137DB300000000
000000027BDEDC830000000000
ENDCHAR
STARTCHAR OE
ENCODING 338
SWIDTH 1317 0
DWIDTH 37 0
BBX 36 25 0 -1
BITMAP
000000000157998520000000000000000000
00000003BEA8667AEB5054646AAAAAAAAAA8
000001AD5158998515CA8696995555555554
00003D729EB7667AE92686969CAAAAAAAAA8
0002E43D8148A98418D48696985555555554
001D55D35DC8657BD53C86969CBBBBBBBBB9
00892D28D427AA833C918696984444444443
01E2D57C29D8557DA1B78696950000000000
0786B3E2B90000008C1C8696950000000000
0C3C4A77A000000009848696950000000000
1E1E1E1E2000000001E186969DCCCC900000
2D3C3C3C0000000000A58696973333200000
3B4B5B5A00000000009686969DCCCC900000
3C3C4C4B0000000000958696973333200000
1E2E2E1E0000000000D286969EDDDD900000
0D2D3C4A6000000005B18696972222200000
096886B2D40000003E388696950000000000
04C2E2B83D820028E46C8696950000000000
00B66B1D918DEED817D18696950000000000
003D29A1AD721015CA2886969EEEEEEEEEEB
0006C19C34ADFED933BA8696961111111111
00007D25EA621025AE6186969FEEEEEEEEEC
000005E816ADFFDA617D8696960000000000
00000019E95211248EA286969FFFFFFFFFFC
0000000016ADEEDB72000000000000000000
ENDCHAR
STARTCHAR oe
ENCODING 339
SWIDTH 1174 0
DWIDTH 33 0
BBX 32 22 0 -1
BITMAP
00000000278A97400000000000000000
0000005DD86568CE764646AAAAAAAAA8
00001BC4269A97329879698444444443
0002D72AE96568DC387969CBBBBBBBB8
001D64E7069B9615D879698444444443
00983E35EA6469E7187969DBBBBBBBB9
02E1D47D249BA52C9879698333333333
0877A4D1AC645BB0C879696000000000
0D2C3B58A000008A3879699555555551
1E2E1E1E1000000D387969CAAAAAAAA2
3C3C3B4B000000087879699555555551
3C4B4B5A00000008787969CAAAAAAAA2
2D2D2D2D0000000B4879699666666661
0E1E1D3B7000004D087969B999999992
0A5976B2D81016E39879696000000000
05C2E1B919EEEA28C879696000000000
00C57C0AC51114BC187969EEEEEEEEEB
003E28C24AEEFB51B879696111111111
0005D36E9410148E787969FEEEEEEEEB
00004E716BEFEC825879696000000000
000002AD8420137CB87969FFFFFFFFFC
000000027BDEEC940000000000000000
ENDCHAR
STARTCHAR Racute
ENCODING 340
SWIDTH 843 0
DWIDTH 24 0
BBX 22 32 1 0
BITMAP
0000000000000510000000
000000000006DB20000000
0000000017DA33BB000000
00000017EA34BD60000000
000017E924BD6000000000
00001724CD500000000000
0000007C50000000000000
0000000000000000000000
0000000000000000000000
7AAAAAAAAAAAAA96100000
B855555555555579E91000
B48AAAAAAAAAAA8518D200
B4C755555555556AD35D10
B4C38BBBBBBBBA934E47A0
B4C3C6444444447D83D1D3
B4C3C39BBBBBBB82D59778
B4C3C3C6444444995B4B5B
B4C3C3C20000002D3D3C3C
B4C3C3C34444449A5B4B5B
B4C3C3C6BBBBBB92C59788
B4C3C3C44444446D92E1E4
B4C3C3C6BBBBBB943D57C0
B4C3C3C44444456AD45E20
B4C3C3C5AAAAAA9618E400
B4C3C3C455555579EF2000
B4C3C3C5AAADCDBD5D4000
B4C3C3C20006A798879000
B4C3C3C20001E2D3D2E000
B4C3C3C20000C4C4C3C400
B4C3C3C200007979797900
B4C3C3C200002D2D2D2E00
B4C3C3C200000C3C4C4C40
ENDCHAR
STARTCHAR Rcommaaccent
ENCODING 342
SWIDTH 843 0
DWIDTH 24 0
BBX 22 33 1 -10
BITMAP
7AAAAAAAAAAAAA96100000
B855555555555579E91000
B48AAAAAAAAAAA8518D200
B4C755555555556AD35D10
B4C38BBBBBBBBA934E47A0
B4C3C6444444447D83D1D3
B4C3C39BBBBBBB82D59778
B4C3C3C6444444995B4B5B
B4C3C3C20000002D3D3C3C
B4C3C3C34444449A5B4B5B
B4C3C3C6BBBBBB92C59788
B4C3C3C44444446D92E1E4
B4C3C3C6BBBBBB943D57C0
B4C3C3C44444456AD45E20
B4C3C3C5AAAAAA9618E400
B4C3C3C455555579EF2000
B4C3C3C5AAADCDBD5D4000
B4C3C3C20006A798879000
B4C3C3C20001E2D3D2E000
B4C3C3C20000C4C4C3C400
B4C3C3C200007979797900
B4C3C3C200002D2D2D2E00
B4C3C3C200000C3C4C4C40
0000000000000000000000
00000001E2D2D000000000
00000001E2D2D000000000
00000001E2D2D000000000
00000001D2D2D000000000
0000000002D2C000000000
000000003A94B000000000
00000001C9197000000000
0000000035AC1000000000
00000001CA710000000000
ENDCHAR
STARTCHAR rcommaaccent
ENCODING 343
SWIDTH 831 0
DWIDTH 23 0
BBX 22 30 1 -10
BITMAP
8AAAAAAAAAAAAA96200000
B744444444444569E91000
B48BBBBBBBBBBB9618D200
B4C644444444445AD36D10
B4C39BBBBBBBBB944E3980
B4C3C6444444446D75C2E0
B4C3C3ACCCCCCC82E2C3C3
B4C3C3C5333333B69696A5
B4C3C3C4666666D5A5A5B5
B4C3C3C599999963E2D2D3
B4C3C3C46666669E56B3E0
B4C3C3C5999999726D2B80
B4C3C3C47777778CC28C10
B4C3C3C5888888732BD200
B4C3C3C47777779BFA0000
B4C3C3C5889EADAB7A0000
B4C3C3C2000E2E2E2E1000
B4C3C3C20009796A697000
B4C3C3C20003D4C4C4C000
B4C3C3C20000D3D3D3D300
0000000000000000000000
00000009695A5000000000
00000009695A5000000000
00000009695A5000000000
00000008595A5000000000
000000000A5A5000000000
000000015E2C3000000000
00000008B42E0000000000
0000000137E60000000000
00000007B9300000000000
ENDCHAR
STARTCHAR Rcaron
ENCODING 344
SWIDTH 843 0
DWIDTH 24 0
BBX 22 32 1 0
BITMAP
001A1B11A1A10000000000
000C4A6795A00000000000
0006A46D3B500000000000
0001E14C2D000000000000
000097A688000000000000
00003DE1E2000000000000
00000B94A0000000000000
0000000000000000000000
0000000000000000000000
7AAAAAAAAAAAAA96100000
B855555555555579E91000
B48AAAAAAAAAAA8518D200
B4C755555555556AD35D10
B4C38BBBBBBBBA934E47A0
B4C3C6444444447D83D1D3
B4C3C39BBBBBBB82D59778
B4C3C3C6444444995B4B5B
B4C3C3C20000002D3D3C3C
B4C3C3C34444449A5B4B5B
B4C3C3C6BBBBBB92C59788
B4C3C3C44444446D92E1E4
B4C3C3C6BBBBBB943D57C0
B4C3C3C44444456AD45E20
B4C3C3C5AAAAAA9618E400
B4C3C3C455555579EF2000
B4C3C3C5AAADCDBD5D4000
B4C3C3C20006A798879000
B4C3C3C20001E2D3D2E000
B4C3C3C20000C4C4C3C400
B4C3C3C200007979797900
B4C3C3C200002D2D2D2E00
B4C3C3C200000C3C4C4C40
ENDCHAR
STARTCHAR rcaron
ENCODING 345
SWIDTH 831 0
DWIDTH 23 0
BBX 22 29 1 0
BITMAP
000000392A0392A0000000
0000000E2C497780000000
00000008864E1D20000000
00000002D16A4B00000000
00000000B5C4A600000000
000000005DD1E100000000
000000000D768000000000
0000000000000000000000
0000000000000000000000
8AAAAAAAAAAAAA96200000
B744444444444569E91000
B48BBBBBBBBBBB9618D200
B4C644444444445AD36D10
B4C39BBBBBBBBB944E3980
B4C3C6444444446D75C2E0
B4C3C3ACCCCCCC82E2C3C3
B4C3C3C5333333B69696A5
B4C3C3C4666666D5A5A5B5
B4C3C3C599999963E2D2D3
B4C3C3C46666669E56B3E0
B4C3C3C5999999726D2B80
B4C3C3C47777778CC28C10
B4C3C3C5888888732BD200
B4C3C3C47777779BFA0000
B4C3C3C5889EADAB7A0000
B4C3C3C2000E2E2E2E1000
B4C3C3C20009796A697000
B4C3C3C20003D4C4C4C000
B4C3C3C20000D3D3D3D300
ENDCHAR
STARTCHAR Sacute
ENCODING 346
SWIDTH 682 0
DWIDTH 19 0
BBX 19 33 0 -1
BITMAP
00000000000000015000
000000000000018E9100
0000000000018E825C70
00000000029E815DC400
000000029E816DB40000
00000002716DB4000000
000000000AB300000000
00000000000000000000
00000036898752000000
00005CD97667ADD71000
0009D4269A985239E500
009B19E96567ADB53C30
04D2C9169AA8524C9000
0A68A2DA65569DA21000
0E1E2C639AA962500000
2D2D2D1E644585000000
2D3C3C3C000000000000
1E1E1E1CCCBA83000000
0D2C49A133458DB20000
0885C1AEDCCA717E3000
02E38C4133359E46D000
006D35CEDCCA43D2A600
0006E9312236D66A4C00
000028DFDDC72E1E1E10
00000000123E2C2C3D20
00000130001D2C3C3C30
000005CEEEE82E1E1E10
0002D8411114D66B3D00
008717BEEEEB43E3B700
272AD84100149D46C000
1AC427BDEFEC718D2000
005CC84210147DA10000
000037BDEFEC83000000
ENDCHAR
STARTCHAR sacute
ENCODING 347
SWIDTH 683 0
DWIDTH 19 0
BBX 19 30 0 -1
BITMAP
00000000000000015000
000000000000018E9100
0000000000018E825C70
00000000029E815DC400
000000029E816DB40000
00000002716DB4000000
000000000AB300000000
00000000000000000000
00000000222100000000
000028CEDCDEEA610000
0008E8312321159E8100
00AB26CECCCDEA519D20
06B2CA31343215BD4300
0D3B73BECBCDEA446000
1E1E1E50000015B20000
2D3C2D00000000000000
1E1E1BA6554420000000
0B58B158AAABDE810000
04D28E965554228E4000
007D42689AABDC53E300
0004CD97665413D66B00
00000368999AD82E1E10
0000000000000D3C3C30
0001720000001D3C3C30
00227DB97779D83D1E10
006E7136787525D47A00
2D529EC9878ADB36D100
02CC5136787523AD2000
0004AECA888ADD700000
00000035676520000000
ENDCHAR
STARTCHAR Scircumflex
ENCODING 348
SWIDTH 682 0
DWIDTH 19 0
BBX 19 33 0 -1
BITMAP
00000003C29300000000
00000009E87900000000
0000001E4D1E10000000
0000006A0C4A60000000
000000C486A4C0000000
000003D1E1E1D3000000
00000776808677000000
00000000000000000000
00000036898752000000
00005CD97667ADD71000
0009D4269A985239E500
009B19E96567ADB53C30
04D2C9169AA8524C9000
0A68A2DA65569DA21000
0E1E2C639AA962500000
2D2D2D1E644585000000
2D3C3C3C000000000000
1E1E1E1CCCBA83000000
0D2C49A133458DB20000
0885C1AEDCCA717E3000
02E38C4133359E46D000
006D35CEDCCA43D2A600
0006E9312236D66A4C00
000028DFDDC72E1E1E10
00000000123E2C2C3D20
00000130001D2C3C3C30
000005CEEEE82E1E1E10
0002D8411114D66B3D00
008717BEEEEB43E3B700
272AD84100149D46C000
1AC427BDEFEC718D2000
005CC84210147DA10000
000037BDEFEC83000000
ENDCHAR
STARTCHAR scircumflex
ENCODING 349
SWIDTH 683 0
DWIDTH 19 0
BBX 19 30 0 -1
BITMAP
00000002C29300000000
00000008E86900000000
0000000E4E1E10000000
0000005B0B5960000000
000000B585B3C0000000
000002E1E1E2D3000000
00000775908668000000
00000000000000000000
00000000222100000000
000028CEDCDEEA610000
0008E8312321159E8100
00AB26CECCCDEA519D20
06B2CA31343215BD4300
0D3B73BECBCDEA446000
1E1E1E50000015B20000
2D3C2D00000000000000
1E1E1BA6554420000000
0B58B158AAABDE810000
04D28E965554228E4000
007D42689AABDC53E300
0004CD97665413D66B00
00000368999AD82E1E10
0000000000000D3C3C30
0001720000001D3C3C30
00227DB97779D83D1E10
006E7136787525D47A00
2D529EC9878ADB36D100
02CC5136787523AD2000
0004AECA888ADD700000
00000035676520000000
ENDCHAR
STARTCHAR Scedilla
ENCODING 350
SWIDTH 682 0
DWIDTH 19 0
BBX 19 34 0 -10
BITMAP
00000036898752000000
00005CD97667ADD71000
0009D4269A985239E500
009B19E96567ADB53C30
04D2C9169AA8524C9000
0A68A2DA65569DA21000
0E1E2C639AA962500000
2D2D2D1E644585000000
2D3C3C3C000000000000
1E1E1E1CCCBA83000000
0D2C49A133458DB20000
0885C1AEDCCA717E3000
02E38C4133359E46D000
006D35CEDCCA43D2A600
0006E9312236D66A4C00
000028DFDDC72E1E1E10
00000000123E2C2C3D20
00000130001D2C3C3C30
000005CEEEE82E1E1E10
0002D8411114D66B3D00
008717BEEEEB43E3B700
272AD84100149D46C000
1AC427BDEFEC718D2000
005CC84210147DA10000
000037BDFFFC83000000
00000037F0F000000000
000008D750F000000000
00002E15ABF000000000
00005A4D544000000000
00005969000000000000
00005A3E776000000000
00001E23788000000000
000006EA877000000000
00000026788000000000
ENDCHAR
STARTCHAR scedilla
ENCODING 351
SWIDTH 683 0
DWIDTH 19 0
BBX 19 31 0 -10
BITMAP
00000000222100000000
000028CEDCDEEA610000
0008E8312321159E8100
00AB26CECCCDEA519D20
06B2CA31343215BD4300
0D3B73BECBCDEA446000
1E1E1E50000015B20000
2D3C2D00000000000000
1E1E1BA6554420000000
0B58B158AAABDE810000
04D28E965554228E4000
007D42689AABDC53E300
0004CD97665413D66B00
00000368999AD82E1E10
0000000000000D3C3C30
0001720000001D3C3C30
00227DB97779D83D1E10
006E7136787525D47A00
2D529EC9878ADB36D100
02CC5136787523AD2000
0004AECA888ADD700000
00000035E7E520000000
00000037F1F000000000
000008D750F000000000
00001E15ABF000000000
00004B3D544000000000
00005A5A000000000000
00004B2E877000000000
00001E23788000000000
000006EA877000000000
00000026788000000000
ENDCHAR
STARTCHAR Scaron
ENCODING 352
SWIDTH 682 0
DWIDTH 19 0
BBX 19 33 0 -1
BITMAP
00000483904839000000
000001E1D2B597000000
0000009784E1E1000000
0000003C0886A0000000
0000000C3D2C40000000
00000006DC3D00000000
00000001E58700000000
00000000000000000000
00000036898752000000
00005CD97667ADD71000
0009D4269A985239E500
009B19E96567ADB53C30
04D2C9169AA8524C9000
0A68A2DA65569DA21000
0E1E2C639AA962500000
2D2D2D1E644585000000
2D3C3C3C000000000000
1E1E1E1CCCBA83000000
0D2C49A133458DB20000
0885C1AEDCCA717E3000
02E38C4133359E46D000
006D35CEDCCA43D2A600
0006E9312236D66A4C00
000028DFDDC72E1E1E10
00000000123E2C2C3D20
00000130001D2C3C3C30
000005CEEEE82E1E1E10
0002D8411114D66B3D00
008717BEEEEB43E3B700
272AD84100149D46C000
1AC427BDEFEC718D2000
005CC84210147DA10000
000037BDEFEC83000000
ENDCHAR
STARTCHAR scaron
ENCODING 353
SWIDTH 683 0
DWIDTH 19 0
BBX 19 30 0 -1
BITMAP
00000483904839000000
000001E1D2B597000000
0000009784E1E1000000
0000003C0886A0000000
0000000C3D2C40000000
00000006DC3D00000000
00000001E58700000000
00000000000000000000
00000000222100000000
000028CEDCDEEA610000
0008E8312321159E8100
00AB26CECCCDEA519D20
06B2CA31343215BD4300
0D3B73BECBCDEA446000
1E1E1E50000015B20000
2D3C2D00000000000000
1E1E1BA6554420000000
0B58B158AAABDE810000
04D28E965554228E4000
007D42689AABDC53E300
0004CD97665413D66B00
00000368999AD82E1E10
0000000000000D3C3C30
0001720000001D3C3C30
00227DB97779D83D1E10
006E7136787525D47A00
2D529EC9878ADB36D100
02CC5136787523AD2000
0004AECA888ADD700000
00000035676520000000
ENDCHAR
STARTCHAR Tcommaaccent
ENCODING 354
SWIDTH 591 0
DWIDTH 17 0
BBX 16 32 0 -9
BITMAP
2AAAAAAAAAAAAAA6
1555555555555553
2AAAAAAAAAAAAAA6
1555555555555553
2BBBBBBBBBBBBBB6
14447C7C7C8B4442
00004B4B4A5A0000
00004B4B4A5A0000
00004B4B4A5A0000
00004B4B4A5A0000
00004B4B4A5A0000
00004B4B4A5A0000
00004B4B4A5A0000
00004B4B4A5A0000
00004B4B4A5A0000
00004B4B4A5A0000
00004B4B4A5A0000
00004B4B4A5A0000
00004B4B4A5A0000
00004B4B4A5A0000
00004B4B4A5A0000
00004B4B4A5A0000
00004B6F7F5A0000
0000059B4B000000
0000CB644B000000
0005B17ACB000000
000968B443000000
000A5A5000000000
000967C775000000
0005C15886000000
0000AD9775000000
0000036785000000
ENDCHAR
STARTCHAR tcommaaccent
ENCODING 355
SWIDTH 588 0
DWIDTH 16 0
BBX 16 29 0 -9
BITMAP
2AAAAAAAAAAAAAA6
1444444444444443
2BBBBBBBBBBBBBB6
1444444444444442
2BBBBBBBBBBBBBB7
1444464656564442
00004B4B4A5A0000
00004B4B4A5A0000
00004B4B4A5A0000
00004B4B4A5A0000
00004B4B4A5A0000
00004B4B4A5A0000
00004B4B4A5A0000
00004B4B4A5A0000
00004B4B4A5A0000
00004B4B4A5A0000
00004B4B4A5A0000
00004B4B4A5A0000
00004B4B4A5A0000
00004B6F7F5A0000
0000059B4A000000
0000CB644A000000
0006B17ACA000000
000968B443000000
000A5A5000000000
000967C775000000
0006B15886000000
0000AD9775000000
0000036885000000
ENDCHAR
STARTCHAR Tcaron
ENCODING 356
SWIDTH 591 0
DWIDTH 17 0
BBX 16 32 0 0
BITMAP
0000A2830A283000
0000886A3D2E0000
00002D1997780000
00000B51E1D20000
000005B6A4B00000
000000ED4A500000
0000008C1D000000
0000000000000000
0000000000000000
2AAAAAAAAAAAAAA6
1555555555555553
2AAAAAAAAAAAAAA6
1555555555555553
2BBBBBBBBBBBBBB6
14447C7C7C8B4442
00004B4B4A5A0000
00004B4B4A5A0000
00004B4B4A5A0000
00004B4B4A5A0000
00004B4B4A5A0000
00004B4B4A5A0000
00004B4B4A5A0000
00004B4B4A5A0000
00004B4B4A5A0000
00004B4B4A5A0000
00004B4B4A5A0000
00004B4B4A5A0000
00004B4B4A5A0000
00004B4B4A5A0000
00004B4B4A5A0000
00004B4B4A5A0000
00004B4B4A5A0000
ENDCHAR
STARTCHAR tcaron
ENCODING 357
SWIDTH 842 0
DWIDTH 24 0
BBX 23 21 0 0
BITMAP
000000000000000004959590
2AAAAAAAAAAAAAA605A5A690
144444444444444305A5A690
2BBBBBBBBBBBBBB605A5A690
144444444444444200069690
2BBBBBBBBBBBBBB7002B6780
144446465656444204D80C40
00004B4B4A5A00000024BB00
00004B4B4A5A000004DB6000
00004B4B4A5A000000000000
00004B4B4A5A000000000000
00004B4B4A5A000000000000
00004B4B4A5A000000000000
00004B4B4A5A000000000000
00004B4B4A5A000000000000
00004B4B4A5A000000000000
00004B4B4A5A000000000000
00004B4B4A5A000000000000
00004B4B4A5A000000000000
00004B4B4A5A000000000000
00004B4B4A5A000000000000
ENDCHAR
STARTCHAR Tbar
ENCODING 358
SWIDTH 591 0
DWIDTH 17 0
BBX 16 23 0 0
BITMAP
2AAAAAAAAAAAAAA6
1555555555555553
2AAAAAAAAAAAAAA6
1555555555555553
2BBBBBBBBBBBBBB6
14447C7C7C8B4442
00004B4B4A5A0000
00004B4B4A5A0000
00004B4B4A5A0000
1DDD1B4B4A5AADD7
02223B4B4A5A1221
1DDD1B4B4A5ABDD7
01113B4B4A5A1111
1EEE6B4B4A5ABEE7
01114B4B4A5A1110
00004B4B4A5A0000
00004B4B4A5A0000
00004B4B4A5A0000
00004B4B4A5A0000
00004B4B4A5A0000
00004B4B4A5A0000
00004B4B4A5A0000
00004B4B4A5A0000
ENDCHAR
STARTCHAR tbar
ENCODING 359
SWIDTH 588 0
DWIDTH 16 0
BBX 16 20 0 0
BITMAP
2AAAAAAAAAAAAAA6
1444444444444443
2BBBBBBBBBBBBBB6
1444444444444442
2BBBBBBBBBBBBBB7
1444464656564442
00004B4B4A5A0000
00004B4B4A5A0000
00004B4B4A5A0000
02223B4B4A5A2221
1DDD1B4B4A5AADD7
03333B4B4A5A2331
1CCC1B4B4A5AACC6
03334B4B4A5A2332
1CCC6B4B4A5A9CC6
00004B4B4A5A0000
00004B4B4A5A0000
00004B4B4A5A0000
00004B4B4A5A0000
00004B4B4A5A0000
ENDCHAR
STARTCHAR Utilde
ENCODING 360
SWIDTH 905 0
DWIDTH 25 0
BBX 24 31 1 -1
BITMAP
0000048AAAAAAAA00A0A0000
00009C75555555503C2D0000
0004C06ABBBBBBBBE55A0000
000976C54444444412D40000
000A4B509BBBBBBBCE600000
000313103444444430000000
000000000000000000000000
819191900000000082828181
D2D1E1E000000000C3C3D2D2
D2D1E1E000000000C3C3D2D2
D2D1E1E000000000C3C3D2D2
D2D1E1E000000000C3C3D2D2
D2D1E1E000000000C3C3D2D2
D2D1E1E000000000C3C3D2D2
D2D1E1E000000000C3C3D2D2
D2D1E1E000000000C3C3D2D2
D2D1E1E000000000C3C3D2D2
D2D1E1E000000000C3C3D2D2
D2D1E1E000000000C3C3D2D2
D2D1E1E000000000C3C3D2D2
C3D2D2E100000000D2D2D1E1
B4B4B4B500000002E1E1E1F0
87786A4D2000000B77A4B4C0
4C2D1D56D61004C92E2B5980
0D4993E53AEEEC53D66C2E20
05D1C73DA411139E54E3A800
00AA2CA16BEFFC717E47D100
000BA19D8310037DB27D2000
00009D527CEFEC833BC10000
000004CD8320137BD6000000
000000049CEFEC9500000000
ENDCHAR
STARTCHAR utilde
ENCODING 361
SWIDTH 795 0
DWIDTH 22 0
BBX 21 28 1 -1
BITMAP
000179AAAAAAA605554000
003E95555555530B596000
00C529ABBBBBBBCC1D3000
01E0D844444444308B0000
03C3C04BBBBBBBBEB10000
0131301444444431000000
0000000000000000000000
9191A0A000000829191910
D2E1E1F000000C3D2D2E10
D2E1E1F000000C3D2D2E10
D2E1E1F000000C3D2D2E10
D2E1E1F000000C3D2D2E10
D2E1E1F000000C3D2D2E10
D2E1E1F000000C3D2D2E10
D2E1E1F000000C3D2D2E10
D2E1E1F000000C3D2D2E10
D2E1E1F000000C3D2D2E10
D2E1E1F000000C3D2D2E10
D2D2E1E100000D2D2E1E10
B3C4C3B600003E1E1F1E00
96887A3E6004D57A5B3C00
4B3E1D63BFFC54E2B58700
0C48A2DA30128D47B2E100
04D2BA27CFFD828D2C7000
007C28D831126DA2AA0000
0008D439DFFDA42CA10000
00004CB620025AD6000000
00000049CEEDA510000000
ENDCHAR
STARTCHAR Umacron
ENCODING 362
SWIDTH 905 0
DWIDTH 25 0
BBX 24 24 1 -1
BITMAP
819191900000000082828181
D2D1E1E000000000C3C3D2D2
D2D1E1E000000000C3C3D2D2
D2D1E1E000000000C3C3D2D2
D2D1E1E000000000C3C3D2D2
D2D1E1E000000000C3C3D2D2
D2D1E1E000000000C3C3D2D2
D2D1E1E000000000C3C3D2D2
D2D1E1E000000000C3C3D2D2
D2D1E1E000000000C3C3D2D2
D2D1E1E000000000C3C3D2D2
D2D1E1E000000000C3C3D2D2
D2D1E1E000000000C3C3D2D2
C3D2D2E100000000D2D2D1E1
B4B4B4B500000002E1E1E1F0
87786A4D2000000B77A4B4C0
4C2D1D56D61004C92E2B5980
0D4993E53AEEEC53D66C2E20
05D1C73DA411139E54E3A800
00AA2CA16BEFFC717E47D100
000BA19D8310037DB27D2000
00009D527CEFEC833BC10000
000004CD8320137BD6000000
000000049CEFEC9500000000
ENDCHAR
STARTCHAR umacron
ENCODING 363
SWIDTH 795 0
DWIDTH 22 0
BBX 21 21 1 -1
BITMAP
9191A0A000000829191910
D2E1E1F000000C3D2D2E10
D2E1E1F000000C3D2D2E10
D2E1E1F000000C3D2D2E10
D2E1E1F000000C3D2D2E10
D2E1E1F000000C3D2D2E10
D2E1E1F000000C3D2D2E10
D2E1E1F000000C3D2D2E10
D2E1E1F000000C3D2D2E10
D2E1E1F000000C3D2D2E10
D2E1E1F000000C3D2D2E10
D2D2E1E100000D2D2E1E10
B3C4C3B600003E1E1F1E00
96887A3E6004D57A5B3C00
4B3E1D63BFFC54E2B58700
0C48A2DA30128D47B2E100
04D2BA27CFFD828D2C7000
007C28D831126DA2AA0000
0008D439DFFDA42CA10000
00004CB620025AD6000000
00000049CEEDA510000000
ENDCHAR
STARTCHAR Ubreve
ENCODING 364
SWIDTH 905 0
DWIDTH 25 0
BBX 24 30 1 -1
BITMAP
000000022400031400000000
000000058A735C5900000000
00000000C65864C200000000
0000000018BBBA2000000000
000000000000000000000000
000000000000000000000000
819191900000000082828181
D2D1E1E000000000C3C3D2D2
D2D1E1E000000000C3C3D2D2
D2D1E1E000000000C3C3D2D2
D2D1E1E000000000C3C3D2D2
D2D1E1E000000000C3C3D2D2
D2D1E1E000000000C3C3D2D2
D2D1E1E000000000C3C3D2D2
D2D1E1E000000000C3C3D2D2
D2D1E1E000000000C3C3D2D2
D2D1E1E000000000C3C3D2D2
D2D1E1E000000000C3C3D2D2
D2D1E1E000000000C3C3D2D2
C3D2D2E100000000D2D2D1E1
B4B4B4B500000002E1E1E1F0
87786A4D2000000B77A4B4C0
4C2D1D56D61004C92E2B5980
0D4993E53AEEEC53D66C2E20
05D1C73DA411139E54E3A800
00AA2CA16BEFFC717E47D100
000BA19D8310037DB27D2000
00009D527CEFEC833BC10000
000004CD8320137BD6000000
000000049CEFEC9500000000
ENDCHAR
STARTCHAR ubreve
ENCODING 365
SWIDTH 795 0
DWIDTH 22 0
BBX 21 27 1 -1
BITMAP
0000004220013310000000
000000D4B44A6C10000000
0000005B47849800000000
00000004BBBB6000000000
0000000000000000000000
0000000000000000000000
9191A0A000000829191910
D2E1E1F000000C3D2D2E10
D2E1E1F000000C3D2D2E10
D2E1E1F000000C3D2D2E10
D2E1E1F000000C3D2D2E10
D2E1E1F000000C3D2D2E10
D2E1E1F000000C3D2D2E10
D2E1E1F000000C3D2D2E10
D2E1E1F000000C3D2D2E10
D2E1E1F000000C3D2D2E10
D2E1E1F000000C3D2D2E10
D2D2E1E100000D2D2E1E10
B3C4C3B600003E1E1F1E00
96887A3E6004D57A5B3C00
4B3E1D63BFFC54E2B58700
0C48A2DA30128D47B2E100
04D2BA27CFFD828D2C7000
007C28D831126DA2AA0000
0008D439DFFDA42CA10000
00004CB620025AD6000000
00000049CEEDA510000000
ENDCHAR
STARTCHAR Uring
ENCODING 366
SWIDTH 905 0
DWIDTH 25 0
BBX 24 33 1 -1
BITMAP
0000000005CCC70000000000
000000005B47489000000000
00000000C4C5A6B200000000
00000001B8400C8500000000
00000000D68059A300000000
00000000977B94C000000000
000000001AA79C2000000000
000000000025300000000000
000000000000000000000000
819191900000000082828181
D2D1E1E000000000C3C3D2D2
D2D1E1E000000000C3C3D2D2
D2D1E1E000000000C3C3D2D2
D2D1E1E000000000C3C3D2D2
D2D1E1E000000000C3C3D2D2
D2D1E1E000000000C3C3D2D2
D2D1E1E000000000C3C3D2D2
D2D1E1E000000000C3C3D2D2
D2D1E1E000000000C3C3D2D2
D2D1E1E000000000C3C3D2D2
D2D1E1E000000000C3C3D2D2
D2D1E1E000000000C3C3D2D2
C3D2D2E100000000D2D2D1E1
B4B4B4B500000002E1E1E1F0
87786A4D2000000B77A4B4C0
4C2D1D56D61004C92E2B5980
0D4993E53AEEEC53D66C2E20
05D1C73DA411139E54E3A800
00AA2CA16BEFFC717E47D100
000BA19D8310037DB27D2000
00009D527CEFEC833BC10000
000004CD8320137BD6000000
000000049CEFEC9500000000
ENDCHAR
STARTCHAR uring
ENCODING 367
SWIDTH 795 0
DWIDTH 22 0
BBX 21 30 1 -1
BITMAP
000000019CCA2000000000
0000001C5564C200000000
00000067A76C5900000000
00000094B0084C00000000
00000075C21B4B00000000
0000002C4BB5A500000000
00000004C87C7000000000
0000000014510000000000
0000000000000000000000
9191A0A000000829191910
D2E1E1F000000C3D2D2E10
D2E1E1F000000C3D2D2E10
D2E1E1F000000C3D2D2E10
D2E1E1F000000C3D2D2E10
D2E1E1F000000C3D2D2E10
D2E1E1F000000C3D2D2E10
D2E1E1F000000C3D2D2E10
D2E1E1F000000C3D2D2E10
D2E1E1F000000C3D2D2E10
D2E1E1F000000C3D2D2E10
D2D2E1E100000D2D2E1E10
B3C4C3B600003E1E1F1E00
96887A3E6004D57A5B3C00
4B3E1D63BFFC54E2B58700
0C48A2DA30128D47B2E100
04D2BA27CFFD828D2C7000
007C28D831126DA2AA0000
0008D439DFFDA42CA10000
00004CB620025AD6000000
00000049CEEDA510000000
ENDCHAR
STARTCHAR Uhungarumlaut
ENCODING 368
SWIDTH 905 0
DWIDTH 25 0
BBX 26 33 1 -1
BITMAP
00000000000024000000001500
00000000002AE700000018E910
000000003AE717D40018E925C8
0000003AD717EA3028E825CC50
00003AD617EA3029E815DB4000
00004617E920002716DB400000
000001D920000000AB30000000
00000000000000000000000000
00000000000000000000000000
81919190000000008282818100
D2D1E1E000000000C3C3D2D200
D2D1E1E000000000C3C3D2D200
D2D1E1E000000000C3C3D2D200
D2D1E1E000000000C3C3D2D200
D2D1E1E000000000C3C3D2D200
D2D1E1E000000000C3C3D2D200
D2D1E1E000000000C3C3D2D200
D2D1E1E000000000C3C3D2D200
D2D1E1E000000000C3C3D2D200
D2D1E1E000000000C3C3D2D200
D2D1E1E000000000C3C3D2D200
D2D1E1E000000000C3C3D2D200
C3D2D2E100000000D2D2D1E100
B4B4B4B500000002E1E1E1F000
87786A4D2000000B77A4B4C000
4C2D1D56D61004C92E2B598000
0D4993E53AEEEC53D66C2E2000
05D1C73DA411139E54E3A80000
00AA2CA16BEFFC717E47D10000
000BA19D8310037DB27D200000
00009D527CEFEC833BC1000000
000004CD8320137BD600000000
000000049CEFEC950000000000
ENDCHAR
STARTCHAR uhungarumlaut
ENCODING 369
SWIDTH 795 0
DWIDTH 22 0
BBX 25 30 1 -1
BITMAP
00000000000510000000042000
0000000006DB20000004CC4000
00000006DA33AB0005CC529D10
000017DA33BD6005CC429E8100
0017EA24BD6005DB429E810000
001724BD60000742AE71000000
00007C500000003D7100000000
00000000000000000000000000
00000000000000000000000000
9191A0A0000008291919100000
D2E1E1F000000C3D2D2E100000
D2E1E1F000000C3D2D2E100000
D2E1E1F000000C3D2D2E100000
D2E1E1F000000C3D2D2E100000
D2E1E1F000000C3D2D2E100000
D2E1E1F000000C3D2D2E100000
D2E1E1F000000C3D2D2E100000
D2E1E1F000000C3D2D2E100000
D2E1E1F000000C3D2D2E100000
D2E1E1F000000C3D2D2E100000
D2D2E1E100000D2D2E1E100000
B3C4C3B600003E1E1F1E000000
96887A3E6004D57A5B3C000000
4B3E1D63BFFC54E2B587000000
0C48A2DA30128D47B2E1000000
04D2BA27CFFD828D2C70000000
007C28D831126DA2AA00000000
0008D439DFFDA42CA100000000
00004CB620025AD60000000000
00000049CEEDA5100000000000
ENDCHAR
STARTCHAR Uogonek
ENCODING 370
SWIDTH 905 0
DWIDTH 25 0
BBX 24 32 1 -9
BITMAP
819191900000000082828181
D2D1E1E000000000C3C3D2D2
D2D1E1E000000000C3C3D2D2
D2D1E1E000000000C3C3D2D2
D2D1E1E000000000C3C3D2D2
D2D1E1E000000000C3C3D2D2
D2D1E1E000000000C3C3D2D2
D2D1E1E000000000C3C3D2D2
D2D1E1E000000000C3C3D2D2
D2D1E1E000000000C3C3D2D2
D2D1E1E000000000C3C3D2D2
D2D1E1E000000000C3C3D2D2
D2D1E1E000000000C3C3D2D2
C3D2D2E100000000D2D2D1E1
B4B4B4B500000002E1E1E1F0
87786A4D2000000B77A4B4C0
4C2D1D56D61004C92E2B5980
0D4993E53AEEEC53D66C2E20
05D1C73DA411139E54E3A800
00AA2CA16BEFFC717E47D100
000BA19D8310037DB27D2000
00009D527CEFEC833BC10000
000004CD8320137BD6000000
000000049FFFFC9500000000
00000000AB41000000000000
00000003D08E600000000000
0000000785C2000000000000
000000087871000000000000
000000087879600000000000
000000087879600000000000
000000087879600000000000
000000076768500000000000
ENDCHAR
STARTCHAR uogonek
ENCODING 371
SWIDTH 794 0
DWIDTH 22 0
BBX 21 29 1 -9
BITMAP
91A1A0A000000929191A10
D1E1E0F000000C2D2D1E10
D1E1E0F000000C2D2D1E10
D1E1E0F000000C2D2D1E10
D1E1E0F000000C2D2D1E10
D1E1E0F000000C2D2D1E10
D1E1E0F000000C2D2D1E10
D1E1E0F000000C2D2D1E10
D1E1E0F000000C2D2D1E10
D1E1E0F000000C2D2D1E10
D1E1E0F000000C2D2D1E10
D2E1E1E100000D2D1E1E10
C3C3C3B600003E1E1F1E00
9697793E5004D57A5B3B00
4B3E1D63BFFC44E2C59700
0D49A2D931128D37B2E100
04D2BA27DFFD828D2C7000
008C28D731126DA2AA0000
0008D439DFFDA43CA10000
00004CB620025AD6000000
0000004EFFFDA510000000
0000006D51000000000000
000000E25DA00000000000
000003C2E3000000000000
000004B4B0100000000000
000004B4A5A00000000000
000004B4A5A00000000000
000004B4A5A00000000000
0000039494900000000000
ENDCHAR
STARTCHAR Ycircumflex
ENCODING 374
SWIDTH 789 0
DWIDTH 22 0
BBX 22 32 0 0
BITMAP
0000000008839000000000
000000001EE1D200000000
0000000079A68800000000
00000000D34C2D00000000
00000004C26D3B50000000
0000000A688795B0000000
0000001D1C21C1C1000000
0000000000000000000000
0000000000000000000000
3646454500000045455554
1D2D2D2D100000C3D2D2D1
08787878700004A5A59690
01D2D2D2D0000C3C3C3D20
0086869696004B4B5A5A00
002D2D2D2D00B4B4C3C300
000969696963C3B4B4B000
0002D2D2D2AA5A4B4B3000
0000A5A5A53C3C3C3B0000
00003C3C3B96A5A5B40000
00000B4A54D2D2C3C00000
000003B3B969695A500000
000000B35D2D2D2D000000
0000004B87879696000000
0000000CD2D2D2D0000000
0000000696968780000000
0000000696878780000000
0000000696878780000000
0000000696878780000000
0000000696878780000000
0000000696878780000000
0000000696878780000000
0000000696878780000000
ENDCHAR
STARTCHAR ycircumflex
ENCODING 375
SWIDTH 733 0
DWIDTH 21 0
BBX 20 29 0 0
BITMAP
000000005B1B10000000
00000000CE4A50000000
00000003D6A4B0000000
0000000971E1D2000000
0000001E189778000000
0000006A4B3D2E000000
000000A4950B3A400000
00000000000000000000
00000000000000000000
46464646000009191919
1D2D2D2D20005A596968
07878796A000C3C3D2D2
01D2D2D2C304B5A5A690
0078696A4C0B3C3C3C20
001D2D2C3B5B4B4A5A00
000686A5B1B4B4B3C300
0000D2C3C5C3C4B4B000
0000685B2A5A5B4B4000
00000D2C4D3C3C3C0000
000006939695A5A40000
000000D3D2D2C3C00000
0000006E79696A500000
0000000F1E1E1E000000
0000000E0F0F1E000000
0000000E0F0F1E000000
0000000E0F0F1E000000
0000000E0F0F1E000000
0000000E0F0F1E000000
0000000E0F0F1E000000
ENDCHAR
STARTCHAR Ydieresis
ENCODING 376
SWIDTH 789 0
DWIDTH 22 0
BBX 22 28 0 0
BITMAP
0000747483003838380000
000095A5A4004B4B4A0000
000095A5A4004B4B4A0000
0000323231001414130000
0000000000000000000000
3646454500000045455554
1D2D2D2D100000C3D2D2D1
08787878700004A5A59690
01D2D2D2D0000C3C3C3D20
0086869696004B4B5A5A00
002D2D2D2D00B4B4C3C300
000969696963C3B4B4B000
0002D2D2D2AA5A4B4B3000
0000A5A5A53C3C3C3B0000
00003C3C3B96A5A5B40000
00000B4A54D2D2C3C00000
000003B3B969695A500000
000000B35D2D2D2D000000
0000004B87879696000000
0000000CD2D2D2D0000000
0000000696968780000000
0000000696878780000000
0000000696878780000000
0000000696878780000000
0000000696878780000000
0000000696878780000000
0000000696878780000000
0000000696878780000000
ENDCHAR
STARTCHAR Zacute
ENCODING 377
SWIDTH 854 0
DWIDTH 24 0
BBX 22 32 1 0
BITMAP
0000000000000000050000
0000000000000017DA2000
00000000000017EA34BA00
000000000017EA24BD6000
0000000017E924BD600000
000000001724CC50000000
00000000008C5000000000
0000000000000000000000
0000000000000000000000
9AAAAAAAAAAAAAAAAAAAA7
55555555555555555557F9
9AAAAAAAAAAAAAAA717E61
45555555555555542CB27B
ABBBBBBBBBBBB506E62CA1
44444444444432BB27D539
ABBBBBBBBA306E62CA27D5
34444444422BB27D52CA25
0000000006E62BA27D53C8
00000002BB26D62CA28D50
0000006D62BB27E53CA100
00002BB26D62CB28D50000
0005D62BB27E63CA100000
01AB26D62BB27D50000000
5D72BB26E63CA100000000
A26D62BB27D50000000000
2BB26E63CA13CDDDDDDDDA
D72BB27D50011111111111
26E62CA26DEEEEEEEEEEEB
BB27E50011111111111111
62CB28EEEEEEEEEEEEEEEB
6E60000000000000000000
EFFFFFFFFFFFFFFFFFFFFB
ENDCHAR
STARTCHAR zacute
ENCODING 378
SWIDTH 714 0
DWIDTH 20 0
BBX 20 29 0 0
BITMAP
00000000000000005100
000000000000005CC300
0000000000005DB429D1
00000000006DB42AE710
000000006DB33AE71000
00000000733AD7100000
0000000004D600000000
00000000000000000000
00000000000000000000
09AAAAAAAA8480935711
04555555553D57B1E3A1
09BBBBBBB88A2E2A84C0
0444444444E2B74D1D30
09BBBBBB6C75D1D48800
034444447C1E48A2D100
00000001E3992E2B5000
0000000A93E1B66B0000
0000004D1C66C1D20000
000001D57B1E39700000
000008B2E2A84D000000
00003E2B84D1D4000000
0000C75D1D57A0000000
0006C1D48A2E10000000
001E3992E2B600000000
00A93E1B75C5EEEEEEE0
04E1C66C1E3111111110
1D57B1E3998EEEEEEEE0
3B2E2993E10000000000
32A84D1C6AFFFFFFFFF0
ENDCHAR
STARTCHAR Zdotaccent
ENCODING 379
SWIDTH 854 0
DWIDTH 24 0
BBX 22 30 1 0
BITMAP
000000005AAAA400000000
0000000035555200000000
000000005AAAA400000000
0000000025555200000000
000000006BBBB400000000
0000000024444200000000
0000000000000000000000
9AAAAAAAAAAAAAAAAAAAA7
55555555555555555557F9
9AAAAAAAAAAAAAAA717E61
45555555555555542CB27B
ABBBBBBBBBBBB506E62CA1
44444444444432BB27D539
ABBBBBBBBA306E62CA27D5
34444444422BB27D52CA25
0000000006E62BA27D53C8
00000002BB26D62CA28D50
0000006D62BB27E53CA100
00002BB26D62CB28D50000
0005D62BB27E63CA100000
01AB26D62BB27D50000000
5D72BB26E63CA100000000
A26D62BB27D50000000000
2BB26E63CA13CDDDDDDDDA
D72BB27D50011111111111
26E62CA26DEEEEEEEEEEEB
BB27E50011111111111111
62CB28EEEEEEEEEEEEEEEB
6E60000000000000000000
EFFFFFFFFFFFFFFFFFFFFB
ENDCHAR
STARTCHAR zdotaccent
ENCODING 380
SWIDTH 714 0
DWIDTH 20 0
BBX 20 27 0 0
BITMAP
00000003AAAA60000000
00000002555530000000
00000003AAAA60000000
00000002555530000000
00000004BBBB60000000
00000001444420000000
00000000000000000000
09AAAAAAAA8480935711
04555555553D57B1E3A1
09BBBBBBB88A2E2A84C0
0444444444E2B74D1D30
09BBBBBB6C75D1D48800
034444447C1E48A2D100
00000001E3992E2B5000
0000000A93E1B66B0000
0000004D1C66C1D20000
000001D57B1E39700000
000008B2E2A84D000000
00003E2B84D1D4000000
0000C75D1D57A0000000
0006C1D48A2E10000000
001E3992E2B600000000
00A93E1B75C5EEEEEEE0
04E1C66C1E3111111110
1D57B1E3998EEEEEEEE0
3B2E2993E10000000000
32A84D1C6AFFFFFFFFF0
ENDCHAR
STARTCHAR Zcaron
ENCODING 381
SWIDTH 854 0
DWIDTH 24 0
BBX 22 32 1 0
BITMAP
0000002A1B02A1A0000000
0000000C3B5886A0000000
00000006955E2C40000000
00000001E15B3D00000000
00000000A6B59700000000
000000004DE1E100000000
000000000C85A000000000
0000000000000000000000
0000000000000000000000
9AAAAAAAAAAAAAAAAAAAA7
55555555555555555557F9
9AAAAAAAAAAAAAAA717E61
45555555555555542CB27B
ABBBBBBBBBBBB506E62CA1
44444444444432BB27D539
ABBBBBBBBA306E62CA27D5
34444444422BB27D52CA25
0000000006E62BA27D53C8
00000002BB26D62CA28D50
0000006D62BB27E53CA100
00002BB26D62CB28D50000
0005D62BB27E63CA100000
01AB26D62BB27D50000000
5D72BB26E63CA100000000
A26D62BB27D50000000000
2BB26E63CA13CDDDDDDDDA
D72BB27D50011111111111
26E62CA26DEEEEEEEEEEEB
BB27E50011111111111111
62CB28EEEEEEEEEEEEEEEB
6E60000000000000000000
EFFFFFFFFFFFFFFFFFFFFB
ENDCHAR
STARTCHAR zcaron
ENCODING 382
SWIDTH 714 0
DWIDTH 20 0
BBX 20 29 0 0
BITMAP
000000A1920A19200000
00000097885B3D000000
0000003C28B597000000
0000000C32E1E1000000
000000079886A0000000
00000001ED2C40000000
000000009B2C00000000
00000000000000000000
00000000000000000000
09AAAAAAAA8480935711
04555555553D57B1E3A1
09BBBBBBB88A2E2A84C0
0444444444E2B74D1D30
09BBBBBB6C75D1D48800
034444447C1E48A2D100
00000001E3992E2B5000
0000000A93E1B66B0000
0000004D1C66C1D20000
000001D57B1E39700000
000008B2E2A84D000000
00003E2B84D1D4000000
0000C75D1D57A0000000
0006C1D48A2E10000000
001E3992E2B600000000
00A93E1B75C5EEEEEEE0
04E1C66C1E3111111110
1D57B1E3998EEEEEEEE0
3B2E2993E10000000000
32A84D1C6AFFFFFFFFF0
ENDCHAR
STARTCHAR florin
ENCODING 402
SWIDTH 388 0
DWIDTH 11 0
BBX 10 26 0 -2
BITMAP
0000003798
00001BC864
0001C71798
0007A3D854
000D3C54A9
000E1F1E54
001E1D2D00
001E1D2D00
0B6E1D2D79
043E1D2D23
0C6E1D2D8A
032E1D2D23
0C6E1D2D8A
032E1D2D22
001E1D2D00
001E1D2D00
001E1D2D00
001E1D2D00
001E1D2D00
001E1D2D00
003D2D2C00
0EE66A4A00
0015E3A600
1FEB36C000
00139D2000
0FEC710000
ENDCHAR
STARTCHAR uni01C4
ENCODING 452
SWIDTH 1740 0
DWIDTH 49 0
BBX 47 32 1 0
BITMAP
0000000000000000000000000000000382A0382A00000000
00000000000000000000000000000000E2D3A68800000000
000000000000000000000000000000008774E1D200000000
000000000000000000000000000000002D1795B000000000
000000000000000000000000000000000B4D3B5000000000
0000000000000000000000000000000006DC2E0000000000
0000000000000000000000000000000001D6780000000000
000000000000000000000000000000000000000000000000
000000000000000000000000000000000000000000000000
7AAAAAAAAAAAA973000000000AAAAAAAAAAAAAAAAAAAAA60
B75555555555568DD5000000055555555555555555558F70
B48AAAAAAAAAA9724D9000000AAAAAAAAAAAAAAAA618D410
B4C755555555558E91AB0000055555555555555543CA2890
B4C39BBBBBBBB9619C2B90000BBBBBBBBBBBBA408D53D910
B4C3C644444446AD37C1D300044444444444423CA28D4480
B4C3C39BBBBBBA45E2B76B000BBBBBBBBBA307D53D918D40
B4C3C3D5444446D56B2E1E30044444444413CA28D43D9250
B4C3C3D20000002E2D3B697000000000007D53C918D44D60
B4C3C3D2000000097786A5B0000000002CA28D43D929D300
B4C3C3D200000005B4B4C3D000000007D53C918D44D81000
B4C3C3D200000003C3C2D2D0000002CA27D53D929D400000
B4C3C3D200000004C3C3D3C000007D53CA18D44D91000000
B4C3C3D20000000796A5B4B0002CA27D53CA29D400000000
B4C3C3D20000000D4A59878006D52CA28D54D91000000000
B4C3C3D2000001AA3D1E3C401A27D53CA28D400000000000
B4C3C3DEDDDDDE92D57A3D0002CA28D53D914CDDDDDDDD90
B4C3C3111111114D73E2B6001D53CA28D400111111111110
B4C3CEEEEEEEEEB44E56C000027D53D917DEEEEEEEEEEE90
B4C3111111111039E45D20000CA28D400111111111111110
B4CEEEEEEEEEEFC728D20000053D92AEEEEEEEEEEEEEEE90
B400000000000137DA10000008D400000000000000000000
BFFFFFFFFFFFFEC8300000001FFFFFFFFFFFFFFFFFFFFF90
ENDCHAR
STARTCHAR uni01C5
ENCODING 453
SWIDTH 1601 0
DWIDTH 45 0
BBX 43 29 1 0
BITMAP
000000000000000000000000000001A1A11A0A100000
000000000000000000000000000000B5A6795B000000
0000000000000000000000000000005B46D3B5000000
0000000000000000000000000000000E24C2E0000000
000000000000000000000000000000087A6880000000
00000000000000000000000000000002DE1D20000000
7AAAAAAAAAAAA9730000000000000000B94B00000000
B75555555555568DD500000000000000000000000000
B48AAAAAAAAAA9724D90000000000000000000000000
B4C755555555558E91AB00000AAAAAAAAA7571A16620
B4C39BBBBBBBB9619C2B900005555555553E3993E1B0
B4C3C644444446AD37C1D3000ABBBBBBB6A93E1C66A0
B4C3C39BBBBBBA45E2B76B000444444445D1C56C1D20
B4C3C3D5444446D56B2E1E300BBBBBBB5D57B1E39700
B4C3C3D20000002E2D3B6970044444448A2E2A84C000
B4C3C3D2000000097786A5B000000003E2B74D1D3000
B4C3C3D200000005B4B4C3D00000000C75D1D4890000
B4C3C3D200000003C3C2D2D00000006C1E48A2D10000
B4C3C3D200000004C3C3D3C0000001E3992E2B600000
B4C3C3D20000000796A5B4B000000A93E1B66B000000
B4C3C3D20000000D4A59878000004D1C66C1D3000000
B4C3C3D2000001AA3D1E3C400001D57B1E3980000000
B4C3C3DEDDDDDE92D57A3D000008B2E2A84D10000000
B4C3C3111111114D73E2B600003E2B84D1D500000000
B4C3CEEEEEEEEEB44E56C00000C75D1D57A6EEEEEEC0
B4C3111111111039E45D200006C1D48A2E2111111110
B4CEEEEEEEEEEFC728D200001E39A2E2B7AEEEEEEEC0
B400000000000137DA100000593E1B75D00000000000
BFFFFFFFFFFFFEC83000000041C66C1E4CFFFFFFFFD0
ENDCHAR
STARTCHAR Scommaaccent
ENCODING 536
SWIDTH 682 0
DWIDTH 19 0
BBX 19 35 0 -11
BITMAP
00000036898752000000
00005CD97667ADD71000
0009D4269A985239E500
009B19E96567ADB53C30
04D2C9169AA8524C9000
0A68A2DA65569DA21000
0E1E2C639AA962500000
2D2D2D1E644585000000
2D3C3C3C000000000000
1E1E1E1CCCBA83000000
0D2C49A133458DB20000
0885C1AEDCCA717E3000
02E38C4133359E46D000
006D35CEDCCA43D2A600
0006E9312236D66A4C00
000028DFDDC72E1E1E10
00000000123E2C2C3D20
00000130001D2C3C3C30
000005CEEEE82E1E1E10
0002D8411114D66B3D00
008717BEEEEB43E3B700
272AD84100149D46C000
1AC427BDEFEC718D2000
005CC84210147DA10000
000037BDEFEC83000000
00000000000000000000
0000002D2C3C00000000
0000002D2C3C00000000
0000002D2C3C00000000
0000002C2C3C00000000
000000003C3C00000000
00000003A84A00000000
0000002C81A700000000
000000035AC100000000
0000002CA60000000000
ENDCHAR
STARTCHAR scommaaccent
ENCODING 537
SWIDTH 683 0
DWIDTH 19 0
BBX 19 32 0 -11
BITMAP
00000000222100000000
000028CEDCDEEA610000
0008E8312321159E8100
00AB26CECCCDEA519D20
06B2CA31343215BD4300
0D3B73BECBCDEA446000
1E1E1E50000015B20000
2D3C2D00000000000000
1E1E1BA6554420000000
0B58B158AAABDE810000
04D28E965554228E4000
007D42689AABDC53E300
0004CD97665413D66B00
00000368999AD82E1E10
0000000000000D3C3C30
0001720000001D3C3C30
00227DB97779D83D1E10
006E7136787525D47A00
2D529EC9878ADB36D100
02CC5136787523AD2000
0004AECA888ADD700000
00000035676520000000
00000000000000000000
0000001E2D2D00000000
0000001E2D2D00000000
0000001E2D2D00000000
0000001D2D2D00000000
000000002D2C00000000
00000003A94B00000000
0000001C919700000000
000000035AC100000000
0000001CA71000000000
ENDCHAR
ENDFONT
